<svg width="55" height="55" viewBox="0 0 55 55" fill="none" xmlns="http://www.w3.org/2000/svg">
<g clip-path="url(#clip0_2335_5629)">
<path d="M54.2926 52.38C54.2981 53.4345 54.0794 54.4782 53.651 55.4418C53.2226 56.4054 52.5942 57.267 51.8076 57.9694C51.0211 58.6717 50.0942 59.1989 49.0884 59.516C48.0826 59.833 47.021 59.9327 45.9738 59.8084C42.1617 59.2443 39.3683 55.9272 39.4612 52.0747V7.78395C39.3691 3.92747 42.1695 0.60846 45.9864 0.0505024C47.0327 -0.0720159 48.093 0.0289993 49.0973 0.346866C50.1015 0.664733 51.0269 1.19221 51.812 1.8944C52.5972 2.59659 53.2244 3.45749 53.652 4.42015C54.0796 5.38282 54.298 6.42531 54.2926 7.47867V52.38Z" fill="#DBF7D4"/>
<path d="M7.62371 45.0413C11.7193 45.0413 15.0394 48.3615 15.0394 52.457C15.0394 56.5526 11.7193 59.8727 7.62371 59.8727C3.52808 59.8727 0.208008 56.5526 0.208008 52.4572C0.208008 48.3617 3.52808 45.0413 7.62371 45.0413ZM27.136 22.5651C23.0211 22.7908 19.8282 26.2425 19.9239 30.3626V50.282C19.9239 55.6879 22.3026 58.9697 25.7877 59.6692C26.8681 59.8883 27.9838 59.8641 29.0538 59.5984C30.1238 59.3327 31.1212 58.8321 31.9737 58.1331C32.8262 57.434 33.5124 56.554 33.9825 55.5568C34.4526 54.5596 34.6949 53.4703 34.6917 52.3678V30.0193C34.6936 29.0313 34.4987 28.0528 34.1183 27.141C33.738 26.2291 33.1799 25.4021 32.4766 24.7083C31.7732 24.0144 30.9387 23.4675 30.0218 23.0996C29.1049 22.7317 28.1238 22.5499 27.136 22.5651Z" fill="#5EDA42"/>
</g>
<defs>
<clipPath id="clip0_2335_5629">
<rect width="54.09" height="54.09" fill="white" transform="translate(0.205078)"/>
</clipPath>
</defs>
</svg>
