<svg width="120" height="257" viewBox="0 0 120 257" fill="none" xmlns="http://www.w3.org/2000/svg">
<path d="M66 2.6C68.6667 2.6 71.7333 3.13333 75.2 4.19999C78.6667 5.13333 81.4667 6.73333 83.6 9C85.0667 10.3333 84.8667 10.7333 83 10.2C81.1333 9.93333 79.2 9.53333 77.2 9C75.3333 8.33333 73.2667 8 71 8C62.7333 7.86666 56.7333 10.2667 53 15.2C49.2667 20 47.1333 26.1333 46.6 33.6C46.2 38.8 46.2667 44 46.8 49.2C47.4667 54.2667 48.2 59.3333 49 64.4C49.8 69.4667 50.4667 74.5333 51 79.6C51.6667 84.6667 51.7333 89.8 51.2 95C51.0667 96.4667 50.8667 97.3333 50.6 97.6C50.4667 97.8667 50.2667 97.8 50 97.4C49.8667 97 49.6667 96.4667 49.4 95.8C49.2667 95 49.1333 94.3333 49 93.8C48.2 88.4667 47.2 83.1333 46 77.8C44.8 72.3333 43.6667 66.8667 42.6 61.4C41.5333 55.9333 40.6667 50.4667 40 45C39.4667 39.5333 39.4667 34 40 28.4C40.4 24.8 41.2667 21.4667 42.6 18.4C43.9333 15.2 45.6667 12.4667 47.8 10.2C50.0667 7.79999 52.7333 5.93333 55.8 4.59999C58.8667 3.26666 62.2667 2.6 66 2.6ZM30.4 29C30.8 25.4 31.7333 21.8 33.2 18.2C34.6667 14.4667 36.6 11.1333 39 8.2C41.5333 5.13333 44.5333 2.73333 48 0.999993C51.6 -0.866673 55.6 -1.80001 60 -1.80001C60.1333 -1.80001 60.4667 -1.73334 61 -1.60001C61.6667 -1.60001 62.2 -1.53334 62.6 -1.40001C63.1333 -1.26667 63.3333 -1.13334 63.2 -1C63.2 -0.866673 62.7333 -0.733342 61.8 -0.60001C58.2 0.0666561 54.8667 1.26666 51.8 2.99999C48.7333 4.73333 46.0667 6.86666 43.8 9.39999C41.5333 11.9333 39.6667 14.8 38.2 18C36.8667 21.0667 36.0667 24.2667 35.8 27.6C35.2667 34 35.5333 40.4667 36.6 47C37.6667 53.4 38.8667 59.8 40.2 66.2C41.6667 72.6 42.8667 79.0667 43.8 85.6C44.8667 92 45.1333 98.4 44.6 104.8C44.3333 107.333 43.7333 110 42.8 112.8C41.8667 115.6 40.6 118.2 39 120.6C37.5333 123 35.6667 125.067 33.4 126.8C31.1333 128.4 28.6 129.4 25.8 129.8C23.6667 130.067 22.7333 130 23 129.6C23.4 129.067 24.2 128.467 25.4 127.8C30.2 125.133 33.4667 122 35.2 118.4C37.0667 114.8 38.2667 110.333 38.8 105C39.3333 98.8667 39.0667 92.6 38 86.2C37.0667 79.8 35.9333 73.4 34.6 67C33.2667 60.6 32.0667 54.2667 31 48C30.0667 41.6 29.8667 35.2667 30.4 29ZM25 139.8C30.6 139.8 35.3333 138.8 39.2 136.8C43.0667 134.667 46.2667 131.933 48.8 128.6C51.3333 125.133 53.2667 121.2 54.6 116.8C55.9333 112.267 56.8 107.6 57.2 102.8C57.7333 96.8 57.6 90.8 56.8 84.8C56 78.8 55.0667 72.8667 54 67C53.0667 61 52.2 55 51.4 49C50.6 43 50.4667 36.9333 51 30.8C51.5333 24.6667 53.4 19.8 56.6 16.2C59.9333 12.6 64.8667 10.8 71.4 10.8C73.6667 10.8 76.5333 11.2 80 12C83.6 12.8 86.5333 13.9333 88.8 15.4C91.2 17 91 17.4667 88.2 16.8C86.6 16.4 84.5333 15.9333 82 15.4C79.4667 14.8667 77.5333 14.6 76.2 14.6C71 14.6 66.5333 15.7333 62.8 18C59.0667 20.2667 56.9333 24.2667 56.4 30C55.7333 36.1333 55.8667 42.2667 56.8 48.4C57.7333 54.4 58.8 60.4667 60 66.6C61.2 72.7333 62.2 78.8667 63 85C63.9333 91.1333 64.1333 97.2667 63.6 103.4C63.2 108.467 62.2 113.4 60.6 118.2C59 123 56.7333 127.333 53.8 131.2C50.8667 135.067 47.2 138.2 42.8 140.6C38.5333 142.867 33.4667 144 27.6 144C26 144 23.9333 143.733 21.4 143.2C18.8667 142.667 16.3333 142 13.8 141.2C11.2667 140.267 8.86667 139.2 6.6 138C4.46667 136.667 2.86667 135.267 1.8 133.8C0.6 132.467 1 132.133 3 132.8C5.26667 134 8 135.467 11.2 137.2C14.5333 138.933 19.1333 139.8 25 139.8ZM23.8 132.8C27.1333 132.8 30.2 132.267 33 131.2C35.8 130.133 38.6667 128.733 41.6 127V127.6C41.6 128.8 40.9333 130 39.6 131.2C38.4 132.267 36.8667 133.267 35 134.2C33.1333 135.133 31 135.867 28.6 136.4C26.3333 136.933 24 137.2 21.6 137.2C20.6667 137.2 19.4 137.067 17.8 136.8C16.2 136.4 14.5333 135.933 12.8 135.4C11.2 134.733 9.66667 134 8.2 133.2C6.73333 132.4 5.73333 131.467 5.2 130.4C3.73333 128.8 3.26667 127.933 3.8 127.8C4.33333 127.533 5.06667 127.733 6 128.4C8.13333 129.067 10.5333 130 13.2 131.2C16 132.267 19.5333 132.8 23.8 132.8Z" fill="black" fill-opacity="0.05"/>
<path d="M66 144.6C68.6667 144.6 71.7333 145.133 75.2 146.2C78.6667 147.133 81.4667 148.733 83.6 151C85.0667 152.333 84.8667 152.733 83 152.2C81.1333 151.933 79.2 151.533 77.2 151C75.3333 150.333 73.2667 150 71 150C62.7333 149.867 56.7333 152.267 53 157.2C49.2667 162 47.1333 168.133 46.6 175.6C46.2 180.8 46.2667 186 46.8 191.2C47.4667 196.267 48.2 201.333 49 206.4C49.8 211.467 50.4667 216.533 51 221.6C51.6667 226.667 51.7333 231.8 51.2 237C51.0667 238.467 50.8667 239.333 50.6 239.6C50.4667 239.867 50.2667 239.8 50 239.4C49.8667 239 49.6667 238.467 49.4 237.8C49.2667 237 49.1333 236.333 49 235.8C48.2 230.467 47.2 225.133 46 219.8C44.8 214.333 43.6667 208.867 42.6 203.4C41.5333 197.933 40.6667 192.467 40 187C39.4667 181.533 39.4667 176 40 170.4C40.4 166.8 41.2667 163.467 42.6 160.4C43.9333 157.2 45.6667 154.467 47.8 152.2C50.0667 149.8 52.7333 147.933 55.8 146.6C58.8667 145.267 62.2667 144.6 66 144.6ZM30.4 171C30.8 167.4 31.7333 163.8 33.2 160.2C34.6667 156.467 36.6 153.133 39 150.2C41.5333 147.133 44.5333 144.733 48 143C51.6 141.133 55.6 140.2 60 140.2C60.1333 140.2 60.4667 140.267 61 140.4C61.6667 140.4 62.2 140.467 62.6 140.6C63.1333 140.733 63.3333 140.867 63.2 141C63.2 141.133 62.7333 141.267 61.8 141.4C58.2 142.067 54.8667 143.267 51.8 145C48.7333 146.733 46.0667 148.867 43.8 151.4C41.5333 153.933 39.6667 156.8 38.2 160C36.8667 163.067 36.0667 166.267 35.8 169.6C35.2667 176 35.5333 182.467 36.6 189C37.6667 195.4 38.8667 201.8 40.2 208.2C41.6667 214.6 42.8667 221.067 43.8 227.6C44.8667 234 45.1333 240.4 44.6 246.8C44.3333 249.333 43.7333 252 42.8 254.8C41.8667 257.6 40.6 260.2 39 262.6C37.5333 265 35.6667 267.067 33.4 268.8C31.1333 270.4 28.6 271.4 25.8 271.8C23.6667 272.067 22.7333 272 23 271.6C23.4 271.067 24.2 270.467 25.4 269.8C30.2 267.133 33.4667 264 35.2 260.4C37.0667 256.8 38.2667 252.333 38.8 247C39.3333 240.867 39.0667 234.6 38 228.2C37.0667 221.8 35.9333 215.4 34.6 209C33.2667 202.6 32.0667 196.267 31 190C30.0667 183.6 29.8667 177.267 30.4 171ZM25 281.8C30.6 281.8 35.3333 280.8 39.2 278.8C43.0667 276.667 46.2667 273.933 48.8 270.6C51.3333 267.133 53.2667 263.2 54.6 258.8C55.9333 254.267 56.8 249.6 57.2 244.8C57.7333 238.8 57.6 232.8 56.8 226.8C56 220.8 55.0667 214.867 54 209C53.0667 203 52.2 197 51.4 191C50.6 185 50.4667 178.933 51 172.8C51.5333 166.667 53.4 161.8 56.6 158.2C59.9333 154.6 64.8667 152.8 71.4 152.8C73.6667 152.8 76.5333 153.2 80 154C83.6 154.8 86.5333 155.933 88.8 157.4C91.2 159 91 159.467 88.2 158.8C86.6 158.4 84.5333 157.933 82 157.4C79.4667 156.867 77.5333 156.6 76.2 156.6C71 156.6 66.5333 157.733 62.8 160C59.0667 162.267 56.9333 166.267 56.4 172C55.7333 178.133 55.8667 184.267 56.8 190.4C57.7333 196.4 58.8 202.467 60 208.6C61.2 214.733 62.2 220.867 63 227C63.9333 233.133 64.1333 239.267 63.6 245.4C63.2 250.467 62.2 255.4 60.6 260.2C59 265 56.7333 269.333 53.8 273.2C50.8667 277.067 47.2 280.2 42.8 282.6C38.5333 284.867 33.4667 286 27.6 286C26 286 23.9333 285.733 21.4 285.2C18.8667 284.667 16.3333 284 13.8 283.2C11.2667 282.267 8.86667 281.2 6.6 280C4.46667 278.667 2.86667 277.267 1.8 275.8C0.6 274.467 1 274.133 3 274.8C5.26667 276 8 277.467 11.2 279.2C14.5333 280.933 19.1333 281.8 25 281.8ZM23.8 274.8C27.1333 274.8 30.2 274.267 33 273.2C35.8 272.133 38.6667 270.733 41.6 269V269.6C41.6 270.8 40.9333 272 39.6 273.2C38.4 274.267 36.8667 275.267 35 276.2C33.1333 277.133 31 277.867 28.6 278.4C26.3333 278.933 24 279.2 21.6 279.2C20.6667 279.2 19.4 279.067 17.8 278.8C16.2 278.4 14.5333 277.933 12.8 277.4C11.2 276.733 9.66667 276 8.2 275.2C6.73333 274.4 5.73333 273.467 5.2 272.4C3.73333 270.8 3.26667 269.933 3.8 269.8C4.33333 269.533 5.06667 269.733 6 270.4C8.13333 271.067 10.5333 272 13.2 273.2C16 274.267 19.5333 274.8 23.8 274.8Z" fill="black" fill-opacity="0.05"/>
</svg>
