<svg width="61" height="60" viewBox="0 0 61 60" fill="none" xmlns="http://www.w3.org/2000/svg">
<path d="M18 12.0746C18 15.9421 22.315 20.0196 25.875 22.7246C27.8725 24.2396 28.87 24.9996 30.5 24.9996C32.13 24.9996 33.1275 24.2396 35.125 22.7246C38.685 20.0171 43 15.9396 43 12.0746C43 5.0996 36.125 2.4921 30.5 7.8821C24.875 2.4921 18 5.0996 18 12.0746Z" fill="#5EDA42"/>
<path opacity="0.5" d="M16.15 53.4697H15.5C13.1425 53.4697 11.965 53.4697 11.2325 52.7372C10.5 52.0097 10.5 50.8297 10.5 48.4722V45.6922C10.5 44.3972 10.5 43.7497 10.8325 43.1697C11.165 42.5897 11.6675 42.2997 12.6725 41.7147C19.2875 37.8672 28.68 35.7022 34.9475 39.4397C35.3692 39.6913 35.7442 39.998 36.0725 40.3597C36.4089 40.7273 36.6681 41.1587 36.8348 41.6284C37.0014 42.098 37.0722 42.5963 37.0428 43.0938C37.0134 43.5912 36.8845 44.0777 36.6638 44.5245C36.443 44.9712 36.1348 45.3692 35.7575 45.6947C35.4569 45.9801 35.0901 46.1863 34.69 46.2947C34.99 46.2597 35.2775 46.2205 35.5525 46.1772C37.83 45.8147 39.7425 44.5947 41.4925 43.2722L46.0125 39.8597C46.8193 39.2742 47.7906 38.9589 48.7875 38.9589C49.7844 38.9589 50.7557 39.2742 51.5625 39.8597C52.995 40.9422 53.435 42.7247 52.5275 44.1797C51.47 45.8747 49.98 48.0422 48.55 49.3672C47.12 50.6922 44.985 51.8772 43.245 52.7172C41.315 53.6497 39.185 54.1847 37.0175 54.5372C32.6225 55.2472 28.0425 55.1372 23.6925 54.2422C21.2108 53.7314 18.6837 53.4709 16.15 53.4697Z" fill="#5EDA42"/>
</svg>
