<svg width="61" height="60" viewBox="0 0 61 60" fill="none" xmlns="http://www.w3.org/2000/svg">
<path fill-rule="evenodd" clip-rule="evenodd" d="M11.4035 1.6283C11.9662 1.13864 12.7004 0.892597 13.4446 0.944287C14.1888 0.995977 14.8819 1.34117 15.3716 1.90393C15.8612 2.46668 16.1073 3.2009 16.0556 3.94507C16.0039 4.68924 15.6587 5.38239 15.096 5.87205C10.7647 9.63955 7.8222 15.1545 7.3022 21.4795C7.2412 22.223 6.88737 22.9117 6.31855 23.3943C5.74973 23.8768 5.01251 24.1137 4.26908 24.0527C3.52564 23.9917 2.83689 23.6378 2.35433 23.069C1.87178 22.5002 1.63495 21.763 1.69595 21.0196C2.33845 13.217 5.9772 6.3483 11.4035 1.6283ZM46.1285 1.9033C46.6182 1.34079 47.3112 0.995808 48.0553 0.944237C48.7993 0.892667 49.5333 1.13873 50.096 1.6283C55.521 6.3483 59.1609 13.2158 59.8022 21.0196C59.8404 21.3917 59.8039 21.7678 59.6949 22.1257C59.5859 22.4836 59.4066 22.8162 59.1674 23.1039C58.9283 23.3917 58.6342 23.6288 58.3023 23.8015C57.9703 23.9741 57.6073 24.0788 57.2344 24.1094C56.8615 24.14 56.4863 24.0959 56.1306 23.9797C55.775 23.8635 55.4462 23.6775 55.1633 23.4326C54.8805 23.1876 54.6493 22.8888 54.4834 22.5534C54.3176 22.2181 54.2202 21.853 54.1972 21.4795C53.6759 15.1545 50.7347 9.63955 46.4035 5.8708C45.8409 5.3811 45.496 4.68802 45.4444 3.944C45.3928 3.19997 45.6389 2.46593 46.1285 1.9033ZM30.7497 4.37455C40.6472 4.37455 48.8997 11.9495 49.7447 21.8108L50.3434 28.7983C50.6108 31.9166 51.6062 34.9286 53.2497 37.592L55.0885 40.572C56.936 43.5633 55.9285 46.6546 52.4435 47.1183C48.4585 47.6483 41.8035 48.1233 30.7497 48.1233C19.6959 48.1233 13.041 47.6483 9.05595 47.1183C5.57095 46.6546 4.56345 43.5633 6.4097 40.572L8.2497 37.5933C9.89396 34.9292 10.8898 31.9163 11.1572 28.7971L11.7572 21.8095C12.5997 11.9495 20.851 4.37455 30.7497 4.37455ZM30.7497 51.8745C26.686 51.8745 23.1947 51.812 20.196 51.7033C21.1965 53.6385 22.71 55.2611 24.571 56.3937C26.432 57.5262 28.5687 58.125 30.7472 58.1245C32.9257 58.125 35.0624 57.5262 36.9234 56.3937C38.7844 55.2611 40.2979 53.6385 41.2985 51.7033C38.2997 51.8108 34.8122 51.8745 30.7497 51.8745Z" fill="white"/>
<path d="M53.25 47.5V50H8.25005V47.5L13.25 42.5V27.5C13.25 19.75 18.325 12.925 25.75 10.725V10C25.75 8.67392 26.2768 7.40215 27.2145 6.46447C28.1522 5.52678 29.424 5 30.75 5C32.0761 5 33.3479 5.52678 34.2856 6.46447C35.2233 7.40215 35.75 8.67392 35.75 10V10.725C43.175 12.925 48.25 19.75 48.25 27.5V42.5L53.25 47.5ZM35.75 52.5C35.75 53.8261 35.2233 55.0979 34.2856 56.0355C33.3479 56.9732 32.0761 57.5 30.75 57.5C29.424 57.5 28.1522 56.9732 27.2145 56.0355C26.2768 55.0979 25.75 53.8261 25.75 52.5M50.125 7.975L46.575 11.525C48.6897 13.6134 50.3686 16.1009 51.5145 18.8431C52.6603 21.5854 53.2502 24.5279 53.25 27.5H58.25C58.25 20.175 55.35 13.125 50.125 7.975ZM3.25005 27.5H8.25005C8.25005 21.5 10.65 15.75 14.925 11.525L11.375 7.975C8.79475 10.5289 6.74772 13.5702 5.3529 16.922C3.95808 20.2739 3.24329 23.8695 3.25005 27.5Z" fill="#5EDA42"/>
</svg>
