<svg width="61" height="60" viewBox="0 0 61 60" fill="none" xmlns="http://www.w3.org/2000/svg">
<path d="M50.7239 53.5711C50.7239 54.7078 50.2724 55.7979 49.4687 56.6016C48.6649 57.4053 47.5748 57.8569 46.4382 57.8569H7.86677C6.73013 57.8569 5.64004 57.4053 4.83631 56.6016C4.03258 55.7979 3.58105 54.7078 3.58105 53.5711V6.42829C3.58105 5.29165 4.03258 4.20156 4.83631 3.39783C5.64004 2.59411 6.73013 2.14258 7.86677 2.14258H33.5811L50.7239 19.2854V53.5711Z" fill="#EDFBEA"/>
<path d="M29.5439 27.3211H40.2582M29.5439 42.1883H40.2582M50.7239 53.5711C50.7239 54.7078 50.2724 55.7979 49.4687 56.6016C48.6649 57.4053 47.5748 57.8569 46.4382 57.8569H7.86677C6.73013 57.8569 5.64004 57.4053 4.83631 56.6016C4.03258 55.7979 3.58105 54.7078 3.58105 53.5711V6.42829C3.58105 5.29165 4.03258 4.20156 4.83631 3.39783C5.64004 2.59411 6.73013 2.14258 7.86677 2.14258H31.8068C32.9433 2.14282 34.0332 2.59451 34.8368 3.39829L49.4682 18.0297C50.272 18.8333 50.7237 19.9232 50.7239 21.0597V53.5711Z" stroke="#5EDA42" stroke-width="4.28571" stroke-linecap="round" stroke-linejoin="round"/>
<path d="M12.9707 41.9444L16.5621 45.5358L22.5493 37.1573M12.9707 26.8116L16.5621 30.403L22.5493 22.0244" stroke="#5EDA42" stroke-width="4.28571" stroke-linecap="round" stroke-linejoin="round"/>
</svg>
