<svg width="115" height="94" viewBox="0 0 115 94" fill="none" xmlns="http://www.w3.org/2000/svg">
<mask id="mask0_195_179867" style="mask-type:luminance" maskUnits="userSpaceOnUse" x="79" y="27" width="3" height="2">
<path d="M80.5974 27.3727L81.7362 28.0178C81.4734 27.8759 81.173 27.7985 80.8351 27.8501L79.6963 27.205C80.0217 27.1534 80.3346 27.2308 80.5974 27.3727Z" fill="white"/>
</mask>
<g mask="url(#mask0_195_179867)">
<path d="M80.8491 27.8507L79.7102 27.2056C79.9104 27.1798 80.0982 27.1927 80.2734 27.2314L81.4122 27.8765C81.237 27.8249 81.0493 27.812 80.8491 27.8507Z" fill="black" fill-opacity="0.03"/>
<path d="M81.3981 27.8761L80.2593 27.231C80.3594 27.2568 80.447 27.2955 80.5471 27.3342L81.686 27.9793C81.5984 27.9277 81.4983 27.9019 81.3981 27.8761Z" fill="black" fill-opacity="0.03"/>
<path d="M81.6862 27.9791L80.5474 27.334L80.5974 27.3598L81.7363 28.0049L81.6862 27.9791Z" fill="black" fill-opacity="0.03"/>
</g>
<mask id="mask1_195_179867" style="mask-type:luminance" maskUnits="userSpaceOnUse" x="45" y="27" width="36" height="60">
<path d="M46.2944 86.5023L45.1555 85.8572C46.3194 81.8576 47.5083 77.845 48.8224 73.8841C54.6919 56.131 63.615 37.7973 78.9332 27.5145C79.196 27.3339 79.4463 27.2435 79.6966 27.2048L80.8355 27.8499C80.5977 27.8886 80.3349 27.979 80.0721 28.1596C64.7538 38.4424 55.8307 56.7761 49.9612 74.5292C48.6472 78.503 47.4457 82.5027 46.2944 86.5023Z" fill="white"/>
</mask>
<g mask="url(#mask1_195_179867)">
<path d="M46.2944 86.5022L45.1555 85.8571C46.3194 81.8575 47.5083 77.845 48.8224 73.8841C49.2604 72.5681 49.7109 71.265 50.174 69.949L51.3128 70.5941C50.8498 71.9101 50.3993 73.2261 49.9612 74.5292C48.6472 78.503 47.4457 82.5026 46.2944 86.5022Z" fill="black" fill-opacity="0.03"/>
<path d="M51.3249 70.5943L50.186 69.9492C52.226 64.2336 54.5913 58.5309 57.4196 53.125L58.5585 53.7701C55.7301 59.176 53.3648 64.8916 51.3249 70.5943Z" fill="black" fill-opacity="0.03"/>
<path d="M58.5588 53.77L57.4199 53.1249C59.0594 49.9769 60.8615 46.932 62.8264 44.0291L63.9652 44.6742C62.0004 47.5642 60.1982 50.622 58.5588 53.77Z" fill="black" fill-opacity="0.03"/>
<path d="M63.9648 44.6742L62.8259 44.0291C64.3277 41.81 65.9421 39.6812 67.6692 37.6685L68.808 38.3136C67.081 40.3263 65.4791 42.4551 63.9648 44.6742Z" fill="black" fill-opacity="0.03"/>
<path d="M68.8088 38.3134L67.6699 37.6683C69.1842 35.9007 70.7861 34.2235 72.4756 32.6494L73.6145 33.2945C71.925 34.8686 70.3231 36.5458 68.8088 38.3134Z" fill="black" fill-opacity="0.03"/>
<path d="M73.6142 33.2945L72.4753 32.6494C74.1649 31.0754 75.9545 29.6174 77.8317 28.2756L78.9706 28.9207C77.0808 30.2625 75.3037 31.7205 73.6142 33.2945Z" fill="black" fill-opacity="0.03"/>
<path d="M78.9704 28.9207L77.8315 28.2756C78.1945 28.0176 78.5699 27.7595 78.9454 27.5015C79.033 27.437 79.1206 27.3854 79.2082 27.3467L80.347 27.9918C80.2594 28.0305 80.1718 28.0821 80.0842 28.1466C79.7088 28.3917 79.3458 28.6498 78.9704 28.9207Z" fill="black" fill-opacity="0.03"/>
<path d="M80.3478 28.0048L79.209 27.3597C79.3842 27.2822 79.5469 27.2306 79.7096 27.2048L80.8484 27.8499C80.6857 27.8757 80.523 27.9273 80.3478 28.0048Z" fill="black" fill-opacity="0.03"/>
</g>
<mask id="mask2_195_179867" style="mask-type:luminance" maskUnits="userSpaceOnUse" x="22" y="37" width="24" height="57">
<path d="M45.4941 93.7403L44.3552 93.0952C44.0423 92.9146 43.7795 92.6179 43.6293 92.1792C37.4845 74.2842 30.4511 56.9181 22.5417 40.1456C21.891 38.7651 23.0548 37.2426 24.1561 37.0878C24.4064 37.0491 24.6567 37.0878 24.882 37.2168L26.0209 37.8619C25.7956 37.7329 25.5453 37.7071 25.295 37.7329C24.1937 37.8877 23.0298 39.4102 23.6806 40.7907C31.6025 57.5632 38.6359 74.9293 44.7682 92.8243C44.9184 93.263 45.1812 93.5597 45.4941 93.7403Z" fill="white"/>
</mask>
<g mask="url(#mask2_195_179867)">
<path d="M45.4943 93.7405L44.3555 93.0954C44.0426 92.9147 43.7798 92.618 43.6296 92.1793C37.4848 74.2843 30.4514 56.9182 22.542 40.1457C22.2917 39.6296 22.3042 39.0877 22.4794 38.6104L23.6183 39.2554C23.4431 39.7328 23.4305 40.2747 23.6808 40.7908C31.6028 57.5633 38.6362 74.9294 44.7685 92.8244C44.9186 93.2631 45.1814 93.5598 45.4943 93.7405Z" fill="black" fill-opacity="0.03"/>
<path d="M23.6044 39.2423L22.4656 38.5972C22.5031 38.494 22.5532 38.3908 22.6032 38.2876L23.7421 38.9327C23.692 39.0359 23.642 39.1391 23.6044 39.2423Z" fill="black" fill-opacity="0.03"/>
<path d="M23.7426 38.9454L22.6038 38.3003C22.6538 38.21 22.7039 38.1326 22.7539 38.0422L23.8928 38.6873C23.8427 38.7647 23.7927 38.8551 23.7426 38.9454Z" fill="black" fill-opacity="0.03"/>
<path d="M23.8925 38.6876L22.7537 38.0425C22.8037 37.9651 22.8663 37.8877 22.9289 37.8103L24.0677 38.4554C24.0051 38.5328 23.9426 38.5973 23.8925 38.6876Z" fill="black" fill-opacity="0.03"/>
<path d="M24.0681 38.4682L22.9292 37.8231C22.9918 37.7457 23.0543 37.6812 23.1294 37.6167L24.2683 38.2618C24.1932 38.3263 24.1306 38.3908 24.0681 38.4682Z" fill="black" fill-opacity="0.03"/>
<path d="M24.268 38.262L23.1292 37.6169C23.2042 37.5524 23.2793 37.4878 23.3669 37.4233L24.5058 38.0684C24.4182 38.1329 24.3431 38.1975 24.268 38.262Z" fill="black" fill-opacity="0.03"/>
<path d="M24.5063 38.0684L23.3674 37.4233C23.4676 37.3588 23.5677 37.2943 23.6678 37.2427L24.8066 37.8878C24.7065 37.9394 24.6064 38.0039 24.5063 38.0684Z" fill="black" fill-opacity="0.03"/>
<path d="M24.8066 37.8878L23.6677 37.2427C23.8304 37.1653 23.9806 37.1137 24.1433 37.0879C24.306 37.0621 24.4687 37.075 24.6189 37.1137L25.7577 37.7588C25.6075 37.7201 25.4448 37.7072 25.2821 37.733C25.1195 37.7588 24.9568 37.8104 24.8066 37.8878Z" fill="black" fill-opacity="0.03"/>
<path d="M25.7573 37.7589L24.6184 37.1138C24.6935 37.1267 24.7561 37.1525 24.8187 37.1912L25.9575 37.8363C25.8949 37.7976 25.8198 37.7718 25.7573 37.7589Z" fill="black" fill-opacity="0.03"/>
<path d="M25.9702 37.836L24.8313 37.1909L24.8689 37.2167L26.0077 37.8618L25.9702 37.836Z" fill="black" fill-opacity="0.03"/>
</g>
<path d="M80.8482 27.8501C82.4126 27.6179 83.4513 29.9918 81.7618 31.1272C77.8822 33.7334 74.328 36.9331 71.1617 40.6101C58.6718 55.1249 53.1653 74.2456 47.9966 92.3599C47.7338 93.2889 47.083 93.8049 46.4197 93.9082C45.7564 94.0114 45.0556 93.6501 44.7678 92.8244C38.6229 74.9294 31.5896 57.5633 23.6802 40.7908C23.0294 39.4103 24.1933 37.8878 25.2946 37.733C25.7952 37.6556 26.2833 37.8749 26.5711 38.4942C33.8923 54.0153 40.4752 70.0395 46.3071 86.5024C47.471 82.5028 48.6599 78.4903 49.974 74.5294C55.8435 56.7763 64.7666 38.4426 80.0848 28.1598C80.3476 27.9791 80.5979 27.8888 80.8482 27.8501Z" fill="black" fill-opacity="0.03"/>
<mask id="mask3_195_179867" style="mask-type:luminance" maskUnits="userSpaceOnUse" x="112" y="0" width="3" height="2">
<path d="M113.061 1.11714L114.2 1.76224C113.987 1.64612 113.737 1.58161 113.487 1.62032L112.348 0.975218C112.598 0.936512 112.849 0.98812 113.061 1.11714Z" fill="white"/>
</mask>
<g mask="url(#mask3_195_179867)">
<path d="M113.487 1.60647L112.348 0.961372C112.498 0.935568 112.648 0.961372 112.786 0.987176L113.925 1.63227C113.787 1.59357 113.637 1.58067 113.487 1.60647Z" fill="black" fill-opacity="0.03"/>
<path d="M113.913 1.63338L112.774 0.988281C112.849 1.01409 112.937 1.03989 113.012 1.0786L114.151 1.72369C114.075 1.68499 114 1.65918 113.913 1.63338Z" fill="black" fill-opacity="0.03"/>
<path d="M114.15 1.72371L113.011 1.07861L113.061 1.10442L114.2 1.74952L114.15 1.72371Z" fill="black" fill-opacity="0.03"/>
</g>
<mask id="mask4_195_179867" style="mask-type:luminance" maskUnits="userSpaceOnUse" x="63" y="8" width="46" height="51">
<path d="M65.5669 58.3374L64.4281 57.6923C63.7398 57.3052 63.2767 56.3892 63.7147 55.2667C65.642 50.3253 69.0336 46.2225 72.8256 42.855C76.6552 39.4618 80.9102 36.8427 85.0026 33.9527C88.7445 31.3078 92.3238 28.3274 95.6027 24.9342C100.258 20.1089 104.301 14.6255 107.63 8.67773L108.768 9.32283C105.439 15.2706 101.397 20.754 96.7416 25.5793C93.4627 28.9725 89.8834 31.9529 86.1414 34.5978C82.0491 37.4878 77.794 40.1069 73.9644 43.5001C70.1724 46.8546 66.7809 50.9704 64.8536 55.9118C64.4281 57.0214 64.8786 57.9503 65.5669 58.3374Z" fill="white"/>
</mask>
<g mask="url(#mask4_195_179867)">
<path d="M65.5677 58.3375L64.4289 57.6924C63.7531 57.3182 63.3025 56.428 63.6905 55.3442L64.8294 55.9893C64.4414 57.0731 64.9045 57.9633 65.5677 58.3375Z" fill="black" fill-opacity="0.03"/>
<path d="M64.8283 55.9894L63.6895 55.3443L63.7145 55.2668C64.0649 54.3766 64.4654 53.4993 64.9034 52.6606L66.0423 53.3057C65.6042 54.1444 65.2038 55.0217 64.8533 55.9119L64.8283 55.9894Z" fill="black" fill-opacity="0.03"/>
<path d="M66.0424 53.3184L64.9036 52.6733C65.4292 51.6798 66.0049 50.7122 66.6306 49.7961L67.7695 50.4412C67.1437 51.3573 66.568 52.3249 66.0424 53.3184Z" fill="black" fill-opacity="0.03"/>
<path d="M67.77 50.4416L66.6311 49.7965C67.3194 48.7772 68.0703 47.8096 68.8713 46.8806L70.0101 47.5257C69.2092 48.4547 68.4583 49.4223 67.77 50.4416Z" fill="black" fill-opacity="0.03"/>
<path d="M70.01 47.5127L68.8711 46.8676C69.8723 45.7065 70.9361 44.6098 72.0374 43.5776L73.1762 44.2227C72.0624 45.2549 70.9986 46.3516 70.01 47.5127Z" fill="black" fill-opacity="0.03"/>
<path d="M73.1769 44.2227L72.0381 43.5776C72.3009 43.3325 72.5637 43.1002 72.8265 42.868C74.491 41.3843 76.2431 40.0554 78.0327 38.7781L79.1716 39.4232C77.382 40.7005 75.6424 42.0294 73.9654 43.5131C73.7026 43.7453 73.4398 43.9905 73.1769 44.2227Z" fill="black" fill-opacity="0.03"/>
<path d="M79.1704 39.4232L78.0315 38.7781C80.3342 37.1396 82.6996 35.5913 85.0023 33.9657C85.1024 33.9012 85.2025 33.8237 85.3026 33.7463L86.4415 34.3914C86.3414 34.4688 86.2413 34.5334 86.1412 34.6108C83.8384 36.2364 81.4731 37.7847 79.1704 39.4232Z" fill="black" fill-opacity="0.03"/>
<path d="M86.4418 34.4044L85.303 33.7593C87.9561 31.8627 90.5217 29.8113 92.9496 27.5535L94.0884 28.1986C91.6606 30.4564 89.0825 32.5078 86.4418 34.4044Z" fill="black" fill-opacity="0.03"/>
<path d="M94.0895 28.1982L92.9507 27.5531C93.8518 26.7145 94.7403 25.85 95.6038 24.9598C96.6426 23.876 97.6438 22.7665 98.6325 21.6311L99.7713 22.2762C98.7951 23.4116 97.7814 24.5211 96.7427 25.6049C95.8792 26.4951 94.9906 27.3596 94.0895 28.1982Z" fill="black" fill-opacity="0.03"/>
<path d="M99.7582 22.2634L98.6194 21.6183C100.509 19.412 102.274 17.1026 103.926 14.677L105.065 15.3221C103.425 17.7348 101.648 20.0571 99.7582 22.2634Z" fill="black" fill-opacity="0.03"/>
<path d="M105.064 15.3352L103.925 14.6901C105.239 12.7548 106.478 10.755 107.629 8.70361L108.768 9.34871C107.617 11.4001 106.378 13.3999 105.064 15.3352Z" fill="black" fill-opacity="0.03"/>
</g>
<mask id="mask5_195_179867" style="mask-type:luminance" maskUnits="userSpaceOnUse" x="65" y="0" width="49" height="40">
<path d="M67.2073 39.6425L66.0685 38.9974C65.7681 38.8297 65.5428 38.4943 65.4677 37.9782C64.8295 33.5141 66.0184 28.9597 68.5089 24.9601C78.9838 8.14883 98.87 14.0579 111.498 1.43981C111.785 1.15597 112.073 1.01405 112.349 0.975342L113.487 1.62044C113.212 1.65915 112.924 1.80107 112.636 2.08491C100.009 14.703 80.1227 8.79393 69.6477 25.6052C67.1573 29.6177 65.9683 34.1592 66.6066 38.6233C66.6817 39.1523 66.9069 39.4748 67.2073 39.6425Z" fill="white"/>
</mask>
<g mask="url(#mask5_195_179867)">
<path d="M67.2067 39.6424L66.0679 38.9973C65.7675 38.8296 65.5423 38.4942 65.4672 37.9781C65.0417 35.0493 65.4171 32.0819 66.4183 29.2563L67.5571 29.9014C66.556 32.727 66.1805 35.6944 66.606 38.6232C66.6811 39.1522 66.9064 39.4747 67.2067 39.6424Z" fill="black" fill-opacity="0.03"/>
<path d="M67.558 29.8885L66.4192 29.2434C66.7571 28.3016 67.1576 27.3856 67.6331 26.4824L68.772 27.1275C68.2964 28.0307 67.8959 28.9467 67.558 29.8885Z" fill="black" fill-opacity="0.03"/>
<path d="M68.7714 27.1274L67.6326 26.4823C67.9079 25.9662 68.1957 25.4501 68.5086 24.9469C68.7088 24.6244 68.9216 24.3018 69.1344 23.9922L70.2732 24.6373C70.0605 24.9469 69.8602 25.2695 69.6475 25.592C69.3346 26.0952 69.0467 26.6113 68.7714 27.1274Z" fill="black" fill-opacity="0.03"/>
<path d="M70.2729 24.6372L69.134 23.9921C69.7097 23.1406 70.323 22.3536 70.9487 21.6182L72.0876 22.2633C71.4618 22.9987 70.8611 23.7857 70.2729 24.6372Z" fill="black" fill-opacity="0.03"/>
<path d="M72.0878 22.2633L70.949 21.6182C71.5997 20.8569 72.2755 20.1602 72.9639 19.5151L74.1027 20.1602C73.4019 20.8053 72.7386 21.502 72.0878 22.2633Z" fill="black" fill-opacity="0.03"/>
<path d="M74.1025 20.1736L72.9636 19.5285C73.7771 18.7801 74.6156 18.0963 75.4916 17.4771L76.6305 18.1221C75.7544 18.7414 74.916 19.4252 74.1025 20.1736Z" fill="black" fill-opacity="0.03"/>
<path d="M76.6306 18.122L75.4917 17.4769C76.8433 16.5222 78.2575 15.7094 79.7092 14.9998L80.8481 15.6449C79.3963 16.3545 77.9822 17.1673 76.6306 18.122Z" fill="black" fill-opacity="0.03"/>
<path d="M80.8483 15.6448L79.7095 14.9997C87.281 11.3356 96.079 10.5486 103.763 6.8457L104.902 7.4908C97.2178 11.1937 88.4198 11.9807 80.8483 15.6448Z" fill="black" fill-opacity="0.03"/>
<path d="M104.903 7.4907L103.764 6.8456C105.265 6.12309 106.73 5.28447 108.131 4.29102L109.27 4.93611C107.869 5.92957 106.404 6.76819 104.903 7.4907Z" fill="black" fill-opacity="0.03"/>
<path d="M109.258 4.92302L108.119 4.27792C109.032 3.63282 109.921 2.91031 110.772 2.12329L111.911 2.76839C111.06 3.55541 110.171 4.27792 109.258 4.92302Z" fill="black" fill-opacity="0.03"/>
<path d="M111.911 2.76841L110.772 2.12331C111.01 1.90398 111.26 1.67175 111.498 1.42661C111.523 1.4008 111.535 1.3879 111.56 1.375L112.699 2.0201C112.699 2.0201 112.661 2.0588 112.636 2.07171C112.399 2.30394 112.161 2.53618 111.911 2.76841Z" fill="black" fill-opacity="0.03"/>
<path d="M112.699 2.02038L111.56 1.37528C111.622 1.31077 111.685 1.25916 111.76 1.22046L112.899 1.86556C112.836 1.91717 112.774 1.96877 112.699 2.02038Z" fill="black" fill-opacity="0.03"/>
<path d="M112.899 1.86543L111.76 1.22033C111.835 1.16872 111.91 1.11711 111.985 1.09131L113.124 1.73641C113.049 1.77511 112.974 1.81382 112.899 1.86543Z" fill="black" fill-opacity="0.03"/>
<path d="M113.124 1.72362L111.985 1.07852C112.11 1.01401 112.235 0.988206 112.348 0.962402L113.487 1.6075C113.361 1.6204 113.249 1.65911 113.124 1.72362Z" fill="black" fill-opacity="0.03"/>
</g>
<path d="M110.897 1.97331C112.011 1.81849 112.899 3.37963 112.336 4.65692C110.184 9.46936 107.593 14.0496 104.615 18.3459C99.2957 26.0226 92.7379 32.6155 85.4667 37.7763C77.9453 43.1177 68.9345 48.0333 65.155 57.7356C64.8797 58.4581 64.4042 58.8065 63.9036 58.8839C62.8273 59.0387 61.6634 57.8517 62.2641 56.2777C64.1914 51.3362 67.5829 47.2334 71.375 43.866C75.2045 40.4728 79.4596 37.8537 83.552 34.9636C87.2939 32.3187 90.8732 29.3384 94.1521 25.9452C98.8076 21.1198 102.85 15.6365 106.179 9.68869C99.521 13.6496 91.8994 14.7463 84.8285 17.0944C80.3231 18.591 75.63 20.6941 72.1133 24.6163C69.0096 28.0611 66.5692 32.8864 67.2325 37.5182C67.4328 38.8987 66.344 39.9825 65.3803 40.1244C64.7421 40.2147 64.1539 39.8922 64.0162 38.9762C63.3779 34.5121 64.5669 29.9577 67.0573 25.9581C77.5323 9.14681 97.4185 15.0559 110.046 2.43779C110.334 2.15394 110.622 2.01202 110.897 1.97331Z" fill="black" fill-opacity="0.03"/>
<mask id="mask6_195_179867" style="mask-type:luminance" maskUnits="userSpaceOnUse" x="20" y="3" width="3" height="2">
<path d="M20.9181 4.1187L22.0569 4.7638C21.7941 4.62188 21.5063 4.58317 21.2184 4.62188L20.0796 3.97678C20.3674 3.93808 20.6553 3.97678 20.9181 4.1187Z" fill="white"/>
</mask>
<g mask="url(#mask6_195_179867)">
<path d="M21.2326 4.62176L20.0938 3.97667C20.2815 3.95086 20.4692 3.95086 20.6444 4.00247L21.7833 4.64757C21.6081 4.59596 21.4203 4.59596 21.2326 4.62176Z" fill="black" fill-opacity="0.03"/>
<path d="M21.7817 4.64754L20.6428 4.00244C20.7304 4.02825 20.8055 4.05405 20.8806 4.09276L22.0195 4.73785C21.9444 4.69915 21.8568 4.67334 21.7817 4.64754Z" fill="black" fill-opacity="0.03"/>
<path d="M22.02 4.73787L20.8811 4.09277L20.9312 4.11858L22.07 4.76368L22.02 4.73787Z" fill="black" fill-opacity="0.03"/>
</g>
<mask id="mask7_195_179867" style="mask-type:luminance" maskUnits="userSpaceOnUse" x="12" y="3" width="15" height="34">
<path d="M13.7219 35.2124L12.583 34.5673C14.2725 35.5221 16.2123 35.9865 18.1647 35.7027C19.3035 35.535 20.4549 35.1092 21.5812 34.3738C26.1492 31.3676 25.9489 25.6005 24.9102 21.0848C23.6962 15.8208 21.2058 11.2664 18.5526 6.93132C17.7517 5.64112 18.9156 4.13159 20.0794 3.96387L21.2183 4.60897C20.0544 4.77669 18.8905 6.27332 19.6915 7.57642C22.3446 11.9115 24.8351 16.4659 26.049 21.7299C27.0878 26.2456 27.288 32.0127 22.7201 35.0189C21.5937 35.7543 20.4424 36.1801 19.3035 36.3478C17.3387 36.6316 15.4114 36.1543 13.7219 35.2124Z" fill="white"/>
</mask>
<g mask="url(#mask7_195_179867)">
<path d="M13.7219 35.2122L12.583 34.5671C12.7082 34.6446 12.8333 34.7091 12.971 34.7736L14.1098 35.4187C13.9847 35.3542 13.847 35.2896 13.7219 35.2122Z" fill="black" fill-opacity="0.03"/>
<path d="M14.1103 35.4188L12.9714 34.7737C13.5722 35.0833 14.1979 35.3285 14.8487 35.4962L15.9875 36.1413C15.3367 35.9736 14.711 35.7284 14.1103 35.4188Z" fill="black" fill-opacity="0.03"/>
<path d="M15.9872 36.1413L14.8484 35.4962C15.9247 35.7801 17.0385 35.8704 18.1773 35.7027C18.9783 35.5865 19.7793 35.3414 20.5802 34.9543L21.7191 35.5994C20.9181 35.9865 20.1172 36.2316 19.3162 36.3478C18.1899 36.5155 17.0635 36.4252 15.9872 36.1413Z" fill="black" fill-opacity="0.03"/>
<path d="M21.7065 35.5992L20.5676 34.9541C20.9055 34.7864 21.2434 34.5928 21.5813 34.3735C21.6689 34.309 21.7565 34.2574 21.8441 34.1929L22.983 34.838C22.8954 34.9025 22.8078 34.9541 22.7202 35.0186C22.3823 35.2379 22.0444 35.4315 21.7065 35.5992Z" fill="black" fill-opacity="0.03"/>
<path d="M22.9958 34.8511L21.8569 34.206C22.1698 33.9866 22.4451 33.7544 22.7079 33.5093L23.8468 34.1544C23.584 34.3995 23.2961 34.6317 22.9958 34.8511Z" fill="black" fill-opacity="0.03"/>
<path d="M23.8459 34.1544L22.707 33.5093C22.9323 33.2899 23.1576 33.0706 23.3453 32.8384L24.4841 33.4835C24.2839 33.7157 24.0712 33.935 23.8459 34.1544Z" fill="black" fill-opacity="0.03"/>
<path d="M24.4841 33.4834L23.3452 32.8383C23.5455 32.606 23.7207 32.3738 23.8834 32.1287L25.0222 32.7738C24.8595 33.0189 24.6718 33.2511 24.4841 33.4834Z" fill="black" fill-opacity="0.03"/>
<path d="M25.0358 32.774L23.897 32.1289C24.0847 31.858 24.2474 31.5741 24.3976 31.2903L25.5364 31.9354C25.3862 32.2192 25.2236 32.5031 25.0358 32.774Z" fill="black" fill-opacity="0.03"/>
<path d="M25.5358 31.9355L24.397 31.2904C24.5847 30.9162 24.7599 30.5291 24.8976 30.1421L26.0364 30.7872C25.8988 31.1871 25.7361 31.5613 25.5358 31.9355Z" fill="black" fill-opacity="0.03"/>
<path d="M26.0246 30.7869L24.8858 30.1418C25.887 27.3034 25.5741 23.9489 24.9233 21.0975C23.7094 15.8335 21.2189 11.2791 18.5658 6.94406C18.2529 6.44089 18.2404 5.899 18.4156 5.42163L19.5544 6.06673C19.3792 6.5441 19.4043 7.08598 19.7046 7.58916C22.3578 11.9242 24.8482 16.4786 26.0622 21.7426C26.713 24.594 27.0384 27.9485 26.0246 30.7869Z" fill="black" fill-opacity="0.03"/>
<path d="M19.5407 6.06692L18.4019 5.42182C18.4394 5.33151 18.4769 5.24119 18.5145 5.15088L19.6533 5.79598C19.6033 5.88629 19.5657 5.9766 19.5407 6.06692Z" fill="black" fill-opacity="0.03"/>
<path d="M19.6542 5.79583L18.5154 5.15073C18.5529 5.07332 18.603 4.99591 18.653 4.9314L19.7919 5.57649C19.7418 5.65391 19.6918 5.71842 19.6542 5.79583Z" fill="black" fill-opacity="0.03"/>
<path d="M19.7912 5.57663L18.6523 4.93153C18.7024 4.85412 18.7525 4.78961 18.815 4.7251L19.9539 5.3702C19.8913 5.43471 19.8413 5.49922 19.7912 5.57663Z" fill="black" fill-opacity="0.03"/>
<path d="M19.9545 5.37012L18.8157 4.72502C18.8782 4.66051 18.9408 4.5831 19.0034 4.53149L20.1423 5.17659C20.0797 5.2411 20.0171 5.30561 19.9545 5.37012Z" fill="black" fill-opacity="0.03"/>
<path d="M20.142 5.16358L19.0032 4.51848C19.0783 4.45397 19.1533 4.38946 19.241 4.32495L20.3798 4.97005C20.2922 5.02166 20.2171 5.08617 20.142 5.16358Z" fill="black" fill-opacity="0.03"/>
<path d="M20.3796 4.97022L19.2407 4.32512C19.3408 4.24771 19.4535 4.1961 19.5536 4.13159L20.6925 4.77669C20.5798 4.8283 20.4797 4.89281 20.3796 4.97022Z" fill="black" fill-opacity="0.03"/>
<path d="M20.6931 4.78963L19.5542 4.14453C19.7294 4.06712 19.9046 4.00261 20.0798 3.97681L21.2187 4.6219C21.0435 4.64771 20.8558 4.69932 20.6931 4.78963Z" fill="black" fill-opacity="0.03"/>
</g>
<mask id="mask8_195_179867" style="mask-type:luminance" maskUnits="userSpaceOnUse" x="0" y="18" width="12" height="21">
<path d="M11.9948 38.7475L10.8559 38.1024C5.32432 35.006 2.38332 27.4841 0.205725 21.1234C-0.232297 19.8203 0.768896 18.7882 1.79512 18.6334C2.13302 18.5818 2.45841 18.6334 2.75877 18.7882L3.89762 19.4333C3.60978 19.2656 3.27188 19.2269 2.93397 19.2785C1.90775 19.4333 0.906559 20.4654 1.34458 21.7685C3.52217 28.1421 6.46317 35.6511 11.9948 38.7475Z" fill="white"/>
</mask>
<g mask="url(#mask8_195_179867)">
<path d="M11.9944 38.7473L10.8556 38.1022C5.324 35.0057 2.383 27.4839 0.205404 21.1232C0.0552253 20.6846 0.0677402 20.2717 0.205404 19.9233L1.34426 20.5684C1.21911 20.9168 1.2066 21.3297 1.34426 21.7683C3.52185 28.1419 6.46285 35.6508 11.9944 38.7473Z" fill="black" fill-opacity="0.03"/>
<path d="M1.33222 20.5687L0.193359 19.9236C0.218389 19.8462 0.255931 19.7688 0.293476 19.6914L1.43234 20.3365C1.39479 20.4139 1.35724 20.4913 1.33222 20.5687Z" fill="black" fill-opacity="0.03"/>
<path d="M1.43183 20.3365L0.292969 19.6914C0.330513 19.6269 0.368058 19.5624 0.405603 19.5107L1.54446 20.1558C1.54446 20.1558 1.46937 20.272 1.43183 20.3365Z" fill="black" fill-opacity="0.03"/>
<path d="M1.54535 20.1427L0.406494 19.4976C0.406494 19.4976 0.494101 19.3814 0.531646 19.3298L1.6705 19.9749C1.6705 19.9749 1.58289 20.091 1.54535 20.1427Z" fill="black" fill-opacity="0.03"/>
<path d="M1.68231 19.9752L0.543457 19.3301C0.543457 19.3301 0.643578 19.214 0.706152 19.1624L1.84501 19.8075C1.84501 19.8075 1.73237 19.9107 1.68231 19.9752Z" fill="black" fill-opacity="0.03"/>
<path d="M1.84564 19.8075L0.706787 19.1624C0.769362 19.0978 0.844449 19.0462 0.919538 18.9946L2.0584 19.6397C1.98331 19.6913 1.92073 19.7429 1.84564 19.8075Z" fill="black" fill-opacity="0.03"/>
<path d="M2.04559 19.6394L0.906738 18.9943C1.00686 18.9298 1.10698 18.8653 1.2071 18.8137L2.34595 19.4588C2.24583 19.5104 2.1332 19.5749 2.04559 19.6394Z" fill="black" fill-opacity="0.03"/>
<path d="M2.35809 19.4589L1.21924 18.8138C1.40696 18.7235 1.6072 18.659 1.79492 18.6332C2.00768 18.6074 2.23295 18.6074 2.43319 18.659L3.57204 19.3041C3.3718 19.2525 3.14653 19.2396 2.93378 19.2783C2.73354 19.3041 2.5333 19.3686 2.35809 19.4589Z" fill="black" fill-opacity="0.03"/>
<path d="M3.58441 19.3043L2.44556 18.6592C2.53316 18.685 2.62076 18.7108 2.70837 18.7624L3.84722 19.4075C3.75962 19.3688 3.67202 19.3301 3.58441 19.3043Z" fill="black" fill-opacity="0.03"/>
<path d="M3.84808 19.4073L2.70923 18.7622L2.75929 18.788L3.89815 19.4331L3.84808 19.4073Z" fill="black" fill-opacity="0.03"/>
</g>
<path d="M21.2308 4.622C21.7439 4.54458 22.2445 4.72521 22.5949 5.2929C25.3982 9.86019 28.0138 14.7371 29.2778 20.285C30.3166 24.7878 30.667 30.1679 27.8011 34.5417C25.7361 37.6768 22.4072 39.625 19.1658 40.0895C18.7153 40.154 18.2647 40.1927 17.8267 40.1927C8.34041 40.3217 4.19797 30.0647 1.35709 21.7558C0.91907 20.4527 1.92026 19.4205 2.94648 19.2657C3.62229 19.1625 4.29809 19.4464 4.58593 20.2979C6.2379 25.1619 7.97747 30.284 11.5693 33.6127C13.6592 35.5609 16.4626 36.7608 19.3285 36.335C20.4673 36.1673 21.6187 35.7415 22.7451 35.0061C27.313 32 27.1128 26.2328 26.074 21.7171C24.8601 16.4531 22.3696 11.8987 19.7165 7.56364C18.9155 6.27345 20.0794 4.76392 21.2433 4.59619L21.2308 4.622Z" fill="black" fill-opacity="0.03"/>
<mask id="mask9_195_179867" style="mask-type:luminance" maskUnits="userSpaceOnUse" x="9" y="10" width="3" height="2">
<path d="M10.628 11.106L11.7669 11.7511C11.5416 11.6221 11.2913 11.5834 11.0285 11.6221L9.88965 10.977C10.1525 10.9383 10.4028 10.977 10.628 11.106Z" fill="white"/>
</mask>
<g mask="url(#mask9_195_179867)">
<path d="M11.0285 11.6219L9.88965 10.9768C10.0523 10.951 10.215 10.9639 10.3777 11.0026L11.5166 11.6477C11.3539 11.609 11.1912 11.5961 11.0285 11.6219Z" fill="black" fill-opacity="0.03"/>
<path d="M11.5165 11.6478L10.3777 11.0027C10.4528 11.0156 10.5153 11.0543 10.5904 11.0801L11.7293 11.7252C11.6667 11.6865 11.5916 11.6607 11.5165 11.6478Z" fill="black" fill-opacity="0.03"/>
<path d="M11.7294 11.7254L10.5906 11.0803L10.6281 11.1061L11.767 11.7512L11.7294 11.7254Z" fill="black" fill-opacity="0.03"/>
</g>
<mask id="mask10_195_179867" style="mask-type:luminance" maskUnits="userSpaceOnUse" x="8" y="10" width="13" height="26">
<path d="M20.0015 35.6198L18.8626 34.9747C18.6499 34.8585 18.4496 34.6521 18.312 34.3554C14.9705 27.5818 11.629 20.8083 8.30006 14.0219C7.62425 12.6543 8.78814 11.1318 9.90197 10.9641L11.0408 11.6092C9.92699 11.764 8.76311 13.2865 9.43891 14.667C12.7804 21.4405 16.1219 28.214 19.4508 35.0005C19.601 35.2972 19.7887 35.5036 20.0015 35.6198Z" fill="white"/>
</mask>
<g mask="url(#mask10_195_179867)">
<path d="M20.0016 35.6198L18.8627 34.9747C18.65 34.8585 18.4498 34.6521 18.3121 34.3554C14.9706 27.5818 11.6291 20.8083 8.30017 14.0219C8.04987 13.5058 8.04986 12.9639 8.22507 12.4736L9.36393 13.1187C9.18872 13.5961 9.18872 14.138 9.43902 14.667C12.7805 21.4405 16.122 28.214 19.4509 35.0005C19.6011 35.2972 19.7888 35.5036 20.0016 35.6198Z" fill="black" fill-opacity="0.03"/>
<path d="M9.3515 13.1315L8.21265 12.4864C8.25019 12.3832 8.28773 12.28 8.33779 12.1897L9.47664 12.8348C9.42659 12.938 9.37653 13.0283 9.3515 13.1315Z" fill="black" fill-opacity="0.03"/>
<path d="M9.47723 12.8219L8.33838 12.1768C8.38844 12.0865 8.4385 12.0091 8.48856 11.9316L9.62741 12.5767C9.57735 12.6542 9.52729 12.7445 9.47723 12.8219Z" fill="black" fill-opacity="0.03"/>
<path d="M9.62738 12.5766L8.48853 11.9315C8.53858 11.8541 8.60116 11.7767 8.66373 11.7122L9.80258 12.3573C9.74001 12.4347 9.68995 12.4992 9.62738 12.5766Z" fill="black" fill-opacity="0.03"/>
<path d="M9.80194 12.3574L8.66309 11.7123C8.72566 11.6349 8.78823 11.5704 8.86332 11.5059L10.0022 12.151C9.92709 12.2155 9.86451 12.28 9.80194 12.3574Z" fill="black" fill-opacity="0.03"/>
<path d="M10.0026 12.1511L8.86377 11.506C8.93886 11.4415 9.01395 11.377 9.10156 11.3125L10.2404 11.9576C10.1528 12.0221 10.0777 12.0866 10.0026 12.1511Z" fill="black" fill-opacity="0.03"/>
<path d="M10.2399 11.9573L9.10107 11.3122C9.20119 11.2477 9.30131 11.1832 9.40143 11.1316L10.5403 11.7767C10.4402 11.8283 10.34 11.8928 10.2399 11.9573Z" fill="black" fill-opacity="0.03"/>
<path d="M10.5405 11.777L9.40161 11.1319C9.56431 11.0545 9.727 11.0029 9.88969 10.9771L11.0286 11.6221C10.8659 11.648 10.7032 11.6996 10.5405 11.777Z" fill="black" fill-opacity="0.03"/>
</g>
<path d="M11.0289 11.6222C11.5295 11.5448 12.0176 11.7512 12.318 12.3705C15.6594 19.157 19.0009 25.9305 22.3299 32.704C23.0057 34.0716 21.8418 35.5812 20.7405 35.7489C20.2399 35.8263 19.7518 35.6199 19.4389 35.0006C16.0975 28.227 12.756 21.4535 9.42701 14.6671C8.75121 13.2995 9.91509 11.777 11.0289 11.6093V11.6222Z" fill="black" fill-opacity="0.03"/>
</svg>
