<svg width="120" height="1024" viewBox="0 0 120 1024" fill="none" xmlns="http://www.w3.org/2000/svg">
<path d="M66 -72.4C68.6667 -72.4 71.7333 -71.8667 75.2 -70.8C78.6667 -69.8667 81.4667 -68.2667 83.6 -66C85.0667 -64.6667 84.8667 -64.2667 83 -64.8C81.1333 -65.0667 79.2 -65.4667 77.2 -66C75.3333 -66.6667 73.2667 -67 71 -67C62.7333 -67.1333 56.7333 -64.7333 53 -59.8C49.2667 -55 47.1333 -48.8667 46.6 -41.4C46.2 -36.2 46.2667 -31 46.8 -25.8C47.4667 -20.7333 48.2 -15.6667 49 -10.6C49.8 -5.53334 50.4667 -0.46667 51 4.59999C51.6667 9.66666 51.7333 14.8 51.2 20C51.0667 21.4667 50.8667 22.3333 50.6 22.6C50.4667 22.8667 50.2667 22.8 50 22.4C49.8667 22 49.6667 21.4667 49.4 20.8C49.2667 20 49.1333 19.3333 49 18.8C48.2 13.4667 47.2 8.13333 46 2.79999C44.8 -2.66667 43.6667 -8.13334 42.6 -13.6C41.5333 -19.0667 40.6667 -24.5333 40 -30C39.4667 -35.4667 39.4667 -41 40 -46.6C40.4 -50.2 41.2667 -53.5333 42.6 -56.6C43.9333 -59.8 45.6667 -62.5333 47.8 -64.8C50.0667 -67.2 52.7333 -69.0667 55.8 -70.4C58.8667 -71.7333 62.2667 -72.4 66 -72.4ZM30.4 -46C30.8 -49.6 31.7333 -53.2 33.2 -56.8C34.6667 -60.5333 36.6 -63.8667 39 -66.8C41.5333 -69.8667 44.5333 -72.2667 48 -74C51.6 -75.8667 55.6 -76.8 60 -76.8C60.1333 -76.8 60.4667 -76.7333 61 -76.6C61.6667 -76.6 62.2 -76.5333 62.6 -76.4C63.1333 -76.2667 63.3333 -76.1333 63.2 -76C63.2 -75.8667 62.7333 -75.7333 61.8 -75.6C58.2 -74.9333 54.8667 -73.7333 51.8 -72C48.7333 -70.2667 46.0667 -68.1333 43.8 -65.6C41.5333 -63.0667 39.6667 -60.2 38.2 -57C36.8667 -53.9333 36.0667 -50.7333 35.8 -47.4C35.2667 -41 35.5333 -34.5333 36.6 -28C37.6667 -21.6 38.8667 -15.2 40.2 -8.80001C41.6667 -2.4 42.8667 4.06666 43.8 10.6C44.8667 17 45.1333 23.4 44.6 29.8C44.3333 32.3333 43.7333 35 42.8 37.8C41.8667 40.6 40.6 43.2 39 45.6C37.5333 48 35.6667 50.0667 33.4 51.8C31.1333 53.4 28.6 54.4 25.8 54.8C23.6667 55.0667 22.7333 55 23 54.6C23.4 54.0667 24.2 53.4667 25.4 52.8C30.2 50.1333 33.4667 47 35.2 43.4C37.0667 39.8 38.2667 35.3333 38.8 30C39.3333 23.8667 39.0667 17.6 38 11.2C37.0667 4.8 35.9333 -1.6 34.6 -8C33.2667 -14.4 32.0667 -20.7333 31 -27C30.0667 -33.4 29.8667 -39.7333 30.4 -46ZM25 64.8C30.6 64.8 35.3333 63.8 39.2 61.8C43.0667 59.6667 46.2667 56.9333 48.8 53.6C51.3333 50.1333 53.2667 46.2 54.6 41.8C55.9333 37.2667 56.8 32.6 57.2 27.8C57.7333 21.8 57.6 15.8 56.8 9.8C56 3.8 55.0667 -2.13334 54 -8C53.0667 -14 52.2 -20 51.4 -26C50.6 -32 50.4667 -38.0667 51 -44.2C51.5333 -50.3333 53.4 -55.2 56.6 -58.8C59.9333 -62.4 64.8667 -64.2 71.4 -64.2C73.6667 -64.2 76.5333 -63.8 80 -63C83.6 -62.2 86.5333 -61.0667 88.8 -59.6C91.2 -58 91 -57.5333 88.2 -58.2C86.6 -58.6 84.5333 -59.0667 82 -59.6C79.4667 -60.1333 77.5333 -60.4 76.2 -60.4C71 -60.4 66.5333 -59.2667 62.8 -57C59.0667 -54.7333 56.9333 -50.7333 56.4 -45C55.7333 -38.8667 55.8667 -32.7333 56.8 -26.6C57.7333 -20.6 58.8 -14.5333 60 -8.4C61.2 -2.26667 62.2 3.86666 63 10C63.9333 16.1333 64.1333 22.2667 63.6 28.4C63.2 33.4667 62.2 38.4 60.6 43.2C59 48 56.7333 52.3333 53.8 56.2C50.8667 60.0667 47.2 63.2 42.8 65.6C38.5333 67.8667 33.4667 69 27.6 69C26 69 23.9333 68.7333 21.4 68.2C18.8667 67.6667 16.3333 67 13.8 66.2C11.2667 65.2667 8.86667 64.2 6.6 63C4.46667 61.6667 2.86667 60.2667 1.8 58.8C0.6 57.4667 1 57.1333 3 57.8C5.26667 59 8 60.4667 11.2 62.2C14.5333 63.9333 19.1333 64.8 25 64.8ZM23.8 57.8C27.1333 57.8 30.2 57.2667 33 56.2C35.8 55.1333 38.6667 53.7333 41.6 52V52.6C41.6 53.8 40.9333 55 39.6 56.2C38.4 57.2667 36.8667 58.2667 35 59.2C33.1333 60.1333 31 60.8667 28.6 61.4C26.3333 61.9333 24 62.2 21.6 62.2C20.6667 62.2 19.4 62.0667 17.8 61.8C16.2 61.4 14.5333 60.9333 12.8 60.4C11.2 59.7333 9.66667 59 8.2 58.2C6.73333 57.4 5.73333 56.4667 5.2 55.4C3.73333 53.8 3.26667 52.9333 3.8 52.8C4.33333 52.5333 5.06667 52.7333 6 53.4C8.13333 54.0667 10.5333 55 13.2 56.2C16 57.2667 19.5333 57.8 23.8 57.8Z" fill="black" fill-opacity="0.03"/>
<path d="M66 69.6C68.6667 69.6 71.7333 70.1333 75.2 71.2C78.6667 72.1333 81.4667 73.7333 83.6 76C85.0667 77.3333 84.8667 77.7333 83 77.2C81.1333 76.9333 79.2 76.5333 77.2 76C75.3333 75.3333 73.2667 75 71 75C62.7333 74.8667 56.7333 77.2667 53 82.2C49.2667 87 47.1333 93.1333 46.6 100.6C46.2 105.8 46.2667 111 46.8 116.2C47.4667 121.267 48.2 126.333 49 131.4C49.8 136.467 50.4667 141.533 51 146.6C51.6667 151.667 51.7333 156.8 51.2 162C51.0667 163.467 50.8667 164.333 50.6 164.6C50.4667 164.867 50.2667 164.8 50 164.4C49.8667 164 49.6667 163.467 49.4 162.8C49.2667 162 49.1333 161.333 49 160.8C48.2 155.467 47.2 150.133 46 144.8C44.8 139.333 43.6667 133.867 42.6 128.4C41.5333 122.933 40.6667 117.467 40 112C39.4667 106.533 39.4667 101 40 95.4C40.4 91.8 41.2667 88.4667 42.6 85.4C43.9333 82.2 45.6667 79.4667 47.8 77.2C50.0667 74.8 52.7333 72.9333 55.8 71.6C58.8667 70.2667 62.2667 69.6 66 69.6ZM30.4 96C30.8 92.4 31.7333 88.8 33.2 85.2C34.6667 81.4667 36.6 78.1333 39 75.2C41.5333 72.1333 44.5333 69.7333 48 68C51.6 66.1333 55.6 65.2 60 65.2C60.1333 65.2 60.4667 65.2667 61 65.4C61.6667 65.4 62.2 65.4667 62.6 65.6C63.1333 65.7333 63.3333 65.8667 63.2 66C63.2 66.1333 62.7333 66.2667 61.8 66.4C58.2 67.0667 54.8667 68.2667 51.8 70C48.7333 71.7333 46.0667 73.8667 43.8 76.4C41.5333 78.9333 39.6667 81.8 38.2 85C36.8667 88.0667 36.0667 91.2667 35.8 94.6C35.2667 101 35.5333 107.467 36.6 114C37.6667 120.4 38.8667 126.8 40.2 133.2C41.6667 139.6 42.8667 146.067 43.8 152.6C44.8667 159 45.1333 165.4 44.6 171.8C44.3333 174.333 43.7333 177 42.8 179.8C41.8667 182.6 40.6 185.2 39 187.6C37.5333 190 35.6667 192.067 33.4 193.8C31.1333 195.4 28.6 196.4 25.8 196.8C23.6667 197.067 22.7333 197 23 196.6C23.4 196.067 24.2 195.467 25.4 194.8C30.2 192.133 33.4667 189 35.2 185.4C37.0667 181.8 38.2667 177.333 38.8 172C39.3333 165.867 39.0667 159.6 38 153.2C37.0667 146.8 35.9333 140.4 34.6 134C33.2667 127.6 32.0667 121.267 31 115C30.0667 108.6 29.8667 102.267 30.4 96ZM25 206.8C30.6 206.8 35.3333 205.8 39.2 203.8C43.0667 201.667 46.2667 198.933 48.8 195.6C51.3333 192.133 53.2667 188.2 54.6 183.8C55.9333 179.267 56.8 174.6 57.2 169.8C57.7333 163.8 57.6 157.8 56.8 151.8C56 145.8 55.0667 139.867 54 134C53.0667 128 52.2 122 51.4 116C50.6 110 50.4667 103.933 51 97.8C51.5333 91.6667 53.4 86.8 56.6 83.2C59.9333 79.6 64.8667 77.8 71.4 77.8C73.6667 77.8 76.5333 78.2 80 79C83.6 79.8 86.5333 80.9333 88.8 82.4C91.2 84 91 84.4667 88.2 83.8C86.6 83.4 84.5333 82.9333 82 82.4C79.4667 81.8667 77.5333 81.6 76.2 81.6C71 81.6 66.5333 82.7333 62.8 85C59.0667 87.2667 56.9333 91.2667 56.4 97C55.7333 103.133 55.8667 109.267 56.8 115.4C57.7333 121.4 58.8 127.467 60 133.6C61.2 139.733 62.2 145.867 63 152C63.9333 158.133 64.1333 164.267 63.6 170.4C63.2 175.467 62.2 180.4 60.6 185.2C59 190 56.7333 194.333 53.8 198.2C50.8667 202.067 47.2 205.2 42.8 207.6C38.5333 209.867 33.4667 211 27.6 211C26 211 23.9333 210.733 21.4 210.2C18.8667 209.667 16.3333 209 13.8 208.2C11.2667 207.267 8.86667 206.2 6.6 205C4.46667 203.667 2.86667 202.267 1.8 200.8C0.6 199.467 1 199.133 3 199.8C5.26667 201 8 202.467 11.2 204.2C14.5333 205.933 19.1333 206.8 25 206.8ZM23.8 199.8C27.1333 199.8 30.2 199.267 33 198.2C35.8 197.133 38.6667 195.733 41.6 194V194.6C41.6 195.8 40.9333 197 39.6 198.2C38.4 199.267 36.8667 200.267 35 201.2C33.1333 202.133 31 202.867 28.6 203.4C26.3333 203.933 24 204.2 21.6 204.2C20.6667 204.2 19.4 204.067 17.8 203.8C16.2 203.4 14.5333 202.933 12.8 202.4C11.2 201.733 9.66667 201 8.2 200.2C6.73333 199.4 5.73333 198.467 5.2 197.4C3.73333 195.8 3.26667 194.933 3.8 194.8C4.33333 194.533 5.06667 194.733 6 195.4C8.13333 196.067 10.5333 197 13.2 198.2C16 199.267 19.5333 199.8 23.8 199.8Z" fill="black" fill-opacity="0.03"/>
<path d="M66 211.6C68.6667 211.6 71.7333 212.133 75.2 213.2C78.6667 214.133 81.4667 215.733 83.6 218C85.0667 219.333 84.8667 219.733 83 219.2C81.1333 218.933 79.2 218.533 77.2 218C75.3333 217.333 73.2667 217 71 217C62.7333 216.867 56.7333 219.267 53 224.2C49.2667 229 47.1333 235.133 46.6 242.6C46.2 247.8 46.2667 253 46.8 258.2C47.4667 263.267 48.2 268.333 49 273.4C49.8 278.467 50.4667 283.533 51 288.6C51.6667 293.667 51.7333 298.8 51.2 304C51.0667 305.467 50.8667 306.333 50.6 306.6C50.4667 306.867 50.2667 306.8 50 306.4C49.8667 306 49.6667 305.467 49.4 304.8C49.2667 304 49.1333 303.333 49 302.8C48.2 297.467 47.2 292.133 46 286.8C44.8 281.333 43.6667 275.867 42.6 270.4C41.5333 264.933 40.6667 259.467 40 254C39.4667 248.533 39.4667 243 40 237.4C40.4 233.8 41.2667 230.467 42.6 227.4C43.9333 224.2 45.6667 221.467 47.8 219.2C50.0667 216.8 52.7333 214.933 55.8 213.6C58.8667 212.267 62.2667 211.6 66 211.6ZM30.4 238C30.8 234.4 31.7333 230.8 33.2 227.2C34.6667 223.467 36.6 220.133 39 217.2C41.5333 214.133 44.5333 211.733 48 210C51.6 208.133 55.6 207.2 60 207.2C60.1333 207.2 60.4667 207.267 61 207.4C61.6667 207.4 62.2 207.467 62.6 207.6C63.1333 207.733 63.3333 207.867 63.2 208C63.2 208.133 62.7333 208.267 61.8 208.4C58.2 209.067 54.8667 210.267 51.8 212C48.7333 213.733 46.0667 215.867 43.8 218.4C41.5333 220.933 39.6667 223.8 38.2 227C36.8667 230.067 36.0667 233.267 35.8 236.6C35.2667 243 35.5333 249.467 36.6 256C37.6667 262.4 38.8667 268.8 40.2 275.2C41.6667 281.6 42.8667 288.067 43.8 294.6C44.8667 301 45.1333 307.4 44.6 313.8C44.3333 316.333 43.7333 319 42.8 321.8C41.8667 324.6 40.6 327.2 39 329.6C37.5333 332 35.6667 334.067 33.4 335.8C31.1333 337.4 28.6 338.4 25.8 338.8C23.6667 339.067 22.7333 339 23 338.6C23.4 338.067 24.2 337.467 25.4 336.8C30.2 334.133 33.4667 331 35.2 327.4C37.0667 323.8 38.2667 319.333 38.8 314C39.3333 307.867 39.0667 301.6 38 295.2C37.0667 288.8 35.9333 282.4 34.6 276C33.2667 269.6 32.0667 263.267 31 257C30.0667 250.6 29.8667 244.267 30.4 238ZM25 348.8C30.6 348.8 35.3333 347.8 39.2 345.8C43.0667 343.667 46.2667 340.933 48.8 337.6C51.3333 334.133 53.2667 330.2 54.6 325.8C55.9333 321.267 56.8 316.6 57.2 311.8C57.7333 305.8 57.6 299.8 56.8 293.8C56 287.8 55.0667 281.867 54 276C53.0667 270 52.2 264 51.4 258C50.6 252 50.4667 245.933 51 239.8C51.5333 233.667 53.4 228.8 56.6 225.2C59.9333 221.6 64.8667 219.8 71.4 219.8C73.6667 219.8 76.5333 220.2 80 221C83.6 221.8 86.5333 222.933 88.8 224.4C91.2 226 91 226.467 88.2 225.8C86.6 225.4 84.5333 224.933 82 224.4C79.4667 223.867 77.5333 223.6 76.2 223.6C71 223.6 66.5333 224.733 62.8 227C59.0667 229.267 56.9333 233.267 56.4 239C55.7333 245.133 55.8667 251.267 56.8 257.4C57.7333 263.4 58.8 269.467 60 275.6C61.2 281.733 62.2 287.867 63 294C63.9333 300.133 64.1333 306.267 63.6 312.4C63.2 317.467 62.2 322.4 60.6 327.2C59 332 56.7333 336.333 53.8 340.2C50.8667 344.067 47.2 347.2 42.8 349.6C38.5333 351.867 33.4667 353 27.6 353C26 353 23.9333 352.733 21.4 352.2C18.8667 351.667 16.3333 351 13.8 350.2C11.2667 349.267 8.86667 348.2 6.6 347C4.46667 345.667 2.86667 344.267 1.8 342.8C0.6 341.467 1 341.133 3 341.8C5.26667 343 8 344.467 11.2 346.2C14.5333 347.933 19.1333 348.8 25 348.8ZM23.8 341.8C27.1333 341.8 30.2 341.267 33 340.2C35.8 339.133 38.6667 337.733 41.6 336V336.6C41.6 337.8 40.9333 339 39.6 340.2C38.4 341.267 36.8667 342.267 35 343.2C33.1333 344.133 31 344.867 28.6 345.4C26.3333 345.933 24 346.2 21.6 346.2C20.6667 346.2 19.4 346.067 17.8 345.8C16.2 345.4 14.5333 344.933 12.8 344.4C11.2 343.733 9.66667 343 8.2 342.2C6.73333 341.4 5.73333 340.467 5.2 339.4C3.73333 337.8 3.26667 336.933 3.8 336.8C4.33333 336.533 5.06667 336.733 6 337.4C8.13333 338.067 10.5333 339 13.2 340.2C16 341.267 19.5333 341.8 23.8 341.8Z" fill="black" fill-opacity="0.03"/>
<path d="M66 353.6C68.6667 353.6 71.7333 354.133 75.2 355.2C78.6667 356.133 81.4667 357.733 83.6 360C85.0667 361.333 84.8667 361.733 83 361.2C81.1333 360.933 79.2 360.533 77.2 360C75.3333 359.333 73.2667 359 71 359C62.7333 358.867 56.7333 361.267 53 366.2C49.2667 371 47.1333 377.133 46.6 384.6C46.2 389.8 46.2667 395 46.8 400.2C47.4667 405.267 48.2 410.333 49 415.4C49.8 420.467 50.4667 425.533 51 430.6C51.6667 435.667 51.7333 440.8 51.2 446C51.0667 447.467 50.8667 448.333 50.6 448.6C50.4667 448.867 50.2667 448.8 50 448.4C49.8667 448 49.6667 447.467 49.4 446.8C49.2667 446 49.1333 445.333 49 444.8C48.2 439.467 47.2 434.133 46 428.8C44.8 423.333 43.6667 417.867 42.6 412.4C41.5333 406.933 40.6667 401.467 40 396C39.4667 390.533 39.4667 385 40 379.4C40.4 375.8 41.2667 372.467 42.6 369.4C43.9333 366.2 45.6667 363.467 47.8 361.2C50.0667 358.8 52.7333 356.933 55.8 355.6C58.8667 354.267 62.2667 353.6 66 353.6ZM30.4 380C30.8 376.4 31.7333 372.8 33.2 369.2C34.6667 365.467 36.6 362.133 39 359.2C41.5333 356.133 44.5333 353.733 48 352C51.6 350.133 55.6 349.2 60 349.2C60.1333 349.2 60.4667 349.267 61 349.4C61.6667 349.4 62.2 349.467 62.6 349.6C63.1333 349.733 63.3333 349.867 63.2 350C63.2 350.133 62.7333 350.267 61.8 350.4C58.2 351.067 54.8667 352.267 51.8 354C48.7333 355.733 46.0667 357.867 43.8 360.4C41.5333 362.933 39.6667 365.8 38.2 369C36.8667 372.067 36.0667 375.267 35.8 378.6C35.2667 385 35.5333 391.467 36.6 398C37.6667 404.4 38.8667 410.8 40.2 417.2C41.6667 423.6 42.8667 430.067 43.8 436.6C44.8667 443 45.1333 449.4 44.6 455.8C44.3333 458.333 43.7333 461 42.8 463.8C41.8667 466.6 40.6 469.2 39 471.6C37.5333 474 35.6667 476.067 33.4 477.8C31.1333 479.4 28.6 480.4 25.8 480.8C23.6667 481.067 22.7333 481 23 480.6C23.4 480.067 24.2 479.467 25.4 478.8C30.2 476.133 33.4667 473 35.2 469.4C37.0667 465.8 38.2667 461.333 38.8 456C39.3333 449.867 39.0667 443.6 38 437.2C37.0667 430.8 35.9333 424.4 34.6 418C33.2667 411.6 32.0667 405.267 31 399C30.0667 392.6 29.8667 386.267 30.4 380ZM25 490.8C30.6 490.8 35.3333 489.8 39.2 487.8C43.0667 485.667 46.2667 482.933 48.8 479.6C51.3333 476.133 53.2667 472.2 54.6 467.8C55.9333 463.267 56.8 458.6 57.2 453.8C57.7333 447.8 57.6 441.8 56.8 435.8C56 429.8 55.0667 423.867 54 418C53.0667 412 52.2 406 51.4 400C50.6 394 50.4667 387.933 51 381.8C51.5333 375.667 53.4 370.8 56.6 367.2C59.9333 363.6 64.8667 361.8 71.4 361.8C73.6667 361.8 76.5333 362.2 80 363C83.6 363.8 86.5333 364.933 88.8 366.4C91.2 368 91 368.467 88.2 367.8C86.6 367.4 84.5333 366.933 82 366.4C79.4667 365.867 77.5333 365.6 76.2 365.6C71 365.6 66.5333 366.733 62.8 369C59.0667 371.267 56.9333 375.267 56.4 381C55.7333 387.133 55.8667 393.267 56.8 399.4C57.7333 405.4 58.8 411.467 60 417.6C61.2 423.733 62.2 429.867 63 436C63.9333 442.133 64.1333 448.267 63.6 454.4C63.2 459.467 62.2 464.4 60.6 469.2C59 474 56.7333 478.333 53.8 482.2C50.8667 486.067 47.2 489.2 42.8 491.6C38.5333 493.867 33.4667 495 27.6 495C26 495 23.9333 494.733 21.4 494.2C18.8667 493.667 16.3333 493 13.8 492.2C11.2667 491.267 8.86667 490.2 6.6 489C4.46667 487.667 2.86667 486.267 1.8 484.8C0.6 483.467 1 483.133 3 483.8C5.26667 485 8 486.467 11.2 488.2C14.5333 489.933 19.1333 490.8 25 490.8ZM23.8 483.8C27.1333 483.8 30.2 483.267 33 482.2C35.8 481.133 38.6667 479.733 41.6 478V478.6C41.6 479.8 40.9333 481 39.6 482.2C38.4 483.267 36.8667 484.267 35 485.2C33.1333 486.133 31 486.867 28.6 487.4C26.3333 487.933 24 488.2 21.6 488.2C20.6667 488.2 19.4 488.067 17.8 487.8C16.2 487.4 14.5333 486.933 12.8 486.4C11.2 485.733 9.66667 485 8.2 484.2C6.73333 483.4 5.73333 482.467 5.2 481.4C3.73333 479.8 3.26667 478.933 3.8 478.8C4.33333 478.533 5.06667 478.733 6 479.4C8.13333 480.067 10.5333 481 13.2 482.2C16 483.267 19.5333 483.8 23.8 483.8Z" fill="black" fill-opacity="0.03"/>
<path d="M66 495.6C68.6667 495.6 71.7333 496.133 75.2 497.2C78.6667 498.133 81.4667 499.733 83.6 502C85.0667 503.333 84.8667 503.733 83 503.2C81.1333 502.933 79.2 502.533 77.2 502C75.3333 501.333 73.2667 501 71 501C62.7333 500.867 56.7333 503.267 53 508.2C49.2667 513 47.1333 519.133 46.6 526.6C46.2 531.8 46.2667 537 46.8 542.2C47.4667 547.267 48.2 552.333 49 557.4C49.8 562.467 50.4667 567.533 51 572.6C51.6667 577.667 51.7333 582.8 51.2 588C51.0667 589.467 50.8667 590.333 50.6 590.6C50.4667 590.867 50.2667 590.8 50 590.4C49.8667 590 49.6667 589.467 49.4 588.8C49.2667 588 49.1333 587.333 49 586.8C48.2 581.467 47.2 576.133 46 570.8C44.8 565.333 43.6667 559.867 42.6 554.4C41.5333 548.933 40.6667 543.467 40 538C39.4667 532.533 39.4667 527 40 521.4C40.4 517.8 41.2667 514.467 42.6 511.4C43.9333 508.2 45.6667 505.467 47.8 503.2C50.0667 500.8 52.7333 498.933 55.8 497.6C58.8667 496.267 62.2667 495.6 66 495.6ZM30.4 522C30.8 518.4 31.7333 514.8 33.2 511.2C34.6667 507.467 36.6 504.133 39 501.2C41.5333 498.133 44.5333 495.733 48 494C51.6 492.133 55.6 491.2 60 491.2C60.1333 491.2 60.4667 491.267 61 491.4C61.6667 491.4 62.2 491.467 62.6 491.6C63.1333 491.733 63.3333 491.867 63.2 492C63.2 492.133 62.7333 492.267 61.8 492.4C58.2 493.067 54.8667 494.267 51.8 496C48.7333 497.733 46.0667 499.867 43.8 502.4C41.5333 504.933 39.6667 507.8 38.2 511C36.8667 514.067 36.0667 517.267 35.8 520.6C35.2667 527 35.5333 533.467 36.6 540C37.6667 546.4 38.8667 552.8 40.2 559.2C41.6667 565.6 42.8667 572.067 43.8 578.6C44.8667 585 45.1333 591.4 44.6 597.8C44.3333 600.333 43.7333 603 42.8 605.8C41.8667 608.6 40.6 611.2 39 613.6C37.5333 616 35.6667 618.067 33.4 619.8C31.1333 621.4 28.6 622.4 25.8 622.8C23.6667 623.067 22.7333 623 23 622.6C23.4 622.067 24.2 621.467 25.4 620.8C30.2 618.133 33.4667 615 35.2 611.4C37.0667 607.8 38.2667 603.333 38.8 598C39.3333 591.867 39.0667 585.6 38 579.2C37.0667 572.8 35.9333 566.4 34.6 560C33.2667 553.6 32.0667 547.267 31 541C30.0667 534.6 29.8667 528.267 30.4 522ZM25 632.8C30.6 632.8 35.3333 631.8 39.2 629.8C43.0667 627.667 46.2667 624.933 48.8 621.6C51.3333 618.133 53.2667 614.2 54.6 609.8C55.9333 605.267 56.8 600.6 57.2 595.8C57.7333 589.8 57.6 583.8 56.8 577.8C56 571.8 55.0667 565.867 54 560C53.0667 554 52.2 548 51.4 542C50.6 536 50.4667 529.933 51 523.8C51.5333 517.667 53.4 512.8 56.6 509.2C59.9333 505.6 64.8667 503.8 71.4 503.8C73.6667 503.8 76.5333 504.2 80 505C83.6 505.8 86.5333 506.933 88.8 508.4C91.2 510 91 510.467 88.2 509.8C86.6 509.4 84.5333 508.933 82 508.4C79.4667 507.867 77.5333 507.6 76.2 507.6C71 507.6 66.5333 508.733 62.8 511C59.0667 513.267 56.9333 517.267 56.4 523C55.7333 529.133 55.8667 535.267 56.8 541.4C57.7333 547.4 58.8 553.467 60 559.6C61.2 565.733 62.2 571.867 63 578C63.9333 584.133 64.1333 590.267 63.6 596.4C63.2 601.467 62.2 606.4 60.6 611.2C59 616 56.7333 620.333 53.8 624.2C50.8667 628.067 47.2 631.2 42.8 633.6C38.5333 635.867 33.4667 637 27.6 637C26 637 23.9333 636.733 21.4 636.2C18.8667 635.667 16.3333 635 13.8 634.2C11.2667 633.267 8.86667 632.2 6.6 631C4.46667 629.667 2.86667 628.267 1.8 626.8C0.6 625.467 1 625.133 3 625.8C5.26667 627 8 628.467 11.2 630.2C14.5333 631.933 19.1333 632.8 25 632.8ZM23.8 625.8C27.1333 625.8 30.2 625.267 33 624.2C35.8 623.133 38.6667 621.733 41.6 620V620.6C41.6 621.8 40.9333 623 39.6 624.2C38.4 625.267 36.8667 626.267 35 627.2C33.1333 628.133 31 628.867 28.6 629.4C26.3333 629.933 24 630.2 21.6 630.2C20.6667 630.2 19.4 630.067 17.8 629.8C16.2 629.4 14.5333 628.933 12.8 628.4C11.2 627.733 9.66667 627 8.2 626.2C6.73333 625.4 5.73333 624.467 5.2 623.4C3.73333 621.8 3.26667 620.933 3.8 620.8C4.33333 620.533 5.06667 620.733 6 621.4C8.13333 622.067 10.5333 623 13.2 624.2C16 625.267 19.5333 625.8 23.8 625.8Z" fill="black" fill-opacity="0.03"/>
<path d="M66 637.6C68.6667 637.6 71.7333 638.133 75.2 639.2C78.6667 640.133 81.4667 641.733 83.6 644C85.0667 645.333 84.8667 645.733 83 645.2C81.1333 644.933 79.2 644.533 77.2 644C75.3333 643.333 73.2667 643 71 643C62.7333 642.867 56.7333 645.267 53 650.2C49.2667 655 47.1333 661.133 46.6 668.6C46.2 673.8 46.2667 679 46.8 684.2C47.4667 689.267 48.2 694.333 49 699.4C49.8 704.467 50.4667 709.533 51 714.6C51.6667 719.667 51.7333 724.8 51.2 730C51.0667 731.467 50.8667 732.333 50.6 732.6C50.4667 732.867 50.2667 732.8 50 732.4C49.8667 732 49.6667 731.467 49.4 730.8C49.2667 730 49.1333 729.333 49 728.8C48.2 723.467 47.2 718.133 46 712.8C44.8 707.333 43.6667 701.867 42.6 696.4C41.5333 690.933 40.6667 685.467 40 680C39.4667 674.533 39.4667 669 40 663.4C40.4 659.8 41.2667 656.467 42.6 653.4C43.9333 650.2 45.6667 647.467 47.8 645.2C50.0667 642.8 52.7333 640.933 55.8 639.6C58.8667 638.267 62.2667 637.6 66 637.6ZM30.4 664C30.8 660.4 31.7333 656.8 33.2 653.2C34.6667 649.467 36.6 646.133 39 643.2C41.5333 640.133 44.5333 637.733 48 636C51.6 634.133 55.6 633.2 60 633.2C60.1333 633.2 60.4667 633.267 61 633.4C61.6667 633.4 62.2 633.467 62.6 633.6C63.1333 633.733 63.3333 633.867 63.2 634C63.2 634.133 62.7333 634.267 61.8 634.4C58.2 635.067 54.8667 636.267 51.8 638C48.7333 639.733 46.0667 641.867 43.8 644.4C41.5333 646.933 39.6667 649.8 38.2 653C36.8667 656.067 36.0667 659.267 35.8 662.6C35.2667 669 35.5333 675.467 36.6 682C37.6667 688.4 38.8667 694.8 40.2 701.2C41.6667 707.6 42.8667 714.067 43.8 720.6C44.8667 727 45.1333 733.4 44.6 739.8C44.3333 742.333 43.7333 745 42.8 747.8C41.8667 750.6 40.6 753.2 39 755.6C37.5333 758 35.6667 760.067 33.4 761.8C31.1333 763.4 28.6 764.4 25.8 764.8C23.6667 765.067 22.7333 765 23 764.6C23.4 764.067 24.2 763.467 25.4 762.8C30.2 760.133 33.4667 757 35.2 753.4C37.0667 749.8 38.2667 745.333 38.8 740C39.3333 733.867 39.0667 727.6 38 721.2C37.0667 714.8 35.9333 708.4 34.6 702C33.2667 695.6 32.0667 689.267 31 683C30.0667 676.6 29.8667 670.267 30.4 664ZM25 774.8C30.6 774.8 35.3333 773.8 39.2 771.8C43.0667 769.667 46.2667 766.933 48.8 763.6C51.3333 760.133 53.2667 756.2 54.6 751.8C55.9333 747.267 56.8 742.6 57.2 737.8C57.7333 731.8 57.6 725.8 56.8 719.8C56 713.8 55.0667 707.867 54 702C53.0667 696 52.2 690 51.4 684C50.6 678 50.4667 671.933 51 665.8C51.5333 659.667 53.4 654.8 56.6 651.2C59.9333 647.6 64.8667 645.8 71.4 645.8C73.6667 645.8 76.5333 646.2 80 647C83.6 647.8 86.5333 648.933 88.8 650.4C91.2 652 91 652.467 88.2 651.8C86.6 651.4 84.5333 650.933 82 650.4C79.4667 649.867 77.5333 649.6 76.2 649.6C71 649.6 66.5333 650.733 62.8 653C59.0667 655.267 56.9333 659.267 56.4 665C55.7333 671.133 55.8667 677.267 56.8 683.4C57.7333 689.4 58.8 695.467 60 701.6C61.2 707.733 62.2 713.867 63 720C63.9333 726.133 64.1333 732.267 63.6 738.4C63.2 743.467 62.2 748.4 60.6 753.2C59 758 56.7333 762.333 53.8 766.2C50.8667 770.067 47.2 773.2 42.8 775.6C38.5333 777.867 33.4667 779 27.6 779C26 779 23.9333 778.733 21.4 778.2C18.8667 777.667 16.3333 777 13.8 776.2C11.2667 775.267 8.86667 774.2 6.6 773C4.46667 771.667 2.86667 770.267 1.8 768.8C0.6 767.467 1 767.133 3 767.8C5.26667 769 8 770.467 11.2 772.2C14.5333 773.933 19.1333 774.8 25 774.8ZM23.8 767.8C27.1333 767.8 30.2 767.267 33 766.2C35.8 765.133 38.6667 763.733 41.6 762V762.6C41.6 763.8 40.9333 765 39.6 766.2C38.4 767.267 36.8667 768.267 35 769.2C33.1333 770.133 31 770.867 28.6 771.4C26.3333 771.933 24 772.2 21.6 772.2C20.6667 772.2 19.4 772.067 17.8 771.8C16.2 771.4 14.5333 770.933 12.8 770.4C11.2 769.733 9.66667 769 8.2 768.2C6.73333 767.4 5.73333 766.467 5.2 765.4C3.73333 763.8 3.26667 762.933 3.8 762.8C4.33333 762.533 5.06667 762.733 6 763.4C8.13333 764.067 10.5333 765 13.2 766.2C16 767.267 19.5333 767.8 23.8 767.8Z" fill="black" fill-opacity="0.03"/>
<path d="M66 779.6C68.6667 779.6 71.7333 780.133 75.2 781.2C78.6667 782.133 81.4667 783.733 83.6 786C85.0667 787.333 84.8667 787.733 83 787.2C81.1333 786.933 79.2 786.533 77.2 786C75.3333 785.333 73.2667 785 71 785C62.7333 784.867 56.7333 787.267 53 792.2C49.2667 797 47.1333 803.133 46.6 810.6C46.2 815.8 46.2667 821 46.8 826.2C47.4667 831.267 48.2 836.333 49 841.4C49.8 846.467 50.4667 851.533 51 856.6C51.6667 861.667 51.7333 866.8 51.2 872C51.0667 873.467 50.8667 874.333 50.6 874.6C50.4667 874.867 50.2667 874.8 50 874.4C49.8667 874 49.6667 873.467 49.4 872.8C49.2667 872 49.1333 871.333 49 870.8C48.2 865.467 47.2 860.133 46 854.8C44.8 849.333 43.6667 843.867 42.6 838.4C41.5333 832.933 40.6667 827.467 40 822C39.4667 816.533 39.4667 811 40 805.4C40.4 801.8 41.2667 798.467 42.6 795.4C43.9333 792.2 45.6667 789.467 47.8 787.2C50.0667 784.8 52.7333 782.933 55.8 781.6C58.8667 780.267 62.2667 779.6 66 779.6ZM30.4 806C30.8 802.4 31.7333 798.8 33.2 795.2C34.6667 791.467 36.6 788.133 39 785.2C41.5333 782.133 44.5333 779.733 48 778C51.6 776.133 55.6 775.2 60 775.2C60.1333 775.2 60.4667 775.267 61 775.4C61.6667 775.4 62.2 775.467 62.6 775.6C63.1333 775.733 63.3333 775.867 63.2 776C63.2 776.133 62.7333 776.267 61.8 776.4C58.2 777.067 54.8667 778.267 51.8 780C48.7333 781.733 46.0667 783.867 43.8 786.4C41.5333 788.933 39.6667 791.8 38.2 795C36.8667 798.067 36.0667 801.267 35.8 804.6C35.2667 811 35.5333 817.467 36.6 824C37.6667 830.4 38.8667 836.8 40.2 843.2C41.6667 849.6 42.8667 856.067 43.8 862.6C44.8667 869 45.1333 875.4 44.6 881.8C44.3333 884.333 43.7333 887 42.8 889.8C41.8667 892.6 40.6 895.2 39 897.6C37.5333 900 35.6667 902.067 33.4 903.8C31.1333 905.4 28.6 906.4 25.8 906.8C23.6667 907.067 22.7333 907 23 906.6C23.4 906.067 24.2 905.467 25.4 904.8C30.2 902.133 33.4667 899 35.2 895.4C37.0667 891.8 38.2667 887.333 38.8 882C39.3333 875.867 39.0667 869.6 38 863.2C37.0667 856.8 35.9333 850.4 34.6 844C33.2667 837.6 32.0667 831.267 31 825C30.0667 818.6 29.8667 812.267 30.4 806ZM25 916.8C30.6 916.8 35.3333 915.8 39.2 913.8C43.0667 911.667 46.2667 908.933 48.8 905.6C51.3333 902.133 53.2667 898.2 54.6 893.8C55.9333 889.267 56.8 884.6 57.2 879.8C57.7333 873.8 57.6 867.8 56.8 861.8C56 855.8 55.0667 849.867 54 844C53.0667 838 52.2 832 51.4 826C50.6 820 50.4667 813.933 51 807.8C51.5333 801.667 53.4 796.8 56.6 793.2C59.9333 789.6 64.8667 787.8 71.4 787.8C73.6667 787.8 76.5333 788.2 80 789C83.6 789.8 86.5333 790.933 88.8 792.4C91.2 794 91 794.467 88.2 793.8C86.6 793.4 84.5333 792.933 82 792.4C79.4667 791.867 77.5333 791.6 76.2 791.6C71 791.6 66.5333 792.733 62.8 795C59.0667 797.267 56.9333 801.267 56.4 807C55.7333 813.133 55.8667 819.267 56.8 825.4C57.7333 831.4 58.8 837.467 60 843.6C61.2 849.733 62.2 855.867 63 862C63.9333 868.133 64.1333 874.267 63.6 880.4C63.2 885.467 62.2 890.4 60.6 895.2C59 900 56.7333 904.333 53.8 908.2C50.8667 912.067 47.2 915.2 42.8 917.6C38.5333 919.867 33.4667 921 27.6 921C26 921 23.9333 920.733 21.4 920.2C18.8667 919.667 16.3333 919 13.8 918.2C11.2667 917.267 8.86667 916.2 6.6 915C4.46667 913.667 2.86667 912.267 1.8 910.8C0.6 909.467 1 909.133 3 909.8C5.26667 911 8 912.467 11.2 914.2C14.5333 915.933 19.1333 916.8 25 916.8ZM23.8 909.8C27.1333 909.8 30.2 909.267 33 908.2C35.8 907.133 38.6667 905.733 41.6 904V904.6C41.6 905.8 40.9333 907 39.6 908.2C38.4 909.267 36.8667 910.267 35 911.2C33.1333 912.133 31 912.867 28.6 913.4C26.3333 913.933 24 914.2 21.6 914.2C20.6667 914.2 19.4 914.067 17.8 913.8C16.2 913.4 14.5333 912.933 12.8 912.4C11.2 911.733 9.66667 911 8.2 910.2C6.73333 909.4 5.73333 908.467 5.2 907.4C3.73333 905.8 3.26667 904.933 3.8 904.8C4.33333 904.533 5.06667 904.733 6 905.4C8.13333 906.067 10.5333 907 13.2 908.2C16 909.267 19.5333 909.8 23.8 909.8Z" fill="black" fill-opacity="0.03"/>
<path d="M66 921.6C68.6667 921.6 71.7333 922.133 75.2 923.2C78.6667 924.133 81.4667 925.733 83.6 928C85.0667 929.333 84.8667 929.733 83 929.2C81.1333 928.933 79.2 928.533 77.2 928C75.3333 927.333 73.2667 927 71 927C62.7333 926.867 56.7333 929.267 53 934.2C49.2667 939 47.1333 945.133 46.6 952.6C46.2 957.8 46.2667 963 46.8 968.2C47.4667 973.267 48.2 978.333 49 983.4C49.8 988.467 50.4667 993.533 51 998.6C51.6667 1003.67 51.7333 1008.8 51.2 1014C51.0667 1015.47 50.8667 1016.33 50.6 1016.6C50.4667 1016.87 50.2667 1016.8 50 1016.4C49.8667 1016 49.6667 1015.47 49.4 1014.8C49.2667 1014 49.1333 1013.33 49 1012.8C48.2 1007.47 47.2 1002.13 46 996.8C44.8 991.333 43.6667 985.867 42.6 980.4C41.5333 974.933 40.6667 969.467 40 964C39.4667 958.533 39.4667 953 40 947.4C40.4 943.8 41.2667 940.467 42.6 937.4C43.9333 934.2 45.6667 931.467 47.8 929.2C50.0667 926.8 52.7333 924.933 55.8 923.6C58.8667 922.267 62.2667 921.6 66 921.6ZM30.4 948C30.8 944.4 31.7333 940.8 33.2 937.2C34.6667 933.467 36.6 930.133 39 927.2C41.5333 924.133 44.5333 921.733 48 920C51.6 918.133 55.6 917.2 60 917.2C60.1333 917.2 60.4667 917.267 61 917.4C61.6667 917.4 62.2 917.467 62.6 917.6C63.1333 917.733 63.3333 917.867 63.2 918C63.2 918.133 62.7333 918.267 61.8 918.4C58.2 919.067 54.8667 920.267 51.8 922C48.7333 923.733 46.0667 925.867 43.8 928.4C41.5333 930.933 39.6667 933.8 38.2 937C36.8667 940.067 36.0667 943.267 35.8 946.6C35.2667 953 35.5333 959.467 36.6 966C37.6667 972.4 38.8667 978.8 40.2 985.2C41.6667 991.6 42.8667 998.067 43.8 1004.6C44.8667 1011 45.1333 1017.4 44.6 1023.8C44.3333 1026.33 43.7333 1029 42.8 1031.8C41.8667 1034.6 40.6 1037.2 39 1039.6C37.5333 1042 35.6667 1044.07 33.4 1045.8C31.1333 1047.4 28.6 1048.4 25.8 1048.8C23.6667 1049.07 22.7333 1049 23 1048.6C23.4 1048.07 24.2 1047.47 25.4 1046.8C30.2 1044.13 33.4667 1041 35.2 1037.4C37.0667 1033.8 38.2667 1029.33 38.8 1024C39.3333 1017.87 39.0667 1011.6 38 1005.2C37.0667 998.8 35.9333 992.4 34.6 986C33.2667 979.6 32.0667 973.267 31 967C30.0667 960.6 29.8667 954.267 30.4 948ZM25 1058.8C30.6 1058.8 35.3333 1057.8 39.2 1055.8C43.0667 1053.67 46.2667 1050.93 48.8 1047.6C51.3333 1044.13 53.2667 1040.2 54.6 1035.8C55.9333 1031.27 56.8 1026.6 57.2 1021.8C57.7333 1015.8 57.6 1009.8 56.8 1003.8C56 997.8 55.0667 991.867 54 986C53.0667 980 52.2 974 51.4 968C50.6 962 50.4667 955.933 51 949.8C51.5333 943.667 53.4 938.8 56.6 935.2C59.9333 931.6 64.8667 929.8 71.4 929.8C73.6667 929.8 76.5333 930.2 80 931C83.6 931.8 86.5333 932.933 88.8 934.4C91.2 936 91 936.467 88.2 935.8C86.6 935.4 84.5333 934.933 82 934.4C79.4667 933.867 77.5333 933.6 76.2 933.6C71 933.6 66.5333 934.733 62.8 937C59.0667 939.267 56.9333 943.267 56.4 949C55.7333 955.133 55.8667 961.267 56.8 967.4C57.7333 973.4 58.8 979.467 60 985.6C61.2 991.733 62.2 997.867 63 1004C63.9333 1010.13 64.1333 1016.27 63.6 1022.4C63.2 1027.47 62.2 1032.4 60.6 1037.2C59 1042 56.7333 1046.33 53.8 1050.2C50.8667 1054.07 47.2 1057.2 42.8 1059.6C38.5333 1061.87 33.4667 1063 27.6 1063C26 1063 23.9333 1062.73 21.4 1062.2C18.8667 1061.67 16.3333 1061 13.8 1060.2C11.2667 1059.27 8.86667 1058.2 6.6 1057C4.46667 1055.67 2.86667 1054.27 1.8 1052.8C0.6 1051.47 1 1051.13 3 1051.8C5.26667 1053 8 1054.47 11.2 1056.2C14.5333 1057.93 19.1333 1058.8 25 1058.8ZM23.8 1051.8C27.1333 1051.8 30.2 1051.27 33 1050.2C35.8 1049.13 38.6667 1047.73 41.6 1046V1046.6C41.6 1047.8 40.9333 1049 39.6 1050.2C38.4 1051.27 36.8667 1052.27 35 1053.2C33.1333 1054.13 31 1054.87 28.6 1055.4C26.3333 1055.93 24 1056.2 21.6 1056.2C20.6667 1056.2 19.4 1056.07 17.8 1055.8C16.2 1055.4 14.5333 1054.93 12.8 1054.4C11.2 1053.73 9.66667 1053 8.2 1052.2C6.73333 1051.4 5.73333 1050.47 5.2 1049.4C3.73333 1047.8 3.26667 1046.93 3.8 1046.8C4.33333 1046.53 5.06667 1046.73 6 1047.4C8.13333 1048.07 10.5333 1049 13.2 1050.2C16 1051.27 19.5333 1051.8 23.8 1051.8Z" fill="black" fill-opacity="0.03"/>
</svg>
