<svg width="32" height="32" viewBox="0 0 32 32" fill="none" xmlns="http://www.w3.org/2000/svg">
<path d="M3.39979 17.8747C3.03712 17.3774 2.85579 17.128 2.73045 16.648C2.64584 16.2206 2.64584 15.7808 2.73045 15.3534C2.85579 14.872 3.03712 14.6227 3.39979 14.1267C5.38512 11.4 9.73712 6.66669 15.9998 6.66669C22.2625 6.66669 26.6145 11.4 28.5998 14.1254C28.9625 14.6227 29.1438 14.872 29.2691 15.352C29.3537 15.7794 29.3537 16.2193 29.2691 16.6467C29.1438 17.128 28.9625 17.3774 28.5998 17.8734C26.6145 20.6 22.2625 25.3334 15.9998 25.3334C9.73712 25.3334 5.38512 20.6 3.39979 17.8747Z" stroke="#666666" stroke-width="2.1875" stroke-linecap="round" stroke-linejoin="round"/>
<path d="M15.9997 18.6667C16.7069 18.6667 17.3852 18.3858 17.8853 17.8857C18.3854 17.3856 18.6663 16.7073 18.6663 16C18.6663 15.2928 18.3854 14.6145 17.8853 14.1144C17.3852 13.6143 16.7069 13.3334 15.9997 13.3334C15.2924 13.3334 14.6142 13.6143 14.1141 14.1144C13.614 14.6145 13.333 15.2928 13.333 16C13.333 16.7073 13.614 17.3856 14.1141 17.8857C14.6142 18.3858 15.2924 18.6667 15.9997 18.6667Z" stroke="#666666" stroke-width="2.1875" stroke-linecap="round" stroke-linejoin="round"/>
</svg>
