<svg width="12" height="12" viewBox="0 0 12 12" fill="none" xmlns="http://www.w3.org/2000/svg">
<g clip-path="url(#clip0_226_81931)">
<path fill-rule="evenodd" clip-rule="evenodd" d="M5.61955 0.0112629L5.33005 0.0412629C3.9253 0.181513 2.51005 0.906013 1.55305 1.97551C0.494802 3.15826 -0.0429477 4.62601 0.00655229 6.18976C0.0928023 8.89051 1.94905 11.1773 4.5823 11.8283C5.35758 12.0156 6.16235 12.0472 6.94991 11.921C7.73747 11.7948 8.49212 11.5135 9.17005 11.0933C10.5034 10.2625 11.4577 8.94196 11.8281 7.41526C11.9571 6.88951 11.9871 6.62176 11.9871 6.00001C11.9871 5.37826 11.9571 5.11051 11.8281 4.58476C11.2341 2.15851 9.23605 0.373513 6.7498 0.0480129C6.5368 0.0202629 5.76205 -0.00448713 5.61955 0.0112629ZM6.63955 1.17226C7.15763 1.23813 7.66121 1.38943 8.1298 1.62001C8.6533 1.87501 9.0148 2.13451 9.44005 2.55976C9.82963 2.93637 10.148 3.38025 10.3798 3.87001C10.7136 4.55626 10.8643 5.21851 10.8643 6.00001C10.8742 6.7461 10.7044 7.48361 10.3693 8.15026C10.2403 8.41351 9.98005 8.83576 9.85855 8.97901L9.8173 9.02776L6.39505 5.60476L2.97205 2.18251L3.0208 2.14126C3.16405 2.01976 3.5863 1.75951 3.84955 1.63051C4.71302 1.20289 5.68466 1.0433 6.63955 1.17226ZM5.6098 6.40051L9.0298 9.82126L8.97955 9.86101C8.7179 10.0541 8.44042 10.2247 8.15005 10.371C7.67994 10.6005 7.17731 10.7564 6.6598 10.833C6.3418 10.8818 5.6578 10.8818 5.3398 10.833C3.8788 10.611 2.6458 9.81376 1.86955 8.58826C1.67861 8.2717 1.51934 7.93708 1.39405 7.58926C1.09942 6.72356 1.05035 5.79316 1.2523 4.90126C1.40726 4.2565 1.68647 3.64815 2.0743 3.11026C2.1268 3.03901 2.17405 2.98051 2.18005 2.98051C2.18605 2.98051 3.7288 4.51951 5.6098 6.40051Z" fill="#CC0000"/>
</g>
<defs>
<clipPath id="clip0_226_81931">
<rect width="12" height="12" fill="white"/>
</clipPath>
</defs>
</svg>
