<svg width="26" height="21" viewBox="0 0 26 21" fill="none" xmlns="http://www.w3.org/2000/svg">
<path d="M17.2596 1.41493L25.4173 9.69398C25.6877 9.96842 25.8395 10.3406 25.8395 10.7287C25.8395 11.1167 25.6877 11.4889 25.4173 11.7634L17.2596 20.0424C16.9876 20.309 16.6234 20.4565 16.2453 20.4532C15.8672 20.4499 15.5055 20.2959 15.2381 20.0246C14.9707 19.7532 14.8191 19.3862 14.8158 19.0025C14.8125 18.6187 14.9579 18.249 15.2205 17.973L20.9167 12.1922H1.8195C1.43704 12.1922 1.07025 12.038 0.79981 11.7635C0.529372 11.4891 0.377441 11.1168 0.377441 10.7287C0.377441 10.3405 0.529372 9.96828 0.79981 9.69382C1.07025 9.41936 1.43704 9.26517 1.8195 9.26517H20.9167L15.2205 3.48433C15.0828 3.34932 14.9729 3.18783 14.8974 3.00928C14.8218 2.83073 14.782 2.63868 14.7803 2.44436C14.7787 2.25004 14.8152 2.05732 14.8877 1.87747C14.9602 1.69761 15.0673 1.5342 15.2027 1.39679C15.3381 1.25938 15.4991 1.15071 15.6763 1.07712C15.8535 1.00354 16.0434 0.966506 16.2349 0.968195C16.4264 0.969884 16.6156 1.01026 16.7915 1.08696C16.9675 1.16366 17.1266 1.27515 17.2596 1.41493Z" fill="#666666"/>
</svg>
