<svg width="353" height="125" viewBox="0 0 353 125" fill="none" xmlns="http://www.w3.org/2000/svg">
<g clip-path="url(#clip0_195_184984)">
<path d="M25.6875 101.125C21.7188 101.125 18.4219 100.766 15.7969 100.047C13.2031 99.3281 11.1094 98.4375 9.51562 97.375C7.95312 96.2812 6.75 95.2031 5.90625 94.1406C5.625 93.7344 5.375 93.3438 5.15625 92.9688C4.9375 92.5938 4.78125 92.1719 4.6875 91.7031C4.5625 91.0781 4.4375 90.2656 4.3125 89.2656C4.1875 88.2344 4.17188 87.0469 4.26562 85.7031C4.29688 85.1406 4.40625 84.75 4.59375 84.5312C4.8125 84.2812 5.17188 84.0938 5.67188 83.9688C6.57812 83.75 7.75 83.5625 9.1875 83.4062C10.6562 83.2188 11.7031 83.125 12.3281 83.125C12.9844 83.125 13.5156 83.25 13.9219 83.5C14.3281 83.75 14.8125 84.1719 15.375 84.7656C16 85.4219 17.0781 86.2656 18.6094 87.2969C20.1406 88.2969 22.5 88.7969 25.6875 88.7969C28.75 88.7969 31.0625 88.1562 32.625 86.875C34.1875 85.5938 34.9688 83.8125 34.9688 81.5312C34.9688 80.3125 34.5938 79.1719 33.8438 78.1094C33.125 77.0156 31.7969 75.9375 29.8594 74.875C27.9219 73.7812 25.1562 72.6406 21.5625 71.4531C15.625 69.4531 11.3438 66.9688 8.71875 64C6.09375 61.0312 4.78125 56.9062 4.78125 51.625C4.78125 47.25 5.84375 43.5938 7.96875 40.6562C10.0938 37.7188 13.0312 35.5 16.7812 34C20.5312 32.5 24.8594 31.75 29.7656 31.75C33.5469 31.75 36.6719 32.2031 39.1406 33.1094C41.6406 33.9844 43.5781 34.9844 44.9531 36.1094C46.3281 37.2031 47.2188 38.0938 47.625 38.7812C47.875 39.1875 48.0312 39.5 48.0938 39.7188C48.1875 39.9062 48.25 40.1719 48.2812 40.5156C48.375 41.4844 48.4062 42.5625 48.375 43.75C48.3438 44.9375 48.2344 46.2812 48.0469 47.7812C47.9531 48.2812 47.7812 48.625 47.5312 48.8125C47.3125 48.9688 46.9688 49.0469 46.5 49.0469C43.4688 49.1094 41.125 48.9531 39.4688 48.5781C38.8125 48.4219 38.375 48.2656 38.1562 48.1094C37.9375 47.9531 37.6562 47.7031 37.3125 47.3594C36.8125 46.7656 36.0156 46.0781 34.9219 45.2969C33.8594 44.4844 32.1406 44.0781 29.7656 44.0781C26.4844 44.0781 24.1562 44.8281 22.7812 46.3281C21.4062 47.7969 20.7188 49.4531 20.7188 51.2969C20.7188 53.4844 21.7344 55.2031 23.7656 56.4531C25.7969 57.6719 29 59.0625 33.375 60.625C37.0312 61.9062 40.1719 63.2969 42.7969 64.7969C45.4219 66.2969 47.4219 68.2188 48.7969 70.5625C50.2031 72.9062 50.9062 76 50.9062 79.8438C50.9062 84.625 49.7969 88.5938 47.5781 91.75C45.3906 94.9062 42.3906 97.2656 38.5781 98.8281C34.7969 100.359 30.5 101.125 25.6875 101.125ZM66.6862 101.172C62.0925 101.172 58.4362 99.8906 55.7175 97.3281C53.03 94.7344 51.6862 91.1719 51.6862 86.6406C51.6862 84.2969 52.1081 82.125 52.9519 80.125C53.8269 78.0938 55.3269 76.3125 57.4519 74.7812C59.6081 73.2188 62.6081 71.9688 66.4519 71.0312C70.3269 70.0938 75.2644 69.5469 81.2644 69.3906C81.2644 66.5469 80.5456 64.5 79.1081 63.25C77.7019 62 75.5769 61.375 72.7331 61.375C70.1706 61.375 68.0769 61.8125 66.4519 62.6875C64.8269 63.5625 63.8112 64.1562 63.405 64.4688C62.9675 64.8438 62.4362 64.9844 61.8112 64.8906C60.9675 64.7656 60.0612 64.5469 59.0925 64.2344C58.155 63.9219 57.1394 63.5625 56.0456 63.1562C55.8894 63.0938 55.7175 63 55.53 62.875C55.3425 62.7188 55.2331 62.5 55.2019 62.2188C55.2019 62.0625 55.2175 61.875 55.2487 61.6562C55.28 61.4062 55.3581 60.9688 55.4831 60.3438C55.6081 59.7188 55.7956 58.9531 56.0456 58.0469C56.2956 57.1094 56.53 56.3906 56.7487 55.8906C57.03 55.3594 57.4987 54.8594 58.155 54.3906C58.6862 53.9531 60.2956 53.25 62.9831 52.2812C65.6706 51.3125 69.5612 50.8281 74.655 50.8281C88.6862 50.8281 95.7019 57.6562 95.7019 71.3125V97.8438C95.7019 98.4375 95.53 98.9531 95.1862 99.3906C94.8737 99.7969 94.3269 100 93.5456 100H86.5144C86.0144 100 85.5612 99.9375 85.155 99.8125C84.78 99.6562 84.4206 99.375 84.0769 98.9688L81.1706 95.2188H80.8425C79.405 97.3125 77.4675 98.8281 75.03 99.7656C72.6237 100.703 69.8425 101.172 66.6862 101.172ZM71.8425 90.2969C74.7175 90.2969 76.8894 89.5625 78.3581 88.0938C79.8269 86.625 80.7644 85.1094 81.1706 83.5469V78.3438C76.8269 78.3438 73.5612 78.6875 71.3737 79.375C69.2175 80.0312 67.78 80.9062 67.0612 82C66.3425 83.0625 65.9831 84.2188 65.9831 85.4688C65.9831 87.2812 66.5456 88.5469 67.6706 89.2656C68.7956 89.9531 70.1862 90.2969 71.8425 90.2969ZM174.392 101.172C169.111 101.172 164.517 100.328 160.611 98.6406C156.704 96.9219 153.673 94.2656 151.517 90.6719C149.361 87.0781 148.283 82.4375 148.283 76.75C148.283 68.2188 150.47 61.7656 154.845 57.3906C159.22 53.0156 165.033 50.8281 172.283 50.8281C177.001 50.8281 180.986 51.6719 184.236 53.3594C187.517 55.0469 190.001 57.375 191.689 60.3438C193.408 63.3125 194.267 66.7031 194.267 70.5156C194.267 74.2344 193.314 76.8281 191.408 78.2969C189.501 79.7656 186.72 80.5 183.064 80.5H162.954C163.204 83.7188 164.376 86.1719 166.47 87.8594C168.595 89.5469 171.47 90.3906 175.095 90.3906C177.97 90.3906 180.267 89.9688 181.986 89.125C183.736 88.25 184.954 87.5625 185.642 87.0625C186.236 86.625 186.908 86.4219 187.658 86.4531C188.251 86.4531 189.095 86.5781 190.189 86.8281C191.314 87.0469 192.423 87.4688 193.517 88.0938C194.298 88.5 194.689 89.0625 194.689 89.7812C194.689 90.1875 194.611 90.7656 194.454 91.5156C194.361 91.9531 194.204 92.5938 193.986 93.4375C193.767 94.25 193.486 95.0156 193.142 95.7344C192.954 96.0781 192.658 96.4062 192.251 96.7188C191.626 97.1562 190.611 97.7344 189.204 98.4531C187.829 99.1719 185.939 99.7969 183.533 100.328C181.126 100.891 178.079 101.172 174.392 101.172ZM162.861 70.8906H178.142C179.736 70.8906 180.533 70.1562 180.533 68.6875C180.533 66.4688 179.829 64.6094 178.423 63.1094C177.048 61.5781 174.97 60.8125 172.189 60.8125C169.158 60.8125 166.923 61.7812 165.486 63.7188C164.079 65.6562 163.204 68.0469 162.861 70.8906ZM210.609 100C207.391 100 204.938 99.5938 203.25 98.7812C201.594 97.9688 200.469 96.6406 199.875 94.7969C199.312 92.9531 199.031 90.5 199.031 87.4375V45.3438C199.031 42.2188 199.312 39.75 199.875 37.9375C200.469 36.0938 201.594 34.7812 203.25 34C204.938 33.1875 207.391 32.7812 210.609 32.7812H223.5C231 32.7812 236.766 34.1562 240.797 36.9062C244.828 39.6562 246.844 43.5312 246.844 48.5312C246.844 51 246.281 53.25 245.156 55.2812C244.031 57.3125 242.547 59.0469 240.703 60.4844C238.891 61.9219 236.906 63 234.75 63.7188V63.9062C237.5 64.2812 239.984 65.1875 242.203 66.625C244.422 68.0312 246.188 69.875 247.5 72.1562C248.844 74.4062 249.516 77 249.516 79.9375C249.516 84.3125 248.453 88 246.328 91C244.234 93.9688 241.328 96.2188 237.609 97.75C233.922 99.25 229.672 100 224.859 100H210.609ZM214.172 82.9844C214.172 85.0781 214.547 86.5781 215.297 87.4844C216.047 88.3906 217.453 88.8438 219.516 88.8438H223.078C226.234 88.8438 228.766 88.0312 230.672 86.4062C232.609 84.7812 233.578 82.5625 233.578 79.75C233.578 77.0625 232.641 74.9531 230.766 73.4219C228.891 71.8906 226.469 71.125 223.5 71.125H223.547C222.797 71.125 222.234 71.0156 221.859 70.7969C221.047 70.2656 220.203 69.6562 219.328 68.9688C218.484 68.25 217.562 67.3906 216.562 66.3906C216.25 65.9844 216.094 65.6875 216.094 65.5C216.094 65.25 216.25 64.9531 216.562 64.6094C217.562 63.6094 218.484 62.75 219.328 62.0312C220.203 61.3125 221.047 60.7031 221.859 60.2031C222.297 59.9844 222.859 59.875 223.547 59.875H223.5C225.344 59.875 227.031 59.1875 228.562 57.8125C230.125 56.4375 230.906 54.2812 230.906 51.3438C230.906 48.375 230.078 46.4062 228.422 45.4375C226.766 44.4375 224.641 43.9375 222.047 43.9375H219.516C217.453 43.9375 216.047 44.375 215.297 45.25C214.547 46.125 214.172 47.625 214.172 49.75V82.9844ZM250.764 36.25C250.764 35.8438 250.889 35.4844 251.139 35.1719C251.389 34.8594 251.717 34.4531 252.124 33.9531C252.999 32.9531 254.014 31.9062 255.171 30.8125C256.327 29.6875 257.499 28.6094 258.686 27.5781C259.436 26.9844 259.999 26.6875 260.374 26.6875C260.749 26.6875 261.327 26.9844 262.108 27.5781C264.639 29.7656 266.796 31.8906 268.577 33.9531C268.983 34.4219 269.311 34.8281 269.561 35.1719C269.842 35.4844 269.983 35.8438 269.983 36.25C269.983 36.6562 269.842 37.0156 269.561 37.3281C269.311 37.6406 268.967 38.0625 268.53 38.5938C267.686 39.5625 266.702 40.6094 265.577 41.7344C264.452 42.8281 263.296 43.875 262.108 44.875C261.671 45.25 261.327 45.5 261.077 45.625C260.827 45.7188 260.592 45.7656 260.374 45.7656C260.155 45.7656 259.921 45.7188 259.671 45.625C259.452 45.5 259.092 45.25 258.592 44.875C257.342 43.875 256.171 42.8281 255.077 41.7344C253.983 40.6094 252.999 39.5312 252.124 38.5C251.717 38 251.389 37.6094 251.139 37.3281C250.889 37.0156 250.764 36.6562 250.764 36.25ZM267.733 97.5156C267.733 98.4531 267.53 99.1094 267.124 99.4844C266.749 99.8281 266.092 100 265.155 100H255.499C254.561 100 253.889 99.8281 253.483 99.4844C253.108 99.1094 252.921 98.4531 252.921 97.5156V54.4844C252.921 53.5469 253.108 52.9062 253.483 52.5625C253.889 52.1875 254.561 52 255.499 52H265.155C266.092 52 266.749 52.1875 267.124 52.5625C267.53 52.9062 267.733 53.5469 267.733 54.4844V97.5156ZM292.747 101.172C282.31 101.172 277.091 95.75 277.091 84.9062V62.9219H271.794C270.857 62.9219 270.201 62.7344 269.826 62.3594C269.482 61.9531 269.31 61.2812 269.31 60.3438V54.5781C269.31 53.6406 269.482 52.9844 269.826 52.6094C270.201 52.2031 270.857 52 271.794 52H277.091V44.4531C277.091 43.7031 277.247 43.125 277.56 42.7188C278.872 41 280.794 39.1406 283.326 37.1406C283.763 36.8281 284.154 36.6719 284.497 36.6719C284.872 36.6719 285.247 36.8281 285.622 37.1406C286.966 38.1719 288.091 39.1406 288.997 40.0469C289.935 40.9531 290.732 41.8438 291.388 42.7188C291.701 43.125 291.857 43.7031 291.857 44.4531V52H300.154C301.091 52 301.732 52.2031 302.076 52.6094C302.451 52.9844 302.638 53.6406 302.638 54.5781V60.3438C302.638 61.2812 302.451 61.9531 302.076 62.3594C301.732 62.7344 301.091 62.9219 300.154 62.9219H291.857V82.3281C291.857 87.3281 293.669 89.8281 297.294 89.8281C297.857 89.8281 298.372 89.7812 298.841 89.6875C299.31 89.5625 299.716 89.4375 300.06 89.3125C300.716 89.0625 301.169 88.9688 301.419 89.0312C301.701 89.0938 301.951 89.4375 302.169 90.0625L304.888 97.3281C305.169 98.1094 304.982 98.6719 304.326 99.0156C303.857 99.2344 302.716 99.6406 300.904 100.234C299.122 100.859 296.404 101.172 292.747 101.172ZM328.637 101.172C323.356 101.172 318.762 100.328 314.856 98.6406C310.949 96.9219 307.918 94.2656 305.762 90.6719C303.606 87.0781 302.527 82.4375 302.527 76.75C302.527 68.2188 304.715 61.7656 309.09 57.3906C313.465 53.0156 319.277 50.8281 326.527 50.8281C331.246 50.8281 335.231 51.6719 338.481 53.3594C341.762 55.0469 344.246 57.375 345.934 60.3438C347.652 63.3125 348.512 66.7031 348.512 70.5156C348.512 74.2344 347.559 76.8281 345.652 78.2969C343.746 79.7656 340.965 80.5 337.309 80.5H317.199C317.449 83.7188 318.621 86.1719 320.715 87.8594C322.84 89.5469 325.715 90.3906 329.34 90.3906C332.215 90.3906 334.512 89.9688 336.231 89.125C337.981 88.25 339.199 87.5625 339.887 87.0625C340.481 86.625 341.152 86.4219 341.902 86.4531C342.496 86.4531 343.34 86.5781 344.434 86.8281C345.559 87.0469 346.668 87.4688 347.762 88.0938C348.543 88.5 348.934 89.0625 348.934 89.7812C348.934 90.1875 348.856 90.7656 348.699 91.5156C348.606 91.9531 348.449 92.5938 348.231 93.4375C348.012 94.25 347.731 95.0156 347.387 95.7344C347.199 96.0781 346.902 96.4062 346.496 96.7188C345.871 97.1562 344.856 97.7344 343.449 98.4531C342.074 99.1719 340.184 99.7969 337.777 100.328C335.371 100.891 332.324 101.172 328.637 101.172ZM317.106 70.8906H332.387C333.981 70.8906 334.777 70.1562 334.777 68.6875C334.777 66.4688 334.074 64.6094 332.668 63.1094C331.293 61.5781 329.215 60.8125 326.434 60.8125C323.402 60.8125 321.168 61.7812 319.731 63.7188C318.324 65.6562 317.449 68.0469 317.106 70.8906Z" fill="#5EDA42"/>
<mask id="mask0_195_184984" style="mask-type:luminance" maskUnits="userSpaceOnUse" x="155" y="33" width="3" height="2">
<path d="M156.497 33.4098L157.636 34.0549C157.373 33.913 157.073 33.8356 156.735 33.8872L155.596 33.2421C155.922 33.1905 156.234 33.2679 156.497 33.4098Z" fill="white"/>
</mask>
<g mask="url(#mask0_195_184984)">
<path d="M156.749 33.8875L155.61 33.2424C155.81 33.2166 155.998 33.2295 156.173 33.2682L157.312 33.9133C157.137 33.8617 156.949 33.8488 156.749 33.8875Z" fill="#5EDA42"/>
<path d="M157.298 33.9132L156.159 33.2681C156.259 33.2939 156.347 33.3326 156.447 33.3713L157.586 34.0164C157.498 33.9648 157.398 33.939 157.298 33.9132Z" fill="#5EDA42"/>
<path d="M157.586 34.0157L156.447 33.3706L156.497 33.3964L157.636 34.0415L157.586 34.0157Z" fill="#5EDA42"/>
</g>
<mask id="mask1_195_184984" style="mask-type:luminance" maskUnits="userSpaceOnUse" x="121" y="33" width="36" height="60">
<path d="M122.194 92.5396L121.055 91.8945C122.219 87.8949 123.408 83.8824 124.722 79.9215C130.592 62.1684 139.515 43.8347 154.833 33.5518C155.096 33.3712 155.346 33.2809 155.597 33.2422L156.735 33.8873C156.498 33.926 156.235 34.0163 155.972 34.1969C140.654 44.4798 131.731 62.8135 125.861 80.5666C124.547 84.5404 123.346 88.54 122.194 92.5396Z" fill="white"/>
</mask>
<g mask="url(#mask1_195_184984)">
<path d="M122.194 92.5396L121.055 91.8945C122.219 87.8948 123.408 83.8823 124.722 79.9214C125.16 78.6054 125.611 77.3023 126.074 75.9863L127.213 76.6314C126.75 77.9474 126.299 79.2634 125.861 80.5665C124.547 84.5403 123.346 88.5399 122.194 92.5396Z" fill="#5EDA42"/>
<path d="M127.225 76.6319L126.086 75.9868C128.126 70.2712 130.491 64.5685 133.32 59.1626L134.458 59.8077C131.63 65.2136 129.265 70.9292 127.225 76.6319Z" fill="#5EDA42"/>
<path d="M134.459 59.8074L133.32 59.1623C134.959 56.0142 136.761 52.9693 138.726 50.0664L139.865 50.7115C137.9 53.6015 136.098 56.6593 134.459 59.8074Z" fill="#5EDA42"/>
<path d="M139.865 50.7118L138.726 50.0667C140.228 47.8476 141.842 45.7188 143.569 43.7061L144.708 44.3512C142.981 46.3639 141.379 48.4927 139.865 50.7118Z" fill="#5EDA42"/>
<path d="M144.709 44.351L143.57 43.7059C145.084 41.9383 146.686 40.2611 148.376 38.687L149.514 39.3321C147.825 40.9061 146.223 42.5834 144.709 44.351Z" fill="#5EDA42"/>
<path d="M149.514 39.3319L148.375 38.6868C150.065 37.1127 151.854 35.6548 153.732 34.313L154.87 34.9581C152.981 36.2999 151.204 37.7578 149.514 39.3319Z" fill="#5EDA42"/>
<path d="M154.87 34.9578L153.731 34.3127C154.094 34.0547 154.47 33.7967 154.845 33.5386C154.933 33.4741 155.02 33.4225 155.108 33.3838L156.247 34.0289C156.159 34.0676 156.072 34.1192 155.984 34.1837C155.609 34.4288 155.246 34.6869 154.87 34.9578Z" fill="#5EDA42"/>
<path d="M156.248 34.0421L155.109 33.397C155.284 33.3196 155.447 33.268 155.609 33.2422L156.748 33.8873C156.586 33.9131 156.423 33.9647 156.248 34.0421Z" fill="#5EDA42"/>
</g>
<mask id="mask2_195_184984" style="mask-type:luminance" maskUnits="userSpaceOnUse" x="98" y="43" width="24" height="57">
<path d="M121.394 99.7777L120.255 99.1326C119.942 98.952 119.679 98.6552 119.529 98.2166C113.384 80.3215 106.351 62.9555 98.4416 46.1829C97.7909 44.8024 98.9547 43.28 100.056 43.1252C100.306 43.0865 100.557 43.1252 100.782 43.2542L101.921 43.8993C101.696 43.7703 101.445 43.7445 101.195 43.7703C100.094 43.9251 98.9297 45.4475 99.5805 46.828C107.502 63.6006 114.536 80.9666 120.668 98.8616C120.818 99.3003 121.081 99.5971 121.394 99.7777Z" fill="white"/>
</mask>
<g mask="url(#mask2_195_184984)">
<path d="M121.394 99.7781L120.255 99.133C119.942 98.9523 119.68 98.6556 119.53 98.2169C113.385 80.3219 106.351 62.9558 98.4419 46.1833C98.1916 45.6672 98.2041 45.1253 98.3793 44.6479L99.5182 45.293C99.343 45.7704 99.3305 46.3123 99.5807 46.8284C107.503 63.6009 114.536 80.967 120.668 98.862C120.819 99.3007 121.081 99.5974 121.394 99.7781Z" fill="#5EDA42"/>
<path d="M99.5043 45.2799L98.3655 44.6348C98.403 44.5316 98.4531 44.4284 98.5031 44.3252L99.642 44.9703C99.5919 45.0735 99.5419 45.1767 99.5043 45.2799Z" fill="#5EDA42"/>
<path d="M99.6425 44.9827L98.5037 44.3376C98.5537 44.2473 98.6038 44.1699 98.6538 44.0796L99.7927 44.7247C99.7426 44.8021 99.6926 44.8924 99.6425 44.9827Z" fill="#5EDA42"/>
<path d="M99.7924 44.725L98.6536 44.0799C98.7036 44.0025 98.7662 43.9251 98.8288 43.8477L99.9676 44.4928C99.905 44.5702 99.8425 44.6347 99.7924 44.725Z" fill="#5EDA42"/>
<path d="M99.968 44.5058L98.8291 43.8607C98.8917 43.7833 98.9542 43.7188 99.0293 43.6543L100.168 44.2994C100.093 44.3639 100.031 44.4284 99.968 44.5058Z" fill="#5EDA42"/>
<path d="M100.168 44.2991L99.0291 43.654C99.1041 43.5895 99.1792 43.525 99.2668 43.4604L100.406 44.1055C100.318 44.1701 100.243 44.2346 100.168 44.2991Z" fill="#5EDA42"/>
<path d="M100.406 44.106L99.2673 43.4609C99.3675 43.3964 99.4676 43.3319 99.5677 43.2803L100.707 43.9254C100.606 43.977 100.506 44.0415 100.406 44.106Z" fill="#5EDA42"/>
<path d="M100.706 43.9252L99.5676 43.2801C99.7303 43.2027 99.8805 43.151 100.043 43.1252C100.206 43.0994 100.369 43.1123 100.519 43.151L101.658 43.7961C101.507 43.7574 101.345 43.7445 101.182 43.7703C101.019 43.7961 100.857 43.8478 100.706 43.9252Z" fill="#5EDA42"/>
<path d="M101.657 43.7965L100.518 43.1514C100.593 43.1643 100.656 43.1901 100.719 43.2288L101.857 43.8739C101.795 43.8352 101.72 43.8094 101.657 43.7965Z" fill="#5EDA42"/>
<path d="M101.87 43.8736L100.731 43.2285L100.769 43.2543L101.908 43.8994L101.87 43.8736Z" fill="#5EDA42"/>
</g>
<path d="M156.748 33.8875C158.312 33.6552 159.351 36.0292 157.662 37.1646C153.782 39.7708 150.228 42.9704 147.062 46.6475C134.572 61.1622 129.065 80.2829 123.897 98.3973C123.634 99.3262 122.983 99.8423 122.32 99.9455C121.656 100.049 120.956 99.6875 120.668 98.8617C114.523 80.9667 107.489 63.6007 99.5801 46.8281C98.9293 45.4476 100.093 43.9252 101.194 43.7704C101.695 43.693 102.183 43.9123 102.471 44.5316C109.792 60.0526 116.375 76.0769 122.207 92.5398C123.371 88.5402 124.56 84.5277 125.874 80.5668C131.743 62.8137 140.666 44.48 155.985 34.1971C156.248 34.0165 156.498 33.9262 156.748 33.8875Z" fill="#5EDA42"/>
<mask id="mask3_195_184984" style="mask-type:luminance" maskUnits="userSpaceOnUse" x="188" y="7" width="3" height="1">
<path d="M188.961 7.15449L190.1 7.79959C189.887 7.68347 189.637 7.61896 189.387 7.65767L188.248 7.01257C188.498 6.97387 188.749 7.02547 188.961 7.15449Z" fill="white"/>
</mask>
<g mask="url(#mask3_195_184984)">
<path d="M189.387 7.64358L188.248 6.99848C188.398 6.97268 188.548 6.99848 188.686 7.02429L189.825 7.66938C189.687 7.63068 189.537 7.61778 189.387 7.64358Z" fill="#5EDA42"/>
<path d="M189.813 7.67049L188.674 7.02539C188.749 7.05119 188.837 7.077 188.912 7.1157L190.051 7.7608C189.976 7.7221 189.901 7.69629 189.813 7.67049Z" fill="#5EDA42"/>
<path d="M190.05 7.76082L188.911 7.11572L188.961 7.14153L190.1 7.78662L190.05 7.76082Z" fill="#5EDA42"/>
</g>
<mask id="mask4_195_184984" style="mask-type:luminance" maskUnits="userSpaceOnUse" x="139" y="14" width="46" height="51">
<path d="M141.467 64.3745L140.328 63.7294C139.64 63.3423 139.177 62.4263 139.615 61.3038C141.542 56.3624 144.934 52.2596 148.726 48.8921C152.555 45.4989 156.81 42.8798 160.903 39.9898C164.645 37.3449 168.224 34.3645 171.503 30.9713C176.158 26.146 180.201 20.6626 183.53 14.7148L184.669 15.3599C181.34 21.3077 177.297 26.7911 172.642 31.6164C169.363 35.0096 165.784 37.99 162.042 40.6349C157.949 43.5249 153.694 46.144 149.865 49.5372C146.073 52.8918 142.681 57.0075 140.754 61.9489C140.328 63.0585 140.779 63.9874 141.467 64.3745Z" fill="white"/>
</mask>
<g mask="url(#mask4_195_184984)">
<path d="M141.468 64.3746L140.329 63.7295C139.653 63.3553 139.203 62.4651 139.591 61.3813L140.73 62.0264C140.342 63.1102 140.805 64.0004 141.468 64.3746Z" fill="#5EDA42"/>
<path d="M140.728 62.0265L139.59 61.3814L139.615 61.304C139.965 60.4137 140.366 59.5364 140.804 58.6978L141.942 59.3429C141.504 60.1815 141.104 61.0588 140.753 61.949L140.728 62.0265Z" fill="#5EDA42"/>
<path d="M141.943 59.3557L140.804 58.7106C141.329 57.7172 141.905 56.7495 142.531 55.8335L143.67 56.4786C143.044 57.3946 142.468 58.3623 141.943 59.3557Z" fill="#5EDA42"/>
<path d="M143.67 56.4789L142.531 55.8338C143.22 54.8146 143.97 53.8469 144.771 52.918L145.91 53.5631C145.109 54.492 144.358 55.4597 143.67 56.4789Z" fill="#5EDA42"/>
<path d="M145.91 53.5498L144.771 52.9048C145.772 51.7436 146.836 50.6469 147.938 49.6147L149.076 50.2598C147.963 51.292 146.899 52.3887 145.91 53.5498Z" fill="#5EDA42"/>
<path d="M149.077 50.2601L147.938 49.615C148.201 49.3698 148.464 49.1376 148.727 48.9054C150.391 47.4216 152.143 46.0927 153.933 44.8154L155.072 45.4605C153.282 46.7378 151.543 48.0667 149.866 49.5505C149.603 49.7827 149.34 50.0278 149.077 50.2601Z" fill="#5EDA42"/>
<path d="M155.071 45.4601L153.932 44.815C156.234 43.1764 158.6 41.6282 160.902 40.0025C161.003 39.938 161.103 39.8606 161.203 39.7832L162.342 40.4283C162.242 40.5057 162.141 40.5702 162.041 40.6476C159.739 42.2733 157.373 43.8215 155.071 45.4601Z" fill="#5EDA42"/>
<path d="M162.342 40.4418L161.203 39.7967C163.856 37.9001 166.422 35.8487 168.85 33.5908L169.989 34.2359C167.561 36.4938 164.983 38.5452 162.342 40.4418Z" fill="#5EDA42"/>
<path d="M169.99 34.2356L168.851 33.5905C169.752 32.7518 170.64 31.8874 171.504 30.9972C172.543 29.9134 173.544 28.8038 174.533 27.6685L175.671 28.3136C174.695 29.4489 173.682 30.5585 172.643 31.6423C171.779 32.5325 170.891 33.3969 169.99 34.2356Z" fill="#5EDA42"/>
<path d="M175.658 28.3007L174.52 27.6556C176.409 25.4494 178.174 23.1399 179.826 20.7144L180.965 21.3595C179.325 23.7721 177.548 26.0945 175.658 28.3007Z" fill="#5EDA42"/>
<path d="M180.964 21.3723L179.825 20.7272C181.139 18.7919 182.378 16.7921 183.53 14.7407L184.668 15.3858C183.517 17.4372 182.278 19.437 180.964 21.3723Z" fill="#5EDA42"/>
</g>
<mask id="mask5_195_184984" style="mask-type:luminance" maskUnits="userSpaceOnUse" x="141" y="7" width="49" height="39">
<path d="M143.107 45.6799L141.968 45.0348C141.668 44.8671 141.443 44.5316 141.368 44.0155C140.729 39.5514 141.918 34.9971 144.409 30.9974C154.884 14.1862 174.77 20.0953 187.397 7.47717C187.685 7.19332 187.973 7.0514 188.248 7.0127L189.387 7.65779C189.112 7.6965 188.824 7.83842 188.536 8.12226C175.909 20.7404 156.023 14.8313 145.548 31.6425C143.057 35.6551 141.868 40.1965 142.506 44.6606C142.582 45.1896 142.807 45.5122 143.107 45.6799Z" fill="white"/>
</mask>
<g mask="url(#mask5_195_184984)">
<path d="M143.107 45.68L141.968 45.0349C141.667 44.8672 141.442 44.5318 141.367 44.0157C140.942 41.0869 141.317 38.1195 142.318 35.2939L143.457 35.939C142.456 38.7646 142.08 41.732 142.506 44.6608C142.581 45.1898 142.806 45.5123 143.107 45.68Z" fill="#5EDA42"/>
<path d="M143.458 35.9261L142.319 35.281C142.657 34.3392 143.057 33.4232 143.533 32.52L144.672 33.1651C144.196 34.0683 143.796 34.9843 143.458 35.9261Z" fill="#5EDA42"/>
<path d="M144.671 33.165L143.532 32.5199C143.808 32.0038 144.096 31.4877 144.409 30.9845C144.609 30.662 144.822 30.3394 145.034 30.0298L146.173 30.6749C145.96 30.9845 145.76 31.3071 145.547 31.6296C145.234 32.1328 144.947 32.6489 144.671 33.165Z" fill="#5EDA42"/>
<path d="M146.173 30.6748L145.034 30.0297C145.61 29.1782 146.223 28.3912 146.849 27.6558L147.987 28.3009C147.362 29.0363 146.761 29.8233 146.173 30.6748Z" fill="#5EDA42"/>
<path d="M147.988 28.3009L146.849 27.6558C147.5 26.8945 148.175 26.1978 148.864 25.5527L150.003 26.1978C149.302 26.8429 148.639 27.5396 147.988 28.3009Z" fill="#5EDA42"/>
<path d="M150.002 26.2112L148.864 25.5661C149.677 24.8177 150.515 24.1339 151.392 23.5146L152.53 24.1597C151.654 24.779 150.816 25.4628 150.002 26.2112Z" fill="#5EDA42"/>
<path d="M152.53 24.1594L151.392 23.5143C152.743 22.5595 154.157 21.7467 155.609 21.0371L156.748 21.6822C155.296 22.3918 153.882 23.2046 152.53 24.1594Z" fill="#5EDA42"/>
<path d="M156.748 21.6824L155.609 21.0373C163.181 17.3732 171.979 16.5862 179.663 12.8833L180.802 13.5284C173.118 17.2313 164.32 18.0183 156.748 21.6824Z" fill="#5EDA42"/>
<path d="M180.802 13.5283L179.664 12.8832C181.165 12.1607 182.63 11.3221 184.031 10.3286L185.17 10.9737C183.768 11.9672 182.304 12.8058 180.802 13.5283Z" fill="#5EDA42"/>
<path d="M185.157 10.9609L184.019 10.3158C184.932 9.67066 185.821 8.94815 186.672 8.16113L187.811 8.80623C186.96 9.59325 186.071 10.3158 185.157 10.9609Z" fill="#5EDA42"/>
<path d="M187.81 8.80601L186.672 8.16091C186.909 7.94158 187.16 7.70934 187.397 7.46421C187.423 7.4384 187.435 7.4255 187.46 7.4126L188.599 8.0577C188.599 8.0577 188.561 8.0964 188.536 8.1093C188.299 8.34154 188.061 8.57377 187.81 8.80601Z" fill="#5EDA42"/>
<path d="M188.599 8.05773L187.46 7.41264C187.522 7.34813 187.585 7.29652 187.66 7.25781L188.799 7.90291C188.736 7.95452 188.674 8.00613 188.599 8.05773Z" fill="#5EDA42"/>
<path d="M188.799 7.90302L187.66 7.25793C187.735 7.20632 187.81 7.15471 187.885 7.12891L189.024 7.774C188.949 7.81271 188.874 7.85142 188.799 7.90302Z" fill="#5EDA42"/>
<path d="M189.024 7.76122L187.885 7.11612C188.01 7.05161 188.135 7.0258 188.248 7L189.387 7.6451C189.261 7.658 189.149 7.69671 189.024 7.76122Z" fill="#5EDA42"/>
</g>
<path d="M189.388 7.64495C190.502 7.49012 191.39 9.05126 190.827 10.3286C188.674 15.141 186.084 19.7212 183.105 24.0175C177.786 31.6942 171.229 38.2871 163.957 43.4479C156.436 48.7893 147.425 53.705 143.646 63.4072C143.37 64.1298 142.895 64.4781 142.394 64.5555C141.318 64.7103 140.154 63.5234 140.755 61.9493C142.682 57.0079 146.074 52.905 149.866 49.5376C153.695 46.1444 157.95 43.5253 162.043 40.6353C165.785 37.9904 169.364 35.01 172.643 31.6168C177.298 26.7915 181.341 21.3081 184.67 15.3603C178.012 19.3212 170.39 20.4179 163.319 22.766C158.814 24.2627 154.121 26.3657 150.604 30.2879C147.5 33.7327 145.06 38.5581 145.723 43.1899C145.923 44.5704 144.835 45.6541 143.871 45.7961C143.233 45.8864 142.645 45.5638 142.507 44.6478C141.869 40.1837 143.058 35.6293 145.548 31.6297C156.023 14.8184 175.909 20.7275 188.537 8.10942C188.825 7.82557 189.112 7.68365 189.388 7.64495Z" fill="#5EDA42"/>
<mask id="mask6_195_184984" style="mask-type:luminance" maskUnits="userSpaceOnUse" x="98" y="14" width="3" height="2">
<path d="M99.818 15.0379L100.957 15.683C100.694 15.5411 100.406 15.5024 100.118 15.5411L98.9795 14.896C99.2673 14.8573 99.5552 14.896 99.818 15.0379Z" fill="white"/>
</mask>
<g mask="url(#mask6_195_184984)">
<path d="M100.133 15.541L98.9937 14.8959C99.1814 14.8701 99.3691 14.8701 99.5443 14.9217L100.683 15.5668C100.508 15.5152 100.32 15.5152 100.133 15.541Z" fill="#5EDA42"/>
<path d="M100.682 15.567L99.5427 14.9219C99.6303 14.9477 99.7054 14.9735 99.7805 15.0122L100.919 15.6573C100.844 15.6186 100.757 15.5928 100.682 15.567Z" fill="#5EDA42"/>
<path d="M100.92 15.6573L99.781 15.0122L99.8311 15.038L100.97 15.6831L100.92 15.6573Z" fill="#5EDA42"/>
</g>
<mask id="mask7_195_184984" style="mask-type:luminance" maskUnits="userSpaceOnUse" x="91" y="14" width="15" height="34">
<path d="M92.6218 46.1319L91.4829 45.4868C93.1724 46.4415 95.1122 46.906 97.0646 46.6221C98.2034 46.4544 99.3548 46.0286 100.481 45.2932C105.049 42.2871 104.849 36.5199 103.81 32.0042C102.596 26.7402 100.106 22.1858 97.4525 17.8508C96.6516 16.5606 97.8155 15.051 98.9793 14.8833L100.118 15.5284C98.9543 15.6961 97.7904 17.1928 98.5914 18.4959C101.245 22.8309 103.735 27.3853 104.949 32.6493C105.988 37.165 106.188 42.9322 101.62 45.9383C100.494 46.6737 99.3423 47.0995 98.2034 47.2672C96.2386 47.5511 94.3113 47.0737 92.6218 46.1319Z" fill="white"/>
</mask>
<g mask="url(#mask7_195_184984)">
<path d="M92.6218 46.1314L91.4829 45.4863C91.6081 45.5637 91.7332 45.6282 91.8709 45.6928L93.0097 46.3379C92.8846 46.2733 92.7469 46.2088 92.6218 46.1314Z" fill="#5EDA42"/>
<path d="M93.0102 46.338L91.8713 45.6929C92.4721 46.0025 93.0978 46.2477 93.7486 46.4154L94.8874 47.0605C94.2366 46.8928 93.6109 46.6476 93.0102 46.338Z" fill="#5EDA42"/>
<path d="M94.8871 47.0605L93.7483 46.4154C94.8246 46.6993 95.9384 46.7896 97.0773 46.6218C97.8782 46.5057 98.6792 46.2606 99.4801 45.8735L100.619 46.5186C99.818 46.9057 99.0171 47.1508 98.2161 47.2669C97.0898 47.4347 95.9634 47.3444 94.8871 47.0605Z" fill="#5EDA42"/>
<path d="M100.606 46.5186L99.4675 45.8735C99.8054 45.7058 100.143 45.5123 100.481 45.2929C100.569 45.2284 100.656 45.1768 100.744 45.1123L101.883 45.7574C101.795 45.8219 101.708 45.8735 101.62 45.938C101.282 46.1574 100.944 46.3509 100.606 46.5186Z" fill="#5EDA42"/>
<path d="M101.896 45.77L100.757 45.1249C101.07 44.9056 101.345 44.6734 101.608 44.4282L102.747 45.0733C102.484 45.3185 102.196 45.5507 101.896 45.77Z" fill="#5EDA42"/>
<path d="M102.746 45.0738L101.607 44.4287C101.832 44.2094 102.057 43.99 102.245 43.7578L103.384 44.4029C103.184 44.6351 102.971 44.8545 102.746 45.0738Z" fill="#5EDA42"/>
<path d="M103.384 44.4026L102.245 43.7575C102.445 43.5252 102.621 43.293 102.783 43.0479L103.922 43.6929C103.759 43.9381 103.572 44.1703 103.384 44.4026Z" fill="#5EDA42"/>
<path d="M103.936 43.6932L102.797 43.0481C102.985 42.7772 103.147 42.4933 103.297 42.2095L104.436 42.8546C104.286 43.1384 104.123 43.4223 103.936 43.6932Z" fill="#5EDA42"/>
<path d="M104.436 42.8544L103.297 42.2093C103.485 41.8352 103.66 41.4481 103.797 41.061L104.936 41.7061C104.799 42.1061 104.636 42.4803 104.436 42.8544Z" fill="#5EDA42"/>
<path d="M104.925 41.7061L103.786 41.061C104.787 38.2226 104.474 34.868 103.823 32.0167C102.609 26.7527 100.119 22.1983 97.4657 17.8633C97.1528 17.3601 97.1403 16.8182 97.3155 16.3408L98.4543 16.9859C98.2791 17.4633 98.3042 18.0052 98.6045 18.5084C101.258 22.8434 103.748 27.3978 104.962 32.6618C105.613 35.5131 105.938 38.8677 104.925 41.7061Z" fill="#5EDA42"/>
<path d="M98.4406 16.9864L97.3018 16.3413C97.3393 16.2509 97.3769 16.1606 97.4144 16.0703L98.5532 16.7154C98.5032 16.8057 98.4656 16.896 98.4406 16.9864Z" fill="#5EDA42"/>
<path d="M98.5541 16.715L97.4153 16.0699C97.4528 15.9925 97.5029 15.9151 97.5529 15.8506L98.6918 16.4957C98.6417 16.5731 98.5917 16.6376 98.5541 16.715Z" fill="#5EDA42"/>
<path d="M98.6911 16.4961L97.5522 15.851C97.6023 15.7736 97.6524 15.709 97.7149 15.6445L98.8538 16.2896C98.7912 16.3541 98.7412 16.4186 98.6911 16.4961Z" fill="#5EDA42"/>
<path d="M98.8544 16.2893L97.7156 15.6442C97.7782 15.5797 97.8407 15.5023 97.9033 15.4507L99.0422 16.0958C98.9796 16.1603 98.917 16.2248 98.8544 16.2893Z" fill="#5EDA42"/>
<path d="M99.0419 16.0828L97.9031 15.4377C97.9782 15.3732 98.0532 15.3087 98.1409 15.2441L99.2797 15.8892C99.1921 15.9408 99.117 16.0054 99.0419 16.0828Z" fill="#5EDA42"/>
<path d="M99.2795 15.8894L98.1406 15.2443C98.2407 15.1669 98.3534 15.1153 98.4535 15.0508L99.5924 15.6959C99.4797 15.7475 99.3796 15.812 99.2795 15.8894Z" fill="#5EDA42"/>
<path d="M99.593 15.7088L98.4541 15.0637C98.6293 14.9863 98.8045 14.9218 98.9797 14.896L100.119 15.5411C99.9434 15.5669 99.7557 15.6185 99.593 15.7088Z" fill="#5EDA42"/>
</g>
<mask id="mask8_195_184984" style="mask-type:luminance" maskUnits="userSpaceOnUse" x="79" y="29" width="12" height="21">
<path d="M90.8947 49.6667L89.7558 49.0216C84.2242 45.9252 81.2832 38.4033 79.1056 32.0426C78.6676 30.7395 79.6688 29.7074 80.695 29.5526C81.0329 29.5009 81.3583 29.5526 81.6587 29.7074L82.7975 30.3525C82.5097 30.1848 82.1718 30.146 81.8339 30.1977C80.8077 30.3525 79.8065 31.3846 80.2445 32.6877C82.4221 39.0613 85.3631 46.5702 90.8947 49.6667Z" fill="white"/>
</mask>
<g mask="url(#mask8_195_184984)">
<path d="M90.8943 49.6667L89.7555 49.0216C84.2239 45.9252 81.2829 38.4033 79.1053 32.0427C78.9551 31.604 78.9676 31.1911 79.1053 30.8428L80.2442 31.4879C80.119 31.8362 80.1065 32.2491 80.2442 32.6878C82.4218 39.0613 85.3628 46.5703 90.8943 49.6667Z" fill="#5EDA42"/>
<path d="M80.2321 31.4882L79.0933 30.8431C79.1183 30.7657 79.1558 30.6883 79.1934 30.6108L80.3322 31.2559C80.2947 31.3333 80.2571 31.4108 80.2321 31.4882Z" fill="#5EDA42"/>
<path d="M80.3317 31.2559L79.1929 30.6108C79.2304 30.5463 79.268 30.4818 79.3055 30.4302L80.4444 31.0753C80.4444 31.0753 80.3693 31.1914 80.3317 31.2559Z" fill="#5EDA42"/>
<path d="M80.4453 31.0623L79.3064 30.4172C79.3064 30.4172 79.394 30.3011 79.4315 30.2495L80.5704 30.8946C80.5704 30.8946 80.4828 31.0107 80.4453 31.0623Z" fill="#5EDA42"/>
<path d="M80.5822 30.8944L79.4434 30.2493C79.4434 30.2493 79.5435 30.1332 79.6061 30.0815L80.7449 30.7266C80.7449 30.7266 80.6323 30.8299 80.5822 30.8944Z" fill="#5EDA42"/>
<path d="M80.7455 30.7269L79.6067 30.0818C79.6693 30.0173 79.7444 29.9657 79.8194 29.9141L80.9583 30.5592C80.8832 30.6108 80.8206 30.6624 80.7455 30.7269Z" fill="#5EDA42"/>
<path d="M80.9455 30.5591L79.8066 29.914C79.9068 29.8495 80.0069 29.785 80.107 29.7334L81.2459 30.3785C81.1457 30.4301 81.0331 30.4946 80.9455 30.5591Z" fill="#5EDA42"/>
<path d="M81.258 30.3783L80.1191 29.7332C80.3069 29.6429 80.5071 29.5784 80.6948 29.5526C80.9076 29.5268 81.1328 29.5268 81.3331 29.5784L82.4719 30.2235C82.2717 30.1719 82.0464 30.159 81.8337 30.1977C81.6334 30.2235 81.4332 30.288 81.258 30.3783Z" fill="#5EDA42"/>
<path d="M82.4843 30.2237L81.3455 29.5786C81.4331 29.6044 81.5207 29.6302 81.6083 29.6818L82.7471 30.3269C82.6595 30.2882 82.5719 30.2495 82.4843 30.2237Z" fill="#5EDA42"/>
<path d="M82.748 30.3267L81.6091 29.6816L81.6592 29.7074L82.798 30.3525L82.748 30.3267Z" fill="#5EDA42"/>
</g>
<path d="M100.131 15.5409C100.644 15.4635 101.144 15.6442 101.495 16.2118C104.298 20.7791 106.914 25.6561 108.178 31.2039C109.216 35.7067 109.567 41.0868 106.701 45.4606C104.636 48.5958 101.307 50.544 98.0657 51.0084C97.6152 51.073 97.1646 51.1117 96.7266 51.1117C87.2403 51.2407 83.0979 40.9836 80.257 32.6747C79.819 31.3717 80.8202 30.3395 81.8464 30.1847C82.5222 30.0815 83.198 30.3653 83.4858 31.2168C85.1378 36.0809 86.8774 41.2029 90.4692 44.5317C92.5591 46.4799 95.3625 47.6797 98.2284 47.254C99.3672 47.0862 100.519 46.6605 101.645 45.9251C106.213 42.9189 106.013 37.1517 104.974 32.636C103.76 27.372 101.27 22.8176 98.6164 18.4826C97.8154 17.1924 98.9793 15.6829 100.143 15.5151L100.131 15.5409Z" fill="#5EDA42"/>
<mask id="mask9_195_184984" style="mask-type:luminance" maskUnits="userSpaceOnUse" x="91" y="24" width="3" height="1">
<path d="M91.9584 24.2366L93.0972 24.8817C92.8719 24.7527 92.6216 24.714 92.3588 24.7527L91.22 24.1076C91.4828 24.0689 91.7331 24.1076 91.9584 24.2366Z" fill="white"/>
</mask>
<g mask="url(#mask9_195_184984)">
<path d="M92.3588 24.7523L91.22 24.1072C91.3827 24.0814 91.5454 24.0943 91.7081 24.133L92.8469 24.7781C92.6842 24.7394 92.5215 24.7265 92.3588 24.7523Z" fill="#5EDA42"/>
<path d="M92.8469 24.7784L91.708 24.1333C91.7831 24.1462 91.8457 24.1849 91.9208 24.2107L93.0596 24.8558C92.997 24.8171 92.922 24.7913 92.8469 24.7784Z" fill="#5EDA42"/>
<path d="M93.0598 24.8555L91.9209 24.2104L91.9585 24.2363L93.0973 24.8814L93.0598 24.8555Z" fill="#5EDA42"/>
</g>
<mask id="mask10_195_184984" style="mask-type:luminance" maskUnits="userSpaceOnUse" x="89" y="24" width="13" height="25">
<path d="M101.332 48.7504L100.193 48.1053C99.9802 47.9892 99.78 47.7827 99.6423 47.486C96.3008 40.7125 92.9593 33.9389 89.6304 27.1525C88.9546 25.7849 90.1185 24.2625 91.2323 24.0947L92.3711 24.7398C91.2573 24.8946 90.0934 26.4171 90.7692 27.7976C94.1107 34.5711 97.4522 41.3446 100.781 48.1311C100.931 48.4278 101.119 48.6343 101.332 48.7504Z" fill="white"/>
</mask>
<g mask="url(#mask10_195_184984)">
<path d="M101.332 48.7501L100.193 48.105C99.9803 47.9889 99.7801 47.7825 99.6424 47.4857C96.3009 40.7122 92.9595 33.9387 89.6305 27.1522C89.3802 26.6362 89.3802 26.0943 89.5554 25.604L90.6943 26.2491C90.519 26.7265 90.519 27.2684 90.7693 27.7973C94.1108 34.5709 97.4523 41.3444 100.781 48.1308C100.931 48.4276 101.119 48.634 101.332 48.7501Z" fill="#5EDA42"/>
<path d="M90.6818 26.2622L89.543 25.6171C89.5805 25.5138 89.6181 25.4106 89.6681 25.3203L90.807 25.9654C90.7569 26.0686 90.7068 26.1589 90.6818 26.2622Z" fill="#5EDA42"/>
<path d="M90.8076 25.9527L89.6687 25.3076C89.7188 25.2173 89.7688 25.1399 89.8189 25.0625L90.9577 25.7076C90.9077 25.785 90.8576 25.8753 90.8076 25.9527Z" fill="#5EDA42"/>
<path d="M90.9577 25.7072L89.8188 25.0621C89.8689 24.9847 89.9315 24.9073 89.9941 24.8428L91.1329 25.4879C91.0703 25.5653 91.0203 25.6298 90.9577 25.7072Z" fill="#5EDA42"/>
<path d="M91.1323 25.4882L89.9934 24.8431C90.056 24.7657 90.1186 24.7012 90.1936 24.6367L91.3325 25.2818C91.2574 25.3463 91.1948 25.4108 91.1323 25.4882Z" fill="#5EDA42"/>
<path d="M91.333 25.282L90.1941 24.6369C90.2692 24.5724 90.3443 24.5079 90.4319 24.4434L91.5707 25.0885C91.4831 25.153 91.408 25.2175 91.333 25.282Z" fill="#5EDA42"/>
<path d="M91.5702 25.0879L90.4314 24.4428C90.5315 24.3783 90.6316 24.3138 90.7318 24.2622L91.8706 24.9073C91.7705 24.9589 91.6704 25.0234 91.5702 25.0879Z" fill="#5EDA42"/>
<path d="M91.8708 24.9073L90.7319 24.2622C90.8946 24.1848 91.0573 24.1332 91.22 24.1074L92.3589 24.7525C92.1962 24.7783 92.0335 24.8299 91.8708 24.9073Z" fill="#5EDA42"/>
</g>
<path d="M92.3592 24.7528C92.8598 24.6754 93.3479 24.8818 93.6483 25.5011C96.9898 32.2876 100.331 39.0611 103.66 45.8346C104.336 47.2022 103.172 48.7118 102.071 48.8795C101.57 48.9569 101.082 48.7505 100.769 48.1312C97.4278 41.3577 94.0863 34.5841 90.7573 27.7977C90.0815 26.4301 91.2454 24.9076 92.3592 24.7399V24.7528Z" fill="#5EDA42"/>
</g>
<defs>
<clipPath id="clip0_195_184984">
<rect width="353" height="125" fill="white"/>
</clipPath>
</defs>
</svg>
