<svg width="35" height="36" viewBox="0 0 35 36" fill="none" xmlns="http://www.w3.org/2000/svg">
<path d="M15.4364 15.9395C14.8896 16.4865 14.5824 17.2285 14.5825 18.0021C14.5827 18.7756 14.8901 19.5174 15.4372 20.0643C15.9843 20.6112 16.7262 20.9184 17.4998 20.9183C18.2733 20.9181 19.0152 20.6107 19.5621 20.0636" stroke="#666666" stroke-width="2.5" stroke-linecap="round" stroke-linejoin="round"/>
<path d="M24.3265 24.8148C22.2813 26.096 19.9132 26.7673 17.5 26.75C12.25 26.75 7.875 23.8333 4.375 18C6.23 14.9083 8.33 12.6363 10.675 11.1838M14.8458 9.5125C15.7193 9.3351 16.6087 9.24715 17.5 9.25C22.75 9.25 27.125 12.1667 30.625 18C29.6528 19.6188 28.6135 21.0139 27.5071 22.1854M4.375 4.875L30.625 31.125" stroke="#666666" stroke-width="2.5" stroke-linecap="round" stroke-linejoin="round"/>
</svg>
