<svg width="31" height="31" viewBox="0 0 31 31" fill="none" xmlns="http://www.w3.org/2000/svg">
<path d="M10.7019 9.24376L14.0415 5.88959V19.875C14.0415 20.2618 14.1951 20.6327 14.4686 20.9062C14.7421 21.1797 15.1131 21.3333 15.4998 21.3333C15.8866 21.3333 16.2575 21.1797 16.531 20.9062C16.8045 20.6327 16.9582 20.2618 16.9582 19.875V5.88959L20.2978 9.24376C20.4333 9.38045 20.5946 9.48894 20.7723 9.56298C20.95 9.63702 21.1407 9.67513 21.3332 9.67513C21.5257 9.67513 21.7163 9.63702 21.894 9.56298C22.0717 9.48894 22.233 9.38045 22.3686 9.24376C22.5053 9.10819 22.6138 8.9469 22.6878 8.76919C22.7618 8.59147 22.8 8.40086 22.8 8.20834C22.8 8.01583 22.7618 7.82521 22.6878 7.6475C22.6138 7.46979 22.5053 7.3085 22.3686 7.17293L16.5353 1.33959C16.3966 1.20683 16.233 1.10275 16.054 1.03334C15.699 0.887485 15.3007 0.887485 14.9457 1.03334C14.7667 1.10275 14.6031 1.20683 14.4644 1.33959L8.63109 7.17293C8.49511 7.3089 8.38725 7.47032 8.31367 7.64798C8.24008 7.82564 8.2022 8.01605 8.2022 8.20834C8.2022 8.40064 8.24008 8.59105 8.31367 8.76871C8.38725 8.94637 8.49511 9.10779 8.63109 9.24376C8.76706 9.37973 8.92848 9.48759 9.10614 9.56118C9.2838 9.63477 9.47421 9.67264 9.6665 9.67264C9.8588 9.67264 10.0492 9.63477 10.2269 9.56118C10.4045 9.48759 10.5659 9.37973 10.7019 9.24376ZM28.6248 15.5C28.2381 15.5 27.8671 15.6537 27.5936 15.9271C27.3201 16.2006 27.1665 16.5716 27.1665 16.9583V25.7083C27.1665 26.0951 27.0129 26.4661 26.7394 26.7395C26.4659 27.013 26.0949 27.1667 25.7082 27.1667H5.2915C4.90473 27.1667 4.5338 27.013 4.26031 26.7395C3.98682 26.4661 3.83317 26.0951 3.83317 25.7083V16.9583C3.83317 16.5716 3.67953 16.2006 3.40603 15.9271C3.13254 15.6537 2.76161 15.5 2.37484 15.5C1.98806 15.5 1.61713 15.6537 1.34364 15.9271C1.07015 16.2006 0.916504 16.5716 0.916504 16.9583V25.7083C0.916504 26.8687 1.37744 27.9815 2.19791 28.8019C3.01838 29.6224 4.13118 30.0833 5.2915 30.0833H25.7082C26.8685 30.0833 27.9813 29.6224 28.8018 28.8019C29.6222 27.9815 30.0832 26.8687 30.0832 25.7083V16.9583C30.0832 16.5716 29.9295 16.2006 29.656 15.9271C29.3825 15.6537 29.0116 15.5 28.6248 15.5Z" fill="#666666"/>
</svg>
