<svg width="97" height="100" viewBox="0 0 97 100" fill="none" xmlns="http://www.w3.org/2000/svg">
<path d="M92.2914 57.3334C90.7463 55.2004 89.9143 52.6339 89.9143 50.0001C89.9143 47.3662 90.7463 44.7997 92.2914 42.6667L95.4581 38.2917C95.8453 37.7575 96.1001 37.1389 96.2015 36.487C96.3029 35.835 96.2481 35.1683 96.0414 34.5417C95.8327 33.9217 95.4834 33.3583 95.0208 32.8957C94.5582 32.4331 93.9948 32.0838 93.3748 31.8751L88.2498 30.2084C85.7392 29.3986 83.5508 27.8119 82.0006 25.6775C80.4503 23.5431 79.6184 20.9714 79.6248 18.3334V12.9167C79.6243 12.2591 79.4681 11.6109 79.1691 11.0252C78.8701 10.4394 78.4366 9.93281 77.9042 9.54673C77.3718 9.16064 76.7556 8.90606 76.106 8.8038C75.4563 8.70155 74.7917 8.75452 74.1664 8.9584L68.9998 10.6251C66.4915 11.4367 63.7908 11.4346 61.2838 10.6188C58.7768 9.80314 56.5919 8.21566 55.0414 6.08339L51.8748 1.70839C51.4705 1.20135 50.9571 0.791918 50.3728 0.510525C49.7885 0.229132 49.1483 0.0830078 48.4998 0.0830078C47.8513 0.0830078 47.2111 0.229132 46.6268 0.510525C46.0425 0.791918 45.5291 1.20135 45.1248 1.70839L41.9581 6.08339C40.4077 8.21566 38.2228 9.80314 35.7158 10.6188C33.2088 11.4346 30.5081 11.4367 27.9998 10.6251L22.8331 8.9584C22.2079 8.75452 21.5432 8.70155 20.8936 8.8038C20.2439 8.90606 19.6277 9.16064 19.0953 9.54673C18.5629 9.93281 18.1295 10.4394 17.8305 11.0252C17.5314 11.6109 17.3753 12.2591 17.3748 12.9167V18.3334C17.3812 20.9714 16.5492 23.5431 14.999 25.6775C13.4487 27.8119 11.2604 29.3986 8.74978 30.2084L3.62478 31.8751C3.00474 32.0838 2.4414 32.4331 1.97879 32.8957C1.51618 33.3583 1.16685 33.9217 0.958114 34.5417C0.751495 35.1683 0.696636 35.835 0.79805 36.487C0.899465 37.1389 1.15425 37.7575 1.54145 38.2917L4.70811 42.6667C6.2533 44.7997 7.08526 47.3662 7.08526 50.0001C7.08526 52.6339 6.2533 55.2004 4.70811 57.3334L1.54145 61.7084C1.15425 62.2426 0.899465 62.8612 0.79805 63.5131C0.696636 64.1651 0.751495 64.8318 0.958114 65.4584C1.16685 66.0784 1.51618 66.6418 1.97879 67.1044C2.4414 67.567 3.00474 67.9163 3.62478 68.1251L8.74978 69.7917C11.2604 70.6016 13.4487 72.1882 14.999 74.3226C16.5492 76.457 17.3812 79.0288 17.3748 81.6667V87.0834C17.3753 87.741 17.5314 88.3892 17.8305 88.975C18.1295 89.5607 18.5629 90.0673 19.0953 90.4534C19.6277 90.8395 20.2439 91.0941 20.8936 91.1963C21.5432 91.2986 22.2079 91.2456 22.8331 91.0417L27.9581 89.3751C30.4718 88.5497 33.1827 88.5449 35.6992 89.3613C38.2158 90.1777 40.4077 91.773 41.9581 93.9167L45.1248 98.2917C45.5138 98.8214 46.022 99.2521 46.6083 99.5489C47.1947 99.8457 47.8426 100 48.4998 100C49.157 100 49.8049 99.8457 50.3912 99.5489C50.9775 99.2521 51.4858 98.8214 51.8748 98.2917L55.0414 93.9167C56.5945 91.776 58.7865 90.183 61.3021 89.3669C63.8178 88.5508 66.5275 88.5537 69.0414 89.3751L74.1664 91.0417C74.7917 91.2456 75.4563 91.2986 76.106 91.1963C76.7556 91.0941 77.3718 90.8395 77.9042 90.4534C78.4366 90.0673 78.8701 89.5607 79.1691 88.975C79.4681 88.3892 79.6243 87.741 79.6248 87.0834V81.6667C79.6184 79.0288 80.4503 76.457 82.0006 74.3226C83.5508 72.1882 85.7392 70.6016 88.2498 69.7917L93.3748 68.1251C93.9948 67.9163 94.5582 67.567 95.0208 67.1044C95.4834 66.6418 95.8327 66.0784 96.0414 65.4584C96.2481 64.8318 96.3029 64.1651 96.2015 63.5131C96.1001 62.8612 95.8453 62.2426 95.4581 61.7084L92.2914 57.3334ZM68.1248 44.6126L47.2914 65.4459C46.5101 66.227 45.4505 66.6658 44.3456 66.6658C43.2408 66.6658 42.1811 66.227 41.3998 65.4459L28.8998 52.9459C28.5018 52.5615 28.1844 52.1018 27.966 51.5934C27.7477 51.0851 27.6327 50.5383 27.6279 49.9851C27.6231 49.4318 27.7285 48.8832 27.938 48.3711C28.1475 47.859 28.4569 47.3938 28.8481 47.0026C29.2394 46.6114 29.7046 46.302 30.2166 46.0925C30.7287 45.883 31.2774 45.7775 31.8306 45.7823C32.3839 45.7872 32.9306 45.9021 33.439 46.1205C33.9473 46.3388 34.4071 46.6563 34.7914 47.0542L44.3331 56.6084L62.2206 38.7209C63.0065 37.9619 64.059 37.5419 65.1514 37.5514C66.2439 37.5609 67.289 37.9991 68.0615 38.7716C68.8341 39.5442 69.2723 40.5892 69.2818 41.6817C69.2912 42.7742 68.8713 43.8267 68.1123 44.6126H68.1248Z" fill="#5EDA42"/>
</svg>
