<svg width="23" height="18" viewBox="0 0 23 18" fill="none" xmlns="http://www.w3.org/2000/svg">
<path d="M14.8837 1.04494L21.955 8.11619C22.1893 8.3506 22.321 8.66848 22.321 8.99994C22.321 9.3314 22.1893 9.64928 21.955 9.88369L14.8837 16.9549C14.648 17.1826 14.3322 17.3086 14.0045 17.3058C13.6768 17.3029 13.3632 17.1715 13.1315 16.9397C12.8997 16.708 12.7683 16.3944 12.7654 16.0667C12.7626 15.7389 12.8886 15.4232 13.1163 15.1874L18.0537 10.2499H1.5C1.16848 10.2499 0.850537 10.1182 0.616116 9.88382C0.381696 9.6494 0.25 9.33146 0.25 8.99994C0.25 8.66842 0.381696 8.35048 0.616116 8.11606C0.850537 7.88164 1.16848 7.74994 1.5 7.74994H18.0537L13.1163 2.81244C12.9969 2.69713 12.9016 2.5592 12.8361 2.4067C12.7706 2.25419 12.7361 2.09017 12.7347 1.92419C12.7332 1.75822 12.7649 1.59362 12.8277 1.44C12.8906 1.28638 12.9834 1.14681 13.1008 1.02945C13.2181 0.912081 13.3577 0.819265 13.5113 0.756414C13.6649 0.693562 13.8295 0.661935 13.9955 0.663377C14.1615 0.66482 14.3255 0.699302 14.478 0.764814C14.6305 0.830325 14.7684 0.925553 14.8837 1.04494Z" fill="white"/>
</svg>
