<svg width="60" height="60" viewBox="0 0 60 60" fill="none" xmlns="http://www.w3.org/2000/svg">
<rect width="60" height="60" rx="30" fill="#F0F8FF"/>
<path d="M30 38.75C28.335 39.5275 26.1462 40 23.75 40C22.4175 40 21.15 39.8537 20 39.5912C19.2612 39.4212 18.8912 39.3375 18.4487 38.9862C18.1592 38.7384 17.9195 38.4376 17.7425 38.1C17.5 37.5912 17.5 37.0962 17.5 36.1075V22.6425C17.5 21.4112 18.8 20.5662 20 20.8412C21.15 21.1037 22.4175 21.25 23.75 21.25C26.1462 21.25 28.335 20.7775 30 20C31.665 19.2225 33.8537 18.75 36.25 18.75C37.5825 18.75 38.85 18.8962 40 19.1587C40.7387 19.3287 41.1087 19.4138 41.5512 19.7638C41.8037 19.9638 42.1187 20.3587 42.2575 20.65C42.5 21.16 42.5 21.6537 42.5 22.6425V30M33.75 37.5H42.5" stroke="#70C1FF" stroke-width="1.5625" stroke-linecap="round" stroke-linejoin="round"/>
<path d="M21.875 31.25V31.2612M38.125 28.74V28.7525M33.125 30C33.125 30.8288 32.7958 31.6237 32.2097 32.2097C31.6237 32.7958 30.8288 33.125 30 33.125C29.1712 33.125 28.3763 32.7958 27.7903 32.2097C27.2042 31.6237 26.875 30.8288 26.875 30C26.875 29.1712 27.2042 28.3763 27.7903 27.7903C28.3763 27.2042 29.1712 26.875 30 26.875C30.8288 26.875 31.6237 27.2042 32.2097 27.7903C32.7958 28.3763 33.125 29.1712 33.125 30Z" stroke="#70C1FF" stroke-width="1.5625" stroke-linecap="round" stroke-linejoin="round"/>
</svg>
