<svg width="26" height="27" viewBox="0 0 26 27" fill="none" xmlns="http://www.w3.org/2000/svg">
<path d="M13 17.3726C12.8556 17.3726 12.7202 17.3502 12.5938 17.3054C12.4674 17.2607 12.35 17.1837 12.2417 17.0747L8.34171 13.1747C8.12504 12.958 8.02104 12.7052 8.02971 12.4163C8.03837 12.1275 8.14237 11.8747 8.34171 11.658C8.55837 11.4413 8.81585 11.3287 9.11412 11.32C9.4124 11.3113 9.66951 11.415 9.88546 11.6309L11.9167 13.6622V5.91634C11.9167 5.6094 12.0207 5.35229 12.2287 5.14501C12.4367 4.93773 12.6938 4.83373 13 4.83301C13.3063 4.83229 13.5637 4.93629 13.7725 5.14501C13.9812 5.35373 14.0848 5.61084 14.0834 5.91634V13.6622L16.1146 11.6309C16.3313 11.4143 16.5888 11.3103 16.887 11.3189C17.1853 11.3276 17.4424 11.4406 17.6584 11.658C17.857 11.8747 17.961 12.1275 17.9704 12.4163C17.9798 12.7052 17.8758 12.958 17.6584 13.1747L13.7584 17.0747C13.65 17.183 13.5327 17.2599 13.4063 17.3054C13.2799 17.3509 13.1445 17.3733 13 17.3726ZM6.50004 22.1663C5.90421 22.1663 5.39432 21.9544 4.97037 21.5304C4.54643 21.1065 4.3341 20.5962 4.33337 19.9997V17.833C4.33337 17.5261 4.43737 17.269 4.64537 17.0617C4.85337 16.8544 5.11049 16.7504 5.41671 16.7497C5.72293 16.749 5.9804 16.853 6.18912 17.0617C6.39785 17.2704 6.50149 17.5275 6.50004 17.833V19.9997H19.5V17.833C19.5 17.5261 19.604 17.269 19.812 17.0617C20.02 16.8544 20.2772 16.7504 20.5834 16.7497C20.8896 16.749 21.1471 16.853 21.3558 17.0617C21.5645 17.2704 21.6682 17.5275 21.6667 17.833V19.9997C21.6667 20.5955 21.4547 21.1058 21.0308 21.5304C20.6068 21.9551 20.0966 22.1671 19.5 22.1663H6.50004Z" fill="#999999"/>
</svg>
