<svg width="25" height="25" viewBox="0 0 25 25" fill="none" xmlns="http://www.w3.org/2000/svg">
<path d="M21.875 14.583C21.5987 14.583 21.3338 14.6928 21.1384 14.8881C20.9431 15.0835 20.8333 15.3484 20.8333 15.6247V19.7913C20.8333 20.0676 20.7236 20.3326 20.5282 20.5279C20.3329 20.7233 20.0679 20.833 19.7917 20.833H5.20833C4.93206 20.833 4.66711 20.7233 4.47176 20.5279C4.27641 20.3326 4.16666 20.0676 4.16666 19.7913V15.6247C4.16666 15.3484 4.05692 15.0835 3.86156 14.8881C3.66621 14.6928 3.40126 14.583 3.12499 14.583C2.84873 14.583 2.58378 14.6928 2.38843 14.8881C2.19307 15.0835 2.08333 15.3484 2.08333 15.6247V19.7913C2.08333 20.6201 2.41257 21.415 2.99862 22.0011C3.58467 22.5871 4.37953 22.9163 5.20833 22.9163H19.7917C20.6205 22.9163 21.4153 22.5871 22.0014 22.0011C22.5874 21.415 22.9167 20.6201 22.9167 19.7913V15.6247C22.9167 15.3484 22.8069 15.0835 22.6116 14.8881C22.4162 14.6928 22.1513 14.583 21.875 14.583ZM11.7604 16.3643C11.8595 16.4591 11.9763 16.5334 12.1042 16.583C12.2289 16.6381 12.3637 16.6666 12.5 16.6666C12.6363 16.6666 12.7711 16.6381 12.8958 16.583C13.0237 16.5334 13.1405 16.4591 13.2396 16.3643L17.4062 12.1976C17.6024 12.0014 17.7126 11.7354 17.7126 11.458C17.7126 11.1806 17.6024 10.9146 17.4062 10.7184C17.2101 10.5223 16.9441 10.4121 16.6667 10.4121C16.3893 10.4121 16.1232 10.5223 15.9271 10.7184L13.5417 13.1143V3.12467C13.5417 2.84841 13.4319 2.58346 13.2366 2.3881C13.0412 2.19275 12.7763 2.08301 12.5 2.08301C12.2237 2.08301 11.9588 2.19275 11.7634 2.3881C11.5681 2.58346 11.4583 2.84841 11.4583 3.12467V13.1143L9.07291 10.7184C8.97579 10.6213 8.86049 10.5443 8.73359 10.4917C8.60669 10.4391 8.47068 10.4121 8.33333 10.4121C8.19598 10.4121 8.05997 10.4391 7.93307 10.4917C7.80617 10.5443 7.69087 10.6213 7.59375 10.7184C7.49662 10.8155 7.41958 10.9309 7.36702 11.0577C7.31445 11.1846 7.2874 11.3207 7.2874 11.458C7.2874 11.5954 7.31445 11.7314 7.36702 11.8583C7.41958 11.9852 7.49662 12.1005 7.59375 12.1976L11.7604 16.3643Z" fill="white"/>
</svg>
