<svg width="60" height="60" viewBox="0 0 60 60" fill="none" xmlns="http://www.w3.org/2000/svg">
<rect width="60" height="60" rx="30" fill="#FFEFEF"/>
<path d="M19.0625 31.25H23.6625C24.074 31.2499 24.4791 31.3514 24.842 31.5455C25.2048 31.7396 25.5141 32.0202 25.7425 32.3625L26.7575 33.8875C26.9859 34.2298 27.2952 34.5104 27.658 34.7045C28.0209 34.8986 28.426 35.0001 28.8375 35H31.1625C31.574 35.0001 31.9791 34.8986 32.342 34.7045C32.7048 34.5104 33.0141 34.2298 33.2425 33.8875L34.2575 32.3625C34.4859 32.0202 34.7952 31.7396 35.158 31.5455C35.5209 31.3514 35.926 31.2499 36.3375 31.25H40.9375" stroke="#FF6969" stroke-width="1.875" stroke-linecap="round" stroke-linejoin="round"/>
<path d="M27.5 25.625H32.5M21.8125 20.1375L19.11 29.9462C18.8713 30.8115 18.7502 31.7049 18.75 32.6025V38.75C18.75 39.413 19.0134 40.0489 19.4822 40.5178C19.9511 40.9866 20.587 41.25 21.25 41.25H38.75C39.413 41.25 40.0489 40.9866 40.5178 40.5178C40.9866 40.0489 41.25 39.413 41.25 38.75V32.6025C41.2498 31.7049 41.1287 30.8115 40.89 29.9462L38.1875 20.1375C37.9805 19.721 37.6615 19.3705 37.2662 19.1253C36.8709 18.8802 36.4151 18.7502 35.95 18.75H24.05C23.5849 18.7502 23.1291 18.8802 22.7338 19.1253C22.3385 19.3705 22.0195 19.721 21.8125 20.1375Z" stroke="#FF6969" stroke-width="1.875" stroke-linecap="round" stroke-linejoin="round"/>
</svg>
