<svg width="61" height="60" viewBox="0 0 61 60" fill="none" xmlns="http://www.w3.org/2000/svg">
<rect x="0.5" width="60" height="60" rx="30" fill="#FFFBF0"/>
<path d="M20.0625 31.25H24.6625C25.074 31.2499 25.4791 31.3514 25.842 31.5455C26.2048 31.7396 26.5141 32.0202 26.7425 32.3625L27.7575 33.8875C27.9859 34.2298 28.2952 34.5104 28.658 34.7045C29.0209 34.8986 29.426 35.0001 29.8375 35H32.1625C32.574 35.0001 32.9791 34.8986 33.342 34.7045C33.7048 34.5104 34.0141 34.2298 34.2425 33.8875L35.2575 32.3625C35.4859 32.0202 35.7952 31.7396 36.158 31.5455C36.5209 31.3514 36.926 31.2499 37.3375 31.25H41.9375" stroke="#FFD95D" stroke-width="1.875" stroke-linecap="round" stroke-linejoin="round"/>
<path d="M28.5 25.625H33.5M31 23.125V28.125M22.8125 20.1375L20.11 29.9462C19.8713 30.8115 19.7502 31.7049 19.75 32.6025V38.75C19.75 39.413 20.0134 40.0489 20.4822 40.5178C20.9511 40.9866 21.587 41.25 22.25 41.25H39.75C40.413 41.25 41.0489 40.9866 41.5178 40.5178C41.9866 40.0489 42.25 39.413 42.25 38.75V32.6025C42.2498 31.7049 42.1287 30.8115 41.89 29.9462L39.1875 20.1375C38.9805 19.721 38.6615 19.3705 38.2662 19.1253C37.8709 18.8802 37.4151 18.7502 36.95 18.75H25.05C24.5849 18.7502 24.1291 18.8802 23.7338 19.1253C23.3385 19.3705 23.0195 19.721 22.8125 20.1375Z" stroke="#FFD95D" stroke-width="1.875" stroke-linecap="round" stroke-linejoin="round"/>
</svg>
