<svg width="22" height="23" viewBox="0 0 22 23" fill="none" xmlns="http://www.w3.org/2000/svg">
<path d="M17.1875 4.625V2.90625C17.1875 2.81508 17.1513 2.72765 17.0868 2.66318C17.0224 2.59872 16.9349 2.5625 16.8438 2.5625H5.15625C5.06508 2.5625 4.97765 2.59872 4.91318 2.66318C4.84872 2.72765 4.8125 2.81508 4.8125 2.90625V4.625" fill="#999999"/>
<path d="M17.5312 5.3125H4.46875C3.83057 5.3125 3.21853 5.56602 2.76727 6.01727C2.31602 6.46853 2.0625 7.08057 2.0625 7.71875V16.6562C2.0625 16.7474 2.09872 16.8349 2.16318 16.8993C2.22765 16.9638 2.31508 17 2.40625 17H4.8125V20.0938C4.8125 20.1849 4.84872 20.2724 4.91318 20.3368C4.97765 20.4013 5.06508 20.4375 5.15625 20.4375H16.8438C16.9349 20.4375 17.0224 20.4013 17.0868 20.3368C17.1513 20.2724 17.1875 20.1849 17.1875 20.0938V17H19.5938C19.6849 17 19.7724 16.9638 19.8368 16.8993C19.9013 16.8349 19.9375 16.7474 19.9375 16.6562V7.71875C19.9375 7.08057 19.684 6.46853 19.2327 6.01727C18.7815 5.56602 18.1694 5.3125 17.5312 5.3125ZM15.4688 18.5469C15.4688 18.5925 15.4506 18.6362 15.4184 18.6684C15.3862 18.7006 15.3425 18.7188 15.2969 18.7188H6.70312C6.65754 18.7188 6.61382 18.7006 6.58159 18.6684C6.54936 18.6362 6.53125 18.5925 6.53125 18.5469V12.0156C6.53125 11.97 6.54936 11.9263 6.58159 11.8941C6.61382 11.8619 6.65754 11.8438 6.70312 11.8438H15.2969C15.3425 11.8438 15.3862 11.8619 15.4184 11.8941C15.4506 11.9263 15.4688 11.97 15.4688 12.0156V18.5469ZM16.9297 9.43406C16.7194 9.45097 16.5089 9.40295 16.3267 9.29647C16.1445 9.19 15.9994 9.03021 15.9109 8.83865C15.8224 8.64709 15.7948 8.433 15.8318 8.22526C15.8688 8.01752 15.9687 7.82613 16.1179 7.67692C16.2671 7.52772 16.4585 7.42787 16.6662 7.39086C16.8739 7.35385 17.088 7.38146 17.2796 7.46996C17.4711 7.55847 17.6309 7.7036 17.7374 7.88578C17.8439 8.06796 17.8919 8.27842 17.875 8.48875C17.8554 8.73292 17.7495 8.96212 17.5763 9.13533C17.4031 9.30854 17.1739 9.41444 16.9297 9.43406Z" fill="#999999"/>
</svg>
