<svg width="12" height="19" viewBox="0 0 12 19" fill="none" xmlns="http://www.w3.org/2000/svg">
<g clip-path="url(#clip0_719_2613)">
<path d="M6.57685 17.1258C6.14716 17.5408 5.44935 17.5408 5.01966 17.1258L0.619663 12.8758C0.303413 12.5703 0.210601 12.1154 0.382476 11.717C0.554351 11.3186 0.953101 11.0596 1.39998 11.0596H10.2C10.6434 11.0596 11.0456 11.3186 11.2175 11.717C11.3894 12.1154 11.2931 12.5703 10.9803 12.8758L6.58029 17.1258H6.57685Z" fill="#B3B3B3"/>
</g>
<g clip-path="url(#clip1_719_2613)">
<path d="M6.57685 1.87422C6.14716 1.45918 5.44935 1.45918 5.01966 1.87422L0.619663 6.12422C0.303413 6.42969 0.210601 6.88457 0.382476 7.28301C0.554351 7.68144 0.953101 7.94043 1.39998 7.94043H10.2C10.6434 7.94043 11.0456 7.68144 11.2175 7.28301C11.3894 6.88457 11.2931 6.42969 10.9803 6.12422L6.58029 1.87422H6.57685Z" fill="#B3B3B3"/>
</g>
<defs>
<clipPath id="clip0_719_2613">
<rect width="11" height="17" fill="white" transform="translate(0.299988 1.5)"/>
</clipPath>
<clipPath id="clip1_719_2613">
<rect width="11" height="17" fill="white" transform="matrix(1 0 0 -1 0.299988 17.5)"/>
</clipPath>
</defs>
</svg>
