<svg width="25" height="25" viewBox="0 0 25 25" fill="none" xmlns="http://www.w3.org/2000/svg">
<path d="M20.4205 16.943L13.1001 9.73834C12.9404 9.58033 12.7248 9.4917 12.5001 9.4917C12.2755 9.4917 12.0599 9.58033 11.9001 9.73834L4.57827 16.9415C4.41755 17.0994 4.20124 17.1879 3.97592 17.1879C3.7506 17.1879 3.53429 17.0994 3.37358 16.9415C3.29444 16.8643 3.23155 16.7721 3.1886 16.6703C3.14566 16.5684 3.12354 16.459 3.12354 16.3485C3.12354 16.238 3.14566 16.1286 3.1886 16.0267C3.23155 15.9249 3.29444 15.8327 3.37358 15.7555L10.6923 8.5524C11.1744 8.07908 11.823 7.81389 12.4986 7.81389C13.1742 7.81389 13.8228 8.07908 14.3048 8.5524L21.6236 15.7555C21.703 15.8327 21.7661 15.925 21.8091 16.027C21.8522 16.129 21.8744 16.2386 21.8744 16.3493C21.8744 16.46 21.8522 16.5696 21.8091 16.6716C21.7661 16.7735 21.703 16.8659 21.6236 16.943C21.4629 17.101 21.2466 17.1895 21.0212 17.1895C20.7959 17.1895 20.5796 17.101 20.4189 16.943" fill="#999999"/>
</svg>
