<svg width="25" height="25" viewBox="0 0 25 25" fill="none" xmlns="http://www.w3.org/2000/svg">
<path d="M20.4202 8.05697L13.0999 15.2617C12.9402 15.4197 12.7246 15.5083 12.4999 15.5083C12.2752 15.5083 12.0596 15.4197 11.8999 15.2617L4.57802 8.05853C4.41731 7.9006 4.201 7.81211 3.97568 7.81211C3.75035 7.81211 3.53405 7.9006 3.37333 8.05853C3.2942 8.13569 3.2313 8.2279 3.18836 8.32974C3.14541 8.43158 3.12329 8.54098 3.12329 8.6515C3.12329 8.76203 3.14541 8.87143 3.18836 8.97327C3.2313 9.07511 3.2942 9.16732 3.37333 9.24447L10.6921 16.4476C11.1741 16.9209 11.8227 17.1861 12.4983 17.1861C13.1739 17.1861 13.8225 16.9209 14.3046 16.4476L21.6233 9.24447C21.7027 9.1673 21.7658 9.07499 21.8089 8.973C21.852 8.87102 21.8742 8.76143 21.8742 8.65072C21.8742 8.54001 21.852 8.43042 21.8089 8.32844C21.7658 8.22646 21.7027 8.13415 21.6233 8.05697C21.4626 7.89904 21.2463 7.81055 21.021 7.81055C20.7957 7.81055 20.5794 7.89904 20.4186 8.05697" fill="#999999"/>
</svg>
