<svg width="28" height="29" viewBox="0 0 28 29" fill="none" xmlns="http://www.w3.org/2000/svg">
<path d="M9.33333 16.834C9.00278 16.834 8.72589 16.722 8.50267 16.498C8.27944 16.274 8.16744 15.9971 8.16667 15.6673C8.16589 15.3375 8.27789 15.0607 8.50267 14.8367C8.72744 14.6127 9.00433 14.5007 9.33333 14.5007C9.66233 14.5007 9.93961 14.6127 10.1652 14.8367C10.3907 15.0607 10.5023 15.3375 10.5 15.6673C10.4977 15.9971 10.3857 16.2744 10.164 16.4992C9.94233 16.7239 9.66544 16.8355 9.33333 16.834ZM14 16.834C13.6694 16.834 13.3926 16.722 13.1693 16.498C12.9461 16.274 12.8341 15.9971 12.8333 15.6673C12.8326 15.3375 12.9446 15.0607 13.1693 14.8367C13.3941 14.6127 13.671 14.5007 14 14.5007C14.329 14.5007 14.6063 14.6127 14.8318 14.8367C15.0574 15.0607 15.169 15.3375 15.1667 15.6673C15.1643 15.9971 15.0523 16.2744 14.8307 16.4992C14.609 16.7239 14.3321 16.8355 14 16.834ZM18.6667 16.834C18.3361 16.834 18.0592 16.722 17.836 16.498C17.6128 16.274 17.5008 15.9971 17.5 15.6673C17.4992 15.3375 17.6112 15.0607 17.836 14.8367C18.0608 14.6127 18.3377 14.5007 18.6667 14.5007C18.9957 14.5007 19.2729 14.6127 19.4985 14.8367C19.7241 15.0607 19.8357 15.3375 19.8333 15.6673C19.831 15.9971 19.719 16.2744 19.4973 16.4992C19.2757 16.7239 18.9988 16.8355 18.6667 16.834ZM5.83333 26.1673C5.19167 26.1673 4.64256 25.939 4.186 25.4825C3.72944 25.0259 3.50078 24.4764 3.5 23.834V7.50066C3.5 6.85899 3.72867 6.30988 4.186 5.85332C4.64333 5.39677 5.19244 5.1681 5.83333 5.16732H7V4.00066C7 3.6701 7.112 3.39321 7.336 3.16999C7.56 2.94677 7.83689 2.83477 8.16667 2.83399C8.49644 2.83321 8.77372 2.94521 8.9985 3.16999C9.22328 3.39477 9.33489 3.67166 9.33333 4.00066V5.16732H18.6667V4.00066C18.6667 3.6701 18.7787 3.39321 19.0027 3.16999C19.2267 2.94677 19.5036 2.83477 19.8333 2.83399C20.1631 2.83321 20.4404 2.94521 20.6652 3.16999C20.8899 3.39477 21.0016 3.67166 21 4.00066V5.16732H22.1667C22.8083 5.16732 23.3578 5.39599 23.8152 5.85332C24.2725 6.31065 24.5008 6.85977 24.5 7.50066V23.834C24.5 24.4757 24.2717 25.0252 23.8152 25.4825C23.3586 25.9398 22.8091 26.1681 22.1667 26.1673H5.83333ZM5.83333 23.834H22.1667V12.1673H5.83333V23.834Z" fill="#999999"/>
</svg>
