<svg width="25" height="19" viewBox="0 0 25 19" fill="none" xmlns="http://www.w3.org/2000/svg">
<path d="M24.875 9.5L20.375 5V8.375H10.25V10.625H20.375V14M0.125 16.25V2.75C0.125 2.15326 0.362053 1.58097 0.78401 1.15901C1.20597 0.737053 1.77826 0.5 2.375 0.5H15.875C16.4717 0.5 17.044 0.737053 17.466 1.15901C17.8879 1.58097 18.125 2.15326 18.125 2.75V6.125H15.875V2.75H2.375V16.25H15.875V12.875H18.125V16.25C18.125 16.8467 17.8879 17.419 17.466 17.841C17.044 18.2629 16.4717 18.5 15.875 18.5H2.375C1.77826 18.5 1.20597 18.2629 0.78401 17.841C0.362053 17.419 0.125 16.8467 0.125 16.25Z" fill="white"/>
</svg>
