<svg width="30" height="31" viewBox="0 0 30 31" fill="none" xmlns="http://www.w3.org/2000/svg">
<path d="M15 27.0625V11.6188M15 6.1675V3.9375M15 6.1675C15.7227 6.1675 16.4158 6.4546 16.9269 6.96563C17.4379 7.47667 17.725 8.16979 17.725 8.8925C17.725 9.61522 17.4379 10.3083 16.9269 10.8194C16.4158 11.3304 15.7227 11.6175 15 11.6175C14.2773 11.6175 13.5842 11.3304 13.0731 10.8194C12.5621 10.3083 12.275 9.61522 12.275 8.8925C12.275 8.16979 12.5621 7.47667 13.0731 6.96563C13.5842 6.4546 14.2773 6.1675 15 6.1675ZM6.74126 27.0625V19.8775M6.74126 19.8775C6.01838 19.8775 5.32449 19.5897 4.81333 19.0786C4.30218 18.5674 4.01501 17.8741 4.01501 17.1513C4.01501 16.4285 4.30336 15.7354 4.8144 15.2244C5.32543 14.7133 6.01855 14.4262 6.74126 14.4262M6.74126 19.8775C7.46415 19.8775 8.1568 19.5897 8.66795 19.0786C9.1791 18.5674 9.46626 17.8741 9.46626 17.1513C9.46626 16.4285 9.17917 15.7354 8.66813 15.2244C8.15709 14.7133 7.46398 14.4262 6.74126 14.4262M6.74126 14.4262V3.9375M23.2588 27.0625V23.1813M23.2588 17.73V3.9375M23.2588 17.73C23.9815 17.73 24.6746 18.0171 25.1856 18.5281C25.6967 19.0392 25.9838 19.7323 25.9838 20.455C25.9838 20.8129 25.9133 21.1672 25.7763 21.4978C25.6394 21.8284 25.4387 22.1288 25.1856 22.3819C24.9326 22.6349 24.6322 22.8356 24.3016 22.9726C23.971 23.1095 23.6166 23.18 23.2588 23.18C22.9009 23.18 22.5466 23.1095 22.216 22.9726C21.8853 22.8356 21.5849 22.6349 21.3319 22.3819C21.0789 22.1288 20.8781 21.8284 20.7412 21.4978C20.6042 21.1672 20.5338 20.8129 20.5338 20.455C20.5338 19.7323 20.8209 19.0392 21.3319 18.5281C21.8429 18.0171 22.536 17.73 23.2588 17.73Z" stroke="#999999" stroke-width="1.875" stroke-miterlimit="10" stroke-linecap="round"/>
</svg>
