<svg width="21" height="21" viewBox="0 0 21 21" fill="none" xmlns="http://www.w3.org/2000/svg">
<path d="M19.8752 19.8752L15.3513 15.3513M15.3513 15.3513C16.1251 14.5774 16.7389 13.6587 17.1577 12.6477C17.5765 11.6366 17.7921 10.5529 17.7921 9.45855C17.7921 8.36417 17.5765 7.28051 17.1577 6.26944C16.7389 5.25836 16.1251 4.33968 15.3513 3.56584C14.5774 2.792 13.6587 2.17815 12.6477 1.75935C11.6366 1.34055 10.5529 1.125 9.45855 1.125C8.36417 1.125 7.28051 1.34055 6.26944 1.75935C5.25836 2.17815 4.33968 2.792 3.56584 3.56584C2.003 5.12868 1.125 7.24835 1.125 9.45855C1.125 11.6687 2.003 13.7884 3.56584 15.3513C5.12868 16.9141 7.24835 17.7921 9.45855 17.7921C11.6687 17.7921 13.7884 16.9141 15.3513 15.3513Z" stroke="#B3B3B3" stroke-width="1.875" stroke-linecap="round" stroke-linejoin="round"/>
</svg>
