<svg width="30" height="30" viewBox="0 0 30 30" fill="none" xmlns="http://www.w3.org/2000/svg">
<path d="M27.25 22.25L22.75 17.75C22.5 17.625 22.25 17.5 22 17.5H18.5C18 17.5 17.5 18 17.5 18.5V22C17.5 22.25 17.625 22.5 17.75 22.75L22.25 27.25C22.375 27.375 22.625 27.5 23 27.5C23.25 27.5 23.5 27.375 23.75 27.25L27.25 23.75C27.375 23.625 27.5 23.375 27.5 23C27.5 22.75 27.375 22.5 27.25 22.25ZM19.25 20C18.875 20 18.5 19.625 18.5 19.25C18.5 18.875 18.875 18.5 19.25 18.5C19.625 18.5 20 18.875 20 19.25C20 19.625 19.625 20 19.25 20ZM12.5 5C9.75 5 7.5 7.25 7.5 10C7.5 12.75 9.75 15 12.5 15C15.25 15 17.5 12.75 17.5 10C17.5 7.25 15.25 5 12.5 5ZM12.5 17.5C7 17.5 2.5 19.75 2.5 22.5V25H16.5L16 24.5C15.375 23.875 15 23 15 22V18.5C15 18.25 15 18 15.125 17.625C14.25 17.5 13.375 17.5 12.5 17.5Z" fill="#999999"/>
</svg>
