<svg width="30" height="30" viewBox="0 0 30 30" fill="none" xmlns="http://www.w3.org/2000/svg">
<path d="M21.25 22.5V20M15 22.5V18.75M8.75 22.5V16.25M7.5 8.75C11.4963 12.835 16.5425 13.8512 21.4263 12.49M19.61 10.59L22.2025 11.86C22.51 12.0112 22.5925 12.36 22.3875 12.64L20.6588 15" stroke="#999999" stroke-width="1.875" stroke-linecap="round" stroke-linejoin="round"/>
<path d="M3.125 15C3.125 9.4025 3.125 6.6025 4.86375 4.86375C6.6025 3.125 9.40125 3.125 15 3.125C20.5975 3.125 23.3975 3.125 25.1362 4.86375C26.875 6.6025 26.875 9.40125 26.875 15C26.875 20.5975 26.875 23.3975 25.1362 25.1362C23.3975 26.875 20.5988 26.875 15 26.875C9.4025 26.875 6.6025 26.875 4.86375 25.1362C3.125 23.3975 3.125 20.5988 3.125 15Z" stroke="#999999" stroke-width="1.875" stroke-linecap="round" stroke-linejoin="round"/>
</svg>
