<svg xmlns="http://www.w3.org/2000/svg" width="40" height="40" viewBox="0 0 40 40" fill="none">
<rect width="40" height="40" rx="20" fill="#EDFBEA"/>
<g clip-path="url(#clip0_956_1457)">
<path d="M32.0917 28.191C31.2881 27.4746 30.5846 26.6534 30 25.7493C29.3612 24.5017 28.9787 23.1388 28.875 21.741V17.6243C28.8805 15.429 28.0842 13.3072 26.6356 11.6577C25.1871 10.0081 23.186 8.94423 21.0084 8.66602V7.59102C21.0084 7.29596 20.8911 7.01299 20.6825 6.80436C20.4739 6.59573 20.1909 6.47852 19.8959 6.47852C19.6008 6.47852 19.3178 6.59573 19.1092 6.80436C18.9006 7.01299 18.7834 7.29596 18.7834 7.59102V8.68268C16.6252 8.98096 14.6483 10.0512 13.2188 11.6953C11.7893 13.3393 11.004 15.4457 11.0084 17.6243V21.741C10.9046 23.1388 10.5221 24.5017 9.88335 25.7493C9.30909 26.6513 8.61685 27.4725 7.82502 28.191C7.73613 28.2691 7.66489 28.3652 7.61603 28.473C7.56718 28.5808 7.54184 28.6977 7.54169 28.816V29.9493C7.54169 30.1704 7.62948 30.3823 7.78576 30.5386C7.94204 30.6949 8.15401 30.7827 8.37502 30.7827H31.5417C31.7627 30.7827 31.9747 30.6949 32.1309 30.5386C32.2872 30.3823 32.375 30.1704 32.375 29.9493V28.816C32.3749 28.6977 32.3495 28.5808 32.3007 28.473C32.2518 28.3652 32.1806 28.2691 32.0917 28.191ZM9.27502 29.116C10.0502 28.3669 10.7328 27.5275 11.3084 26.616C12.1132 25.1093 12.5823 23.4462 12.6834 21.741V17.6243C12.6503 16.6477 12.8141 15.6744 13.1651 14.7624C13.516 13.8504 14.0469 13.0183 14.7261 12.3158C15.4053 11.6132 16.2189 11.0545 17.1185 10.6729C18.0181 10.2913 18.9853 10.0947 19.9625 10.0947C20.9397 10.0947 21.9069 10.2913 22.8065 10.6729C23.7062 11.0545 24.5198 11.6132 25.199 12.3158C25.8782 13.0183 26.409 13.8504 26.76 14.7624C27.1109 15.6744 27.2747 16.6477 27.2417 17.6243V21.741C27.3428 23.4462 27.8119 25.1093 28.6167 26.616C29.1922 27.5275 29.8749 28.3669 30.65 29.116H9.27502Z" fill="#999999"/>
<path d="M20 33.566C20.5249 33.5539 21.0287 33.3566 21.4222 33.0089C21.8156 32.6612 22.0734 32.1855 22.15 31.666H17.7667C17.8454 32.1996 18.1153 32.6864 18.5261 33.0359C18.9369 33.3854 19.4607 33.5738 20 33.566Z" fill="#999999"/>

</g>
<defs>
<clipPath id="clip0_956_1457">
<rect width="30" height="30" fill="white" transform="translate(5 5)"/>
</clipPath>
</defs>
</svg>