<svg width="30" height="30" viewBox="0 0 30 30" fill="none" xmlns="http://www.w3.org/2000/svg">
<path d="M15 17.8126C13.9171 17.8135 12.8508 17.5461 11.8965 17.0342C10.9423 16.5223 10.1297 15.7819 9.53156 14.8792L11.0934 13.8413C11.521 14.4861 12.1015 15.015 12.7831 15.3809C13.4648 15.7467 14.2264 15.9382 15 15.9382C15.7736 15.9382 16.5352 15.7467 17.2169 15.3809C17.8985 15.015 18.479 14.4861 18.9066 13.8413L20.4684 14.8792C19.8703 15.7819 19.0577 16.5223 18.1035 17.0342C17.1492 17.5461 16.0829 17.8135 15 17.8126ZM18.75 7.5001C18.3792 7.5001 18.0166 7.61006 17.7083 7.81609C17.4 8.02212 17.1596 8.31495 17.0177 8.65756C16.8758 9.00018 16.8387 9.37718 16.911 9.74089C16.9834 10.1046 17.162 10.4387 17.4242 10.7009C17.6864 10.9631 18.0205 11.1417 18.3842 11.2141C18.7479 11.2864 19.1249 11.2493 19.4675 11.1074C19.8101 10.9655 20.103 10.7251 20.309 10.4168C20.515 10.1084 20.625 9.74594 20.625 9.3751C20.6275 9.12817 20.5807 8.88323 20.4874 8.65461C20.394 8.42599 20.256 8.21829 20.0814 8.04368C19.9068 7.86907 19.6991 7.73105 19.4705 7.63771C19.2419 7.54437 18.9969 7.49759 18.75 7.5001ZM11.25 7.5001C10.8792 7.5001 10.5166 7.61006 10.2083 7.81609C9.89996 8.02212 9.65964 8.31495 9.51773 8.65756C9.37581 9.00018 9.33868 9.37718 9.41103 9.74089C9.48338 10.1046 9.66195 10.4387 9.92418 10.7009C10.1864 10.9631 10.5205 11.1417 10.8842 11.2141C11.2479 11.2864 11.6249 11.2493 11.9675 11.1074C12.3101 10.9655 12.603 10.7251 12.809 10.4168C13.015 10.1084 13.125 9.74594 13.125 9.3751C13.1275 9.12817 13.0807 8.88323 12.9874 8.65461C12.894 8.42599 12.756 8.21829 12.5814 8.04368C12.4068 7.86907 12.1991 7.73105 11.9705 7.63771C11.7419 7.54437 11.4969 7.49759 11.25 7.5001Z" fill="#999999"/>
<path d="M16.6275 28.125L15 27.1875L18.75 20.625H24.375C24.6213 20.6254 24.8653 20.5771 25.093 20.483C25.3206 20.3889 25.5275 20.2508 25.7017 20.0767C25.8758 19.9025 26.0139 19.6956 26.108 19.468C26.2021 19.2403 26.2504 18.9963 26.25 18.75V5.625C26.2504 5.37867 26.2021 5.13468 26.108 4.90703C26.0139 4.67938 25.8758 4.47253 25.7017 4.29835C25.5275 4.12417 25.3206 3.98607 25.093 3.89197C24.8653 3.79788 24.6213 3.74963 24.375 3.75H5.625C5.37867 3.74963 5.13468 3.79788 4.90703 3.89197C4.67938 3.98607 4.47253 4.12417 4.29835 4.29835C4.12417 4.47253 3.98607 4.67938 3.89197 4.90703C3.79788 5.13468 3.74963 5.37867 3.75 5.625V18.75C3.74963 18.9963 3.79788 19.2403 3.89197 19.468C3.98607 19.6956 4.12417 19.9025 4.29835 20.0767C4.47253 20.2508 4.67938 20.3889 4.90703 20.483C5.13468 20.5771 5.37867 20.6254 5.625 20.625H14.0625V22.5H5.625C4.63044 22.5 3.67661 22.1049 2.97335 21.4016C2.27009 20.6984 1.875 19.7446 1.875 18.75V5.625C1.875 4.63044 2.27009 3.67661 2.97335 2.97335C3.67661 2.27009 4.63044 1.875 5.625 1.875H24.375C25.3696 1.875 26.3234 2.27009 27.0266 2.97335C27.7299 3.67661 28.125 4.63044 28.125 5.625V18.75C28.125 19.7446 27.7299 20.6984 27.0266 21.4016C26.3234 22.1049 25.3696 22.5 24.375 22.5H19.8422L16.6275 28.125Z" fill="#999999"/>
</svg>
