<svg width="30px" height="30px" viewBox="0 0 30 30" fill="none" xmlns="http://www.w3.org/2000/svg" transform="rotate(0) scale(1, 1)">
<path d="M15 4.5C14.2043 4.5 13.4413 4.81607 12.8786 5.37868C12.316 5.94129 12 6.70435 12 7.5C12 8.29565 12.316 9.05871 12.8786 9.62132C13.4413 10.1839 14.2043 10.5 15 10.5C15.7956 10.5 16.5587 10.1839 17.1213 9.62132C17.6839 9.05871 18 8.29565 18 7.5C18 6.70435 17.6839 5.94129 17.1213 5.37868C16.5587 4.81607 15.7956 4.5 15 4.5ZM10.5 7.5C10.5 6.30653 10.9741 5.16193 11.818 4.31802C12.6619 3.47411 13.8065 3 15 3C16.1934 3 17.338 3.47411 18.1819 4.31802C19.0259 5.16193 19.5 6.30653 19.5 7.5C19.5 8.69347 19.0259 9.83807 18.1819 10.682C17.338 11.5259 16.1934 12 15 12C13.8065 12 12.6619 11.5259 11.818 10.682C10.9741 9.83807 10.5 8.69347 10.5 7.5ZM7.57947 14.994C7.52847 15.238 7.50297 15.49 7.50297 15.75V16.5675L3.55647 17.625C3.36433 17.6763 3.20046 17.8019 3.10088 17.974C3.0013 18.1462 2.97418 18.3509 3.02547 18.543L3.99597 22.1655C4.28071 23.2264 4.94365 24.1465 5.85986 24.7524C6.77607 25.3584 7.88226 25.6082 8.96997 25.455C9.31497 25.92 9.71247 26.346 10.1535 26.7195L9.89697 26.7945C9.13582 26.9987 8.34192 27.0509 7.56058 26.9482C6.77925 26.8455 6.02581 26.5899 5.34327 26.196C4.66074 25.8021 4.06249 25.2776 3.5827 24.6524C3.1029 24.0272 2.75096 23.3137 2.54697 22.5525L1.57647 18.93C1.50003 18.6446 1.48056 18.3469 1.51917 18.0539C1.55778 17.761 1.65372 17.4785 1.80151 17.2226C1.94929 16.9668 2.14603 16.7425 2.38049 16.5627C2.61495 16.3828 2.88253 16.2509 3.16797 16.1745L7.57947 14.994ZM22.503 16.5675V15.75C22.502 15.49 22.477 15.238 22.428 14.994L26.838 16.176C27.4141 16.3307 27.9053 16.7078 28.2035 17.2245C28.5016 17.7413 28.5824 18.3553 28.428 18.9315L27.4575 22.554C27.2476 23.3367 26.8814 24.0689 26.3809 24.7062C25.8804 25.3435 25.2559 25.8729 24.5452 26.2623C23.8345 26.6517 23.0523 26.8931 22.2458 26.9719C21.4393 27.0508 20.6251 26.9654 19.8525 26.721C20.2955 26.345 20.69 25.9235 21.036 25.4565C22.1236 25.6093 23.2296 25.359 24.1455 24.7528C25.0615 24.1466 25.7241 23.2264 26.0085 22.1655L26.9805 18.543C27.0318 18.3509 27.0046 18.1462 26.9051 17.974C26.8055 17.8019 26.6416 17.6763 26.4495 17.625L22.503 16.5675ZM22.5 9.75C22.5 9.15326 22.737 8.58097 23.159 8.15901C23.5809 7.73705 24.1532 7.5 24.75 7.5C25.3467 7.5 25.919 7.73705 26.341 8.15901C26.7629 8.58097 27 9.15326 27 9.75C27 10.3467 26.7629 10.919 26.341 11.341C25.919 11.7629 25.3467 12 24.75 12C24.1532 12 23.5809 11.7629 23.159 11.341C22.737 10.919 22.5 10.3467 22.5 9.75ZM24.75 6C23.7554 6 22.8016 6.39509 22.0983 7.09835C21.3951 7.80161 21 8.75544 21 9.75C21 10.7446 21.3951 11.6984 22.0983 12.4017C22.8016 13.1049 23.7554 13.5 24.75 13.5C25.7445 13.5 26.6984 13.1049 27.4016 12.4017C28.1049 11.6984 28.5 10.7446 28.5 9.75C28.5 8.75544 28.1049 7.80161 27.4016 7.09835C26.6984 6.39509 25.7445 6 24.75 6ZM5.24997 7.5C4.65323 7.5 4.08093 7.73705 3.65898 8.15901C3.23702 8.58097 2.99997 9.15326 2.99997 9.75C2.99997 10.3467 3.23702 10.919 3.65898 11.341C4.08093 11.7629 4.65323 12 5.24997 12C5.8467 12 6.419 11.7629 6.84096 11.341C7.26291 10.919 7.49997 10.3467 7.49997 9.75C7.49997 9.15326 7.26291 8.58097 6.84096 8.15901C6.419 7.73705 5.8467 7.5 5.24997 7.5ZM1.49997 9.75C1.49997 8.75544 1.89505 7.80161 2.59832 7.09835C3.30158 6.39509 4.2554 6 5.24997 6C6.24453 6 7.19836 6.39509 7.90162 7.09835C8.60488 7.80161 8.99997 8.75544 8.99997 9.75C8.99997 10.7446 8.60488 11.6984 7.90162 12.4017C7.19836 13.1049 6.24453 13.5 5.24997 13.5C4.2554 13.5 3.30158 13.1049 2.59832 12.4017C1.89505 11.6984 1.49997 10.7446 1.49997 9.75ZM11.25 13.5C10.6532 13.5 10.0809 13.7371 9.65898 14.159C9.23702 14.581 8.99997 15.1533 8.99997 15.75V21C8.99997 22.5913 9.63211 24.1174 10.7573 25.2426C11.8825 26.3679 13.4087 27 15 27C16.5913 27 18.1174 26.3679 19.2426 25.2426C20.3678 24.1174 21 22.5913 21 21V15.75C21 15.1533 20.7629 14.581 20.341 14.159C19.919 13.7371 19.3467 13.5 18.75 13.5H11.25ZM10.5 15.75C10.5 15.5511 10.579 15.3603 10.7196 15.2197C10.8603 15.079 11.0511 15 11.25 15H18.75C18.9489 15 19.1396 15.079 19.2803 15.2197C19.4209 15.3603 19.5 15.5511 19.5 15.75V21C19.5 22.1935 19.0259 23.3381 18.1819 24.182C17.338 25.0259 16.1934 25.5 15 25.5C13.8065 25.5 12.6619 25.0259 11.818 24.182C10.9741 23.3381 10.5 22.1935 10.5 21V15.75Z" fill="#5eda42"/>
</svg>