<svg width="30px" height="30px" viewBox="0 0 30 30" fill="none" xmlns="http://www.w3.org/2000/svg" transform="rotate(0) scale(1, 1)">
<path opacity="0.3" fill-rule="evenodd" clip-rule="evenodd" d="M23.75 13.75C24.3807 13.7498 24.9882 13.988 25.4507 14.4169C25.9132 14.8457 26.1964 15.4336 26.2438 16.0625L26.25 16.25V23.75C26.2502 24.3807 26.012 24.9882 25.5831 25.4507C25.1543 25.9132 24.5664 26.1964 23.9375 26.2438L23.75 26.25H18.75C18.1193 26.2502 17.5118 26.012 17.0493 25.5831C16.5868 25.1543 16.3036 24.5664 16.2563 23.9375L16.25 23.75V16.25C16.2498 15.6193 16.488 15.0118 16.9169 14.5493C17.3457 14.0868 17.9336 13.8036 18.5625 13.7563L18.75 13.75H23.75ZM23.75 3.75C24.413 3.75 25.0489 4.01339 25.5178 4.48223C25.9866 4.95107 26.25 5.58696 26.25 6.25V8.75C26.25 9.41304 25.9866 10.0489 25.5178 10.5178C25.0489 10.9866 24.413 11.25 23.75 11.25H18.75C18.087 11.25 17.4511 10.9866 16.9822 10.5178C16.5134 10.0489 16.25 9.41304 16.25 8.75V6.25C16.25 5.58696 16.5134 4.95107 16.9822 4.48223C17.4511 4.01339 18.087 3.75 18.75 3.75H23.75Z" fill="#5eda42"/>
<path fill-rule="evenodd" clip-rule="evenodd" d="M11.25 3.75C11.913 3.75 12.5489 4.01339 13.0178 4.48223C13.4866 4.95107 13.75 5.58696 13.75 6.25V13.75C13.75 14.413 13.4866 15.0489 13.0178 15.5178C12.5489 15.9866 11.913 16.25 11.25 16.25H6.25C5.58696 16.25 4.95107 15.9866 4.48223 15.5178C4.01339 15.0489 3.75 14.413 3.75 13.75V6.25C3.75 5.58696 4.01339 4.95107 4.48223 4.48223C4.95107 4.01339 5.58696 3.75 6.25 3.75H11.25Z" fill="#5eda42"/>
<path opacity="0.3" fill-rule="evenodd" clip-rule="evenodd" d="M11.25 18.75C11.913 18.75 12.5489 19.0134 13.0178 19.4822C13.4866 19.9511 13.75 20.587 13.75 21.25V23.75C13.75 24.413 13.4866 25.0489 13.0178 25.5178C12.5489 25.9866 11.913 26.25 11.25 26.25H6.25C5.58696 26.25 4.95107 25.9866 4.48223 25.5178C4.01339 25.0489 3.75 24.413 3.75 23.75V21.25C3.75 20.587 4.01339 19.9511 4.48223 19.4822C4.95107 19.0134 5.58696 18.75 6.25 18.75H11.25Z" fill="#5eda42"/>
</svg>