<svg width="30" height="30" viewBox="0 0 30 30" fill="none" xmlns="http://www.w3.org/2000/svg">
<path d="M5.625 28.125H16.875C17.3723 28.125 17.8492 27.9275 18.2008 27.5758C18.5525 27.2242 18.75 26.7473 18.75 26.25V23.4375H16.875V26.25H5.625V3.75H16.875V6.5625H18.75V3.75C18.75 3.25272 18.5525 2.77581 18.2008 2.42417C17.8492 2.07254 17.3723 1.875 16.875 1.875H5.625C5.12772 1.875 4.65081 2.07254 4.29917 2.42417C3.94754 2.77581 3.75 3.25272 3.75 3.75V26.25C3.75 26.7473 3.94754 27.2242 4.29917 27.5758C4.65081 27.9275 5.12772 28.125 5.625 28.125Z" fill="#FF3333"/>
<path d="M19.2994 19.2994L22.6613 15.9375H9.375V14.0625H22.6613L19.2994 10.7006L20.625 9.375L26.25 15L20.625 20.625L19.2994 19.2994Z" fill="#FF3333"/>
</svg>
