<svg width="30" height="30" viewBox="0 0 30 30" fill="none" xmlns="http://www.w3.org/2000/svg">
<path d="M19.6876 2.81256C15.5344 2.81256 12.1876 6.15944 12.1876 10.3126C12.1876 10.5329 12.2222 10.831 12.2466 11.1038L4.2188 19.1307C3.7803 19.5664 3.43229 20.0844 3.19482 20.6551C2.95734 21.2258 2.83508 21.8379 2.83508 22.456C2.83508 23.0741 2.95734 23.6862 3.19482 24.2569C3.43229 24.8276 3.7803 25.3456 4.2188 25.7813C4.65447 26.2198 5.17256 26.5678 5.74326 26.8053C6.31395 27.0428 6.92598 27.165 7.54412 27.165C8.16225 27.165 8.77428 27.0428 9.34498 26.8053C9.91567 26.5678 10.4338 26.2198 10.8694 25.7813L18.8963 17.7535C19.1682 17.7779 19.4682 17.8126 19.6876 17.8126C23.8407 17.8126 27.1876 14.4657 27.1876 10.3126C27.1924 9.10414 26.8898 7.91434 26.3082 6.85506L25.7222 5.77131L24.8438 6.65069L20.8004 10.6632L19.336 9.19881L23.3485 5.15631L24.2297 4.27694L23.1451 3.691C22.0857 3.10974 20.8959 2.80745 19.6876 2.81256ZM19.6876 4.68756C20.1432 4.68756 20.4826 4.88444 20.8876 4.981L17.3438 8.52475L16.6688 9.19975L17.3438 9.84381L20.1563 12.6563L20.8013 13.3313L21.4744 12.6563L25.0201 9.11256C25.1166 9.51756 25.3126 9.85694 25.3126 10.3126C25.3126 13.4719 22.8469 15.9376 19.6876 15.9376C19.3126 15.9376 19.0126 15.9376 18.7782 15.8785L18.2813 15.7323L17.9007 16.1138L9.55037 24.4641C8.39724 25.6173 6.69099 25.6173 5.53787 24.4641L5.50787 24.4341C4.38287 23.281 4.39224 21.5935 5.53599 20.4498L13.8863 12.1004L14.2679 11.7198L14.1197 11.2229C14.0635 10.9885 14.0616 10.6885 14.0616 10.3135C14.0616 7.15413 16.5272 4.6885 19.6866 4.6885L19.6876 4.68756Z" fill="#999999"/>
</svg>
