<svg width="30px" height="30px" viewBox="0 0 30 30" fill="none" xmlns="http://www.w3.org/2000/svg" transform="rotate(0) scale(1, 1)">
<path d="M4.5 8.25C4.5 7.25544 4.89509 6.30161 5.59835 5.59835C6.30161 4.89509 7.25544 4.5 8.25 4.5H21.75C22.7446 4.5 23.6984 4.89509 24.4016 5.59835C25.1049 6.30161 25.5 7.25544 25.5 8.25V12.348C24.9495 12.0183 24.4476 11.6134 24.009 11.145L24 11.136V8.25C24 7.65326 23.7629 7.08097 23.341 6.65901C22.919 6.23705 22.3467 6 21.75 6H8.25C7.65326 6 7.08097 6.23705 6.65901 6.65901C6.23705 7.08097 6 7.65326 6 8.25V21.75C6 22.3467 6.23705 22.919 6.65901 23.341C7.08097 23.7629 7.65326 24 8.25 24H16.233C16.5349 24.5364 16.8929 25.0392 17.301 25.5H8.25C7.25544 25.5 6.30161 25.1049 5.59835 24.4016C4.89509 23.6984 4.5 22.7446 4.5 21.75V8.25ZM27.9 14.5005C26.0625 14.5005 24.414 13.7355 22.926 12.183C22.8713 12.1254 22.8055 12.0794 22.7325 12.0481C22.6595 12.0167 22.5809 12.0005 22.5015 12.0005C22.4221 12.0005 22.3435 12.0167 22.2705 12.0481C22.1975 12.0794 22.1317 12.1254 22.077 12.183C20.5845 13.737 18.9345 14.5005 17.1 14.5005C16.77 14.5005 16.5 14.7795 16.5 15.1245V18.876L16.506 19.239C16.6215 23.064 18.5865 25.674 22.311 26.9685C22.434 27.0105 22.566 27.0105 22.689 26.9685C26.5305 25.6335 28.5 22.899 28.5 18.876V15.126L28.491 15.012C28.4684 14.8708 28.3968 14.7421 28.2887 14.6486C28.1806 14.555 28.043 14.5026 27.9 14.5005ZM20.46 16.665L22.5 18.705L24.5325 16.6725C24.6391 16.5731 24.7802 16.519 24.9259 16.5216C25.0716 16.5242 25.2107 16.5832 25.3137 16.6863C25.4168 16.7893 25.4758 16.9284 25.4784 17.0741C25.481 17.2198 25.4269 17.3609 25.3275 17.4675L23.295 19.5L25.3275 21.5325C25.4269 21.6391 25.481 21.7802 25.4784 21.9259C25.4758 22.0716 25.4168 22.2107 25.3137 22.3137C25.2107 22.4168 25.0716 22.4758 24.9259 22.4784C24.7802 22.481 24.6391 22.4269 24.5325 22.3275L22.5 20.295L20.4675 22.3275C20.3609 22.4269 20.2198 22.481 20.0741 22.4784C19.9284 22.4758 19.7893 22.4168 19.6863 22.3137C19.5832 22.2107 19.5242 22.0716 19.5216 21.9259C19.519 21.7802 19.5731 21.6391 19.6725 21.5325L21.705 19.5L19.665 17.46C19.5656 17.3534 19.5115 17.2123 19.5141 17.0666C19.5167 16.9209 19.5757 16.7818 19.6788 16.6788C19.7818 16.5757 19.9209 16.5167 20.0666 16.5141C20.2123 16.5115 20.3534 16.5656 20.46 16.665Z" fill="#5eda42"/>
</svg>